<svg xmlns="http://www.w3.org/2000/svg" xmlns:xlink="http://www.w3.org/1999/xlink" viewBox="0 0 500 500" xmlns:v="https://vecta.io/nano"><style><![CDATA[.B{fill:#c03f3f}.C{fill:#37474f}.D{fill:#455a64}.E{fill:#fff}.F{fill:#263238}.G{opacity:.15}.H{fill:#fafafa}.I{fill:#ffa8a7}.J{fill:#f28f8f}]]></style><path d="M34.33 330.57l59.51-34.42 62.9 36.4-59.52 34.42-62.89-36.4z" class="B"/><path d="M34.33 330.57l59.51-34.42 62.9 36.4-59.52 34.42-62.89-36.4z" opacity=".7" class="E"/><path d="M97.22 408.58l-62.89-36.41v-41.6l62.89 36.4v41.61z" class="B"/><path d="M97.22 408.58l-62.89-36.41v-41.6l62.89 36.4v41.61z" opacity=".55" class="E"/><g class="D"><path d="M89.52 394.55a4 4 0 0 1-1.7-3.22v-4.92l3.45 2h.23v.32h0v4.41a1.63 1.63 0 0 1-.68 1.49 1 1 0 0 1-.54.15 1.55 1.55 0 0 1-.76-.23zm.38-5.31l-.25 1.76h-1.28v.36a3.51 3.51 0 0 0 1.43 2.74.74.74 0 0 0 .75.08 1.12 1.12 0 0 0 .4-1v-4.08zm-.49-.47l1-.18-2.06-1.22v3.05h.8z"/><path d="M89.66 398.29a.28.28 0 0 0 .28-.28v-3.7a.28.28 0 0 0-.56 0V398a.28.28 0 0 0 .28.29z"/><path d="M91.27 399.22a.28.28 0 0 0 .24-.14.29.29 0 0 0-.1-.38l-3.22-1.86a.28.28 0 0 0-.38.11.27.27 0 0 0 .1.37l3.22 1.86a.23.23 0 0 0 .14.04zm-11.47-6.38a.52.52 0 0 0 .3-.08.72.72 0 0 0 .33-.66v-.76a.28.28 0 1 0-.55 0v.76.18c0 .01-.09 0-.18 0a1.64 1.64 0 0 1-.52-1.26v-4.92a.28.28 0 1 0-.55 0v4.9a2.1 2.1 0 0 0 .78 1.73.85.85 0 0 0 .39.11z"/><path d="M75.35 384.28v-.16a2.35 2.35 0 0 1 3.82-2.21 7.85 7.85 0 0 1 3.55 6.15v.48zm1.42-2.12a2 2 0 0 0-.86 1.8l6.23 3.6a7.32 7.32 0 0 0-3.24-5.16 2.81 2.81 0 0 0-1.39-.43 1.43 1.43 0 0 0-.74.19zm-6.92 5.01a.28.28 0 0 0 .27-.28v-9.43a.28.28 0 1 0-.55 0v9.43a.28.28 0 0 0 .28.28z"/><path d="M70.66 379.61h.11a.28.28 0 0 0 .14-.37l-1-2.28-1.1 1.27a.28.28 0 0 0 .42.37l.53-.61.63 1.47a.28.28 0 0 0 .27.15zm-3.38 6.1a.28.28 0 0 0 .28-.28V376a.28.28 0 1 0-.55 0v9.43a.28.28 0 0 0 .27.28z"/><path d="M68.09 378.15a.2.2 0 0 0 .11 0 .27.27 0 0 0 .15-.36l-1-2.28-1.1 1.27a.28.28 0 0 0 .42.36l.52-.6.64 1.47a.28.28 0 0 0 .26.14z"/></g><path d="M97.22 408.58l59.52-34.42v-41.61l-59.52 34.42v41.61z" class="B"/><path d="M97.22 408.58l59.52-34.42v-41.61l-59.52 34.42v41.61z" opacity=".4" class="E"/><path d="M131.75 353.3l-4.07 2.35v-6.32l4.07-2.35v6.32z" class="C"/><path d="M127.68 349.33l-62.9-36.4 4.08-2.36 62.89 36.41-4.07 2.35z" class="D"/><path d="M53.65 368v10.43c0 .4-.28.56-.63.36l-16.29-9.4a1.39 1.39 0 0 1-.63-1.09v-10.4c0-.41.28-.57.63-.37L53 366.94a1.39 1.39 0 0 1 .65 1.06z" class="H"/><path d="M37.11 359.03l.52.3v9.49l-.52-.31v-9.48zm2.14 1.23l.91.54v9.48l-.91-.53v-9.49zm2.14 1.24l.53.3v9.49l-.53-.31v-9.48zm1.62.91l1.05.63v9.48l-1.05-.62v-9.49zm2.66 1.56l.53.3v9.49l-.53-.31v-9.48zm1.55.87l1.12.67V375l-1.12-.67v-9.49zm2.74 1.6l.52.31v9.48l-.52-.3v-9.49zm1.22.7l.26.15v9.48l-.26-.15v-9.48zm-2.2-1.22l.26.16v9.48l-.26-.15v-9.49zm-4.31-2.52l.26.15v9.49l-.26-.16v-9.48zm-2.37-1.36l.27.15v9.49l-.27-.15v-9.49zm-1.69-.93l.26.15v9.48l-.26-.15v-9.48zm-2.3-1.4l.26.15v9.49l-.26-.16v-9.48zm13.79 7.97l.52.3v9.49l-.52-.31v-9.48z" class="D"/><path d="M49.79 302.37l44.9-25.96 47.45 27.46-44.9 25.97-47.45-27.47z" class="B"/><path d="M97.24 329.84l17.86-10.33-20.41-11.81-17.86 10.32 20.41 11.82" opacity=".1" class="E"/><path d="M94.69 307.7v-31.29l-44.9 25.96 27.01 15.68 17.89-10.35z" class="G"/><path d="M97.24 361.23l-47.45-27.47v-31.39l47.45 27.47v31.39z" class="B"/><path d="M97.24 361.23l-47.45-27.47v-31.39l47.45 27.47v31.39z" opacity=".55" class="E"/><g class="D"><path d="M91.43 350.64a3 3 0 0 1-1.29-2.42v-3.72l2.61 1.5h.17v.25h0v3.33a1.23 1.23 0 0 1-.51 1.13.81.81 0 0 1-.41.11 1.09 1.09 0 0 1-.57-.18zm.29-4l-.19 1.3h-1v.28a2.6 2.6 0 0 0 1.08 2.06.56.56 0 0 0 .56.06.85.85 0 0 0 .3-.76v-3.08zm-.37-.36l.77-.14-1.56-.91v2.3h.61z"/><path d="M91.53 353.47a.21.21 0 0 0 .21-.21v-2.8a.21.21 0 0 0-.21-.21.22.22 0 0 0-.21.21v2.8a.22.22 0 0 0 .21.21z"/><path d="M92.75 354.17a.21.21 0 0 0 .18-.11.2.2 0 0 0-.08-.28l-2.43-1.4a.2.2 0 0 0-.28.07.21.21 0 0 0 .07.29l2.43 1.4a.23.23 0 0 0 .11.03zm-8.66-4.81a.44.44 0 0 0 .23-.06.56.56 0 0 0 .25-.51v-.57a.21.21 0 1 0-.41 0v.57a.2.2 0 0 1 0 .14.17.17 0 0 1-.14 0 1.26 1.26 0 0 1-.39-.95v-3.71a.21.21 0 0 0-.42 0V348a1.6 1.6 0 0 0 .6 1.31.7.7 0 0 0 .28.05z"/><path d="M80.74 342.9v-.12a1.77 1.77 0 0 1 2.88-1.67 5.91 5.91 0 0 1 2.68 4.64v.36zm1.07-1.61a1.54 1.54 0 0 0-.65 1.37l4.7 2.71a5.54 5.54 0 0 0-2.45-3.9 2.14 2.14 0 0 0-1-.32 1.13 1.13 0 0 0-.6.14zm-5.22 3.78a.2.2 0 0 0 .2-.2v-7.12a.2.2 0 0 0-.2-.21.21.21 0 0 0-.21.21v7.12a.2.2 0 0 0 .21.2z"/><path d="M77.2 339.37a.12.12 0 0 0 .08 0 .2.2 0 0 0 .11-.27l-.75-1.72-.83 1a.21.21 0 0 0 0 .29.2.2 0 0 0 .29 0l.39-.45.49 1.11a.21.21 0 0 0 .22.04zM74.65 344a.21.21 0 0 0 .21-.21v-7.11a.21.21 0 0 0-.42 0v7.11a.21.21 0 0 0 .21.21z"/><path d="M75.26 338.27h.09a.21.21 0 0 0 .11-.27l-.75-1.72-.83 1a.2.2 0 0 0 0 .29.21.21 0 0 0 .3 0l.39-.46.48 1.11a.22.22 0 0 0 .21.05z"/></g><path d="M97.24 361.23l44.9-25.97v-31.39l-44.9 25.97v31.39z" class="B"/><path d="M97.24 361.23l44.9-25.97v-31.39l-44.9 25.97v31.39z" opacity=".4" class="E"/><path d="M64.37 330.64v7.87c0 .31-.22.43-.48.28l-12.29-7.1a1 1 0 0 1-.47-.82V323c0-.3.21-.42.47-.27l12.29 7.1a1.06 1.06 0 0 1 .48.81z" class="H"/><path d="M51.89 323.85l.39.22v7.16l-.39-.23v-7.15zm1.61.93l.69.4v7.15l-.69-.4v-7.15zm1.62.93l.4.23v7.15l-.4-.22v-7.16zm1.22.69l.79.47v7.16l-.79-.47v-7.16zm2.01 1.17l.4.23v7.16l-.4-.23v-7.16zm1.16.66l.85.51v7.15l-.85-.5v-7.16zm2.07 1.21l.4.23v7.15l-.4-.23v-7.15zm.92.52l.2.12v7.15l-.2-.11v-7.16zm-1.66-.91l.2.11v7.16l-.2-.12v-7.15zm-3.25-1.91l.2.12v7.15l-.2-.11v-7.16zm-1.78-1.02l.2.11v7.16l-.2-.11v-7.16zm-1.28-.71l.2.12v7.15l-.2-.11v-7.16zm-1.74-1.05l.2.11v7.16l-.2-.12v-7.15zm10.41 6.01l.39.23v7.15l-.39-.22v-7.16z" class="D"/><path d="M45.57 278.22l44.9-25.97 4.22 24.16-44.9 25.96-4.22-24.15z" class="B"/><path d="M45.57 278.22l44.9-25.97 4.22 24.16-44.9 25.96-4.22-24.15z" opacity=".2" class="E"/><path d="M149.51 281.37l-47.45-27.46-7.37 22.53 47.45 27.47 7.37-22.54z" class="B"/><path d="M149.51 281.37l-47.45-27.46-7.37 22.53 47.45 27.47 7.37-22.54z" opacity=".4" class="E"/><path d="M107.16 308.6l44.9-25.97-9.92 21.24-44.9 25.97 9.92-21.24z" class="B"/><path d="M107.16 308.6l44.9-25.97-9.92 21.24-44.9 25.97 9.92-21.24z" opacity=".2" class="E"/><path d="M87.32 308.6l-47.45-27.47 9.92 21.24 47.45 27.47-9.92-21.24z" class="B"/><path d="M87.32 308.6l-47.45-27.47 9.92 21.24 47.45 27.47-9.92-21.24z" opacity=".4" class="E"/><path d="M109.48 405.68c-.07-11.79 8.11-26.17 18.28-32.13 5.34-3.13 10.15-3.28 13.54-1.05h0l6.95 3.92L122 421.64l-6.85-3.91h0c-3.43-1.89-5.63-6.03-5.67-12.05z" class="C"/><path d="M135.2 377.8c-10.17 6-18.36 20.35-18.28 32.14s8.38 16.51 18.55 10.55 18.36-20.35 18.28-32.13-8.38-16.52-18.55-10.56z" class="D"/><path d="M135.25 386.11c-6.21 3.64-11.22 12.43-11.17 19.63s5.12 10.09 11.34 6.45 11.21-12.43 11.17-19.64-5.13-10.09-11.34-6.44z" class="C"/><path d="M141.36 384.62a9.33 9.33 0 0 0-6.11 1.49c-6.21 3.64-11.22 12.43-11.17 19.63a9.94 9.94 0 0 0 1.36 5.34 9.27 9.27 0 0 0 6.11-1.48c6.21-3.64 11.21-12.43 11.17-19.63a10.09 10.09 0 0 0-1.36-5.35z" class="F"/><path d="M128.05 402a13.42 13.42 0 0 1 6-10.57c1.75-1 3.33-1.08 4.45-.35h0l2.29 1.29-8.63 14.89-2.24-1.26h0c-1.14-.66-1.86-2-1.87-4z" class="C"/><path d="M136.51 392.82a13.46 13.46 0 0 0-6 10.57c0 3.88 2.76 5.44 6.11 3.48a13.46 13.46 0 0 0 6-10.58c-.03-3.88-2.76-5.43-6.11-3.47z" class="D"/><path d="M136.54 396.6a6.21 6.21 0 0 0-2.78 4.88c0 1.79 1.27 2.51 2.82 1.6a6.2 6.2 0 0 0 2.77-4.87c-.01-1.79-1.27-2.51-2.81-1.61z" class="F"/><path d="M273.46,254.33l-162.7-6.62,13.85,168h0a3.55,3.55,0,0,0,2,2.62l66.29,38.26a10.89,10.89,0,0,0,9.85,0l54.79-31.63a3.55,3.55,0,0,0,2-2.63h0Z" class="B"/><path d="M197.87,254.33l-87.11-6.62,13.85,168h0a3.55,3.55,0,0,0,2,2.62l66.29,38.26a10,10,0,0,0,4.93,1.18Z" class="G"/><path d="M147.38 430.26l25.5 14.72v-45.5l-28.79-16.63 3.29 47.41z" class="G"/><path d="M151.49 427.88l21.39 12.35v-40.75l-24.33-14.05 2.94 42.45z" class="G"/><path d="M147.38 430.26l4.11-2.38 21.39 12.35v4.75l-25.5-14.72z" class="B"/><path d="M147.38 430.26l4.11-2.38 21.39 12.35v4.75l-25.5-14.72z" opacity=".05"/><use xlink:href="#B" class="B"/><use xlink:href="#B" opacity=".25" class="E"/><use xlink:href="#C" class="B"/><use xlink:href="#C" class="G"/><path d="M186.48,208.45l-.12-.85a6.77,6.77,0,0,0-3.21.72L114.7,247.84l71.78,41.42Z" class="G"/><path d="M188.05 225.45l7.76 62.64c.38 3.13-1.35 4.49-3.86 3l-75-43.28a12.36 12.36 0 0 1-5.25-8.29l-7.76-62.64c-.38-3.13 1.34-4.49 3.86-3l75 43.28a12.36 12.36 0 0 1 5.25 8.29z" class="B"/><path d="M200.71 300.64l-9.46-76.54c0-.08 0-.16-.05-.24v-.25c-.42-3.43-3-7.51-5.77-9.1l-.31-.19h-.06L97.86 164c-1.93-1.12-3.46-.83-4.18.51h0l-4.2 8.34h0a5.13 5.13 0 0 0-.3 2.8l9.1 73.59c.44 3.56 3.11 7.79 6 9.44l83.8 48.32a3.59 3.59 0 0 0 2.74.58c.41-.12 7.52-2.54 8.31-2.82 1.21-.39 1.87-1.87 1.58-4.12z" class="D"/><path d="M183.37 230l9.1 73.59c.44 3.56-1.53 5.11-4.39 3.45l-83.82-48.37c-2.86-1.65-5.53-5.88-6-9.44l-9.1-73.59c-.44-3.56 1.52-5.1 4.39-3.45l83.81 48.37c2.89 1.65 5.57 5.87 6.01 9.44z" class="F"/><path d="M92.52 178.19h0l-3.21 10.3h0a4.73 4.73 0 0 0-.17 2.13l7.54 60.84a12.09 12.09 0 0 0 5.13 8.09L175.37 302a3.52 3.52 0 0 0 1.86.54h0l9.8.1h0c1.59.05 2.52-1.37 2.21-3.82l-8.34-67.41a13.19 13.19 0 0 0-5.56-8.79L96.5 177.15c-1.97-1.15-3.5-.64-3.98 1.04z" class="D"/><path d="M98.48,256.14a10.49,10.49,0,0,0,3.35,3.43L175.37,302a3.52,3.52,0,0,0,1.86.54v0l9.8.1h0c1.59.05,2.52-1.37,2.21-3.82l-8.34-67.41a12.79,12.79,0,0,0-1.93-5.06l-39.76,23.8Z" class="C"/><path d="M171.61 238.22l7.53 60.84c.38 3.05-1.31 4.38-3.77 3l-73.54-42.45a12.09 12.09 0 0 1-5.13-8.09l-7.54-60.84c-.37-3 1.32-4.38 3.77-3l73.55 42.45a12.13 12.13 0 0 1 5.13 8.09z" class="F"/><path d="M97.69 199.11h0l-2.41 7.74h0a3.52 3.52 0 0 0-.12 1.6l5.18 41.66a9.07 9.07 0 0 0 3.85 6.08l58.11 33.54a2.69 2.69 0 0 0 1.4.41h0l7.36.07h0c1.19 0 1.89-1 1.66-2.87L167 240.76a9.91 9.91 0 0 0-4.18-6.6l-62.09-35.83c-1.53-.86-2.67-.48-3.04.78z" class="D"/><path d="M101.69,253.62a7.77,7.77,0,0,0,2.51,2.58l58.11,33.54a2.69,2.69,0,0,0,1.4.41h0l7.36.07h0c1.19,0,1.89-1,1.66-2.87L167,240.76a9.56,9.56,0,0,0-1.46-3.8l-34.82,20.47Z" class="C"/><path d="M160 245.86l5.18 41.65c.29 2.3-1 3.29-2.83 2.23L104.2 256.2a9.07 9.07 0 0 1-3.85-6.08l-5.18-41.66c-.29-2.29 1-3.28 2.83-2.22l58.11 33.54a9.07 9.07 0 0 1 3.89 6.08z" class="F"/><path d="M162.31 289.74l-12.75-7-12.69-7.14-25.29-14.44-6.29-3.66-1.59-.94a7.6 7.6 0 0 1-1.47-1.29 10.61 10.61 0 0 1-2-3.28 8.61 8.61 0 0 1-.46-1.88l-.21-1.81-.44-3.61-.84-7.23L96.69 223l-1.52-14.49 2.07 14.42 2 14.43 1 7.22.46 3.61.23 1.8a7.25 7.25 0 0 0 .41 1.65 9.73 9.73 0 0 0 1.77 2.93 6.22 6.22 0 0 0 1.26 1.1l1.55.9 6.32 3.62 25.16 14.67 12.53 7.41zm29.8 163.79c-.07-11.79 8.11-26.18 18.29-32.14 5.34-3.13 10.14-3.28 13.53-1h0l6.95 3.92-26.22 45.21-6.85-3.91h0c-3.46-1.92-5.66-6.07-5.7-12.08z" class="C"/><path d="M217.83 425.65c-10.17 6-18.36 20.34-18.28 32.13s8.38 16.52 18.55 10.56 18.36-20.34 18.28-32.14-8.38-16.51-18.55-10.55z" class="D"/><path d="M217.88 434c-6.21 3.64-11.21 12.43-11.17 19.63s5.12 10.09 11.34 6.45 11.21-12.43 11.17-19.63-5.12-10.14-11.34-6.45z" class="C"/><path d="M224 432.47a9.27 9.27 0 0 0-6.11 1.48c-6.21 3.64-11.21 12.43-11.17 19.63a10.09 10.09 0 0 0 1.36 5.35 9.33 9.33 0 0 0 6.11-1.48c6.21-3.65 11.21-12.44 11.17-19.64a10 10 0 0 0-1.36-5.34z" class="F"/><path d="M210.68 449.84a13.46 13.46 0 0 1 6-10.58c1.75-1 3.34-1.08 4.45-.34h0l2.29 1.29-8.63 14.88-2.25-1.29h0c-1.12-.62-1.85-1.98-1.86-3.96z" class="C"/><path d="M219.14 440.66a13.45 13.45 0 0 0-6 10.58c0 3.88 2.76 5.43 6.1 3.47a13.44 13.44 0 0 0 6-10.57c-.02-3.88-2.75-5.44-6.1-3.48z" class="D"/><path d="M219.17 444.45a6.19 6.19 0 0 0-2.78 4.88c0 1.79 1.27 2.5 2.82 1.6a6.22 6.22 0 0 0 2.77-4.88c.02-1.79-1.27-2.51-2.81-1.6z" class="F"/><path d="M169.49 336l-3.39-2.46c-2.49-13.28-8.74-19.62-16.16-22.87 3.66 2.94 8.62 11.44 9.65 18.16l-3.4-2.45c-.67-.48-1.08.26-.67 1.21l6.08 14.15c.28.65.8 1 1.14.83L170 338c.45-.3.16-1.55-.51-2zm-13.72-15.12c-2-4.59-5-8.85-7.34-10.76 0 0-7.18-2-9.16 7.23 0 0 6.07-5.76 16.5 3.53zm-19.09-1.46l1.47 5c-6.47 4.7-5 14-.37 24.65-1.39-5.37-.3-13.08 3.18-15.13l1.47 5c.29 1 1.15 1.48 1.41.82l3.78-9.79a1.81 1.81 0 0 0-.5-1.66l-9.53-9.66c-.59-.73-1.2-.21-.91.77zm2.54 20.58a20.75 20.75 0 0 0-.41 11.23s5.21 10.2 13.06 12.1c0-.04-9.29-7.97-12.65-23.33zm16.36 26.71l1.92-2.51c9 8.58 13.7 5.62 16.53-1.77-2.28 2.43-8.32 1.63-12.83-3l1.93-2.51c.38-.49-.08-1.74-.74-2l-9.85-4.35c-.46-.2-.76.19-.65.84l2.3 14.18c.16.87 1.01 1.61 1.39 1.12zm11.18-5.45c3.2 1.32 6.27 1.1 7.75-.48 0 0 2-8.21-3.9-19.33 0 0 3.22 13.69-3.85 19.81z" class="H"/><path d="M150.36 151.51c0 1.19.26 2.3-.61 3.27-2.38 3.17-8.07 5.49-6.94 10.22a7.78 7.78 0 0 0 1.46 2.45 23.85 23.85 0 0 0 5.52 5.64 10.07 10.07 0 0 1 2.74 2c.84 1.1 1 2.64 1.9 3.68 3.87 3.67 8.53-2.25 12.59-2.25 2.79 0 5.85 2.12 8.09.48 3.07-2.25-.26-7.86 2.23-10.72a16.26 16.26 0 0 1 2.12-1.65 5.6 5.6 0 0 0 .88-7.22 5.9 5.9 0 0 1-.94-1.43c-1.83-2.79-5.87-2.85-7.89-5.38-.9-1.12-1.26-2.61-2.19-3.72a5.41 5.41 0 0 0-3.12-1.79 22 22 0 0 0-4.28.37c-1.86.28-3.29-.76-5.66-.54-2.67.26-5.21 1.57-5.86 4.07a12.94 12.94 0 0 0-.04 2.52z" fill="#ebebeb"/><path d="M175.9 174.73c-2 1.36-4.64.55-6.87-.33s-4.87-1.75-6.89-.46a5.21 5.21 0 0 1-1.56.93 2.08 2.08 0 0 1-2.07-.94 5.18 5.18 0 0 1-.75-2.26 3.72 3.72 0 0 0-.85-2.31 2.86 2.86 0 0 0-2-.59 8.33 8.33 0 0 0-3 .62 17.36 17.36 0 0 1-2.24.93 5.41 5.41 0 0 1-3.25-.28 16.16 16.16 0 0 0 3.4 3.05 10.07 10.07 0 0 1 2.74 2c.84 1.1 1 2.64 1.9 3.68 1.51 1.7 4.29 1.27 6.33.26s4-2.5 6.26-2.51c2.79 0 5.85 2.12 8.09.48a3.56 3.56 0 0 0 1.35-2.7zm.98-14.98a4.24 4.24 0 0 0-.84-1.51 6.91 6.91 0 0 0-2.62-1.94 9.5 9.5 0 0 0-2-.57c-.55-.11-1.1 0-1.65-.17a2.39 2.39 0 0 1-1.63-1.06c-.28-.53-1-.69-1.16 0-.42 1.91 1.53 3.36 2.86 4.35a20.52 20.52 0 0 1 2.2 1.59 4.66 4.66 0 0 1 .6.73 8.33 8.33 0 0 0 .58.74c.34.89-.9 2-1.49 2.51a14.16 14.16 0 0 0-2.36 2.41 3.47 3.47 0 0 0-.43 3.36c.29.59.81.8 1.26 1.21a1.48 1.48 0 0 1 .53 1.24 2.46 2.46 0 0 0 .13.75c.05.15.21.37.4.26 1-.54.22-2.3-.29-3.3.19-1.55 1.59-2.75 2.73-3.7a7.85 7.85 0 0 0 3.14-4.54 5.88 5.88 0 0 0 .04-2.36zm-20.78-4.49l-.19-1.19a.29.29 0 0 0-.07-.16.12.12 0 0 0-.16 0 .26.26 0 0 0-.05.12 4.47 4.47 0 0 1-.48 1.72 2.86 2.86 0 0 1-.36.41 3.23 3.23 0 0 1-.94.61c-.57.26-1.19.42-1.78.63a9 9 0 0 0-2.12 1.12 2.65 2.65 0 0 0-.84.86 3.06 3.06 0 0 0-.3 1 6.24 6.24 0 0 0 .53 4 2.4 2.4 0 0 0 .25.37c.06.08.12.21.2.26a.4.4 0 0 0 .52-.17 1.22 1.22 0 0 0 .06-.71 4.47 4.47 0 0 1 2.13-4.13c.6-.36 1.29-.57 1.91-.9a3.48 3.48 0 0 0 1-.7 2.73 2.73 0 0 0 .64-1.52 5.07 5.07 0 0 0 .05-1.62z" fill="#e0e0e0"/><path d="M154.5,149.18c-.42.3-.86.69-.84,1.2a1.11,1.11,0,0,0,.87,1,4.6,4.6,0,0,0,1.48,0,6.8,6.8,0,0,1,1.56.12,2.48,2.48,0,0,1,1.06.43,2.66,2.66,0,0,1,.72,2.16c0,.58,0,1.3.58,1.52a1.14,1.14,0,0,0,.66,0,5.75,5.75,0,0,0,2.94-2,5.3,5.3,0,0,1,1.15-1.07,3.61,3.61,0,0,1,2.83-.19c.6.17,1.3.41,1.78,0s.39-1.18.19-1.79a6.5,6.5,0,0,0-1.22-2.31A3.47,3.47,0,0,0,166,147h-.48c-.64,0-1.25.22-1.88.31a3.62,3.62,0,0,1-.93,0,11.94,11.94,0,0,0-3.27-.07,11.74,11.74,0,0,0-4.95,1.94Z" fill="#f5f5f5"/><g fill="#e0e0e0"><path d="M165.66 162.64a9.19 9.19 0 0 0-2.64-2.36 3.61 3.61 0 0 0-2.92-.5 7.63 7.63 0 0 0-2.3 1.62 13.51 13.51 0 0 0-2 2 7 7 0 0 0-1.31 2.4 8.28 8.28 0 0 0 0 3.06c.23 2.1.41 4.76 2.39 6 .36.22 1.09.33 1.26-.21.34-1.06-.28-2.15-.51-3.17a23.55 23.55 0 0 1-.41-2.63 4.84 4.84 0 0 1 .19-2.64 7.35 7.35 0 0 1 1.46-2 22.81 22.81 0 0 1 1.94-1.73c.17-.13.46-.47.69-.48s.57.26.78.38l1.05.68 1.27.81s.32.32.3.13c0 .23-.57.72-.74.86l-1.24.95c-.08.06-.13.41 0 .35a10.25 10.25 0 0 0 1.32-.56c.48-.25 1-.39 1.48-.64.95-.52.41-1.65-.06-2.32zM222 89.66l-1.4.54a.08.08 0 0 1-.09 0v-.09h0z"/><use xlink:href="#D"/><use xlink:href="#E"/><use xlink:href="#F"/><use xlink:href="#G"/><use xlink:href="#H"/><use xlink:href="#I"/><use xlink:href="#J"/><use xlink:href="#K"/><use xlink:href="#L"/><path d="M167.2 139l-.64 1.35.51-1.41a.07.07 0 1 1 .13 0zm74.36-42.5l-1.48.25h-.07a.06.06 0 0 1 .05-.07h0z"/><use xlink:href="#M"/><use xlink:href="#N"/><use xlink:href="#O"/><use xlink:href="#P"/><path d="M207,109.34l-2.47,1.49h0a.74.74,0,0,1-.77-1.27h0l2.51-1.5a.74.74,0,0,1,.76,1.26Z"/><use xlink:href="#Q"/><path d="M194.26,118l-2.26,1.8h0a.69.69,0,0,1-.87-1.07l2.26-1.86a.71.71,0,1,1,.91,1.1h0Z"/><use xlink:href="#R"/><use xlink:href="#S"/><use xlink:href="#T"/><path d="M173.08 140.11l-.78 1.28.7-1.39a.07.07 0 0 1 .09 0 .06.06 0 0 1 0 .08zM233 113.75l-1.49.09a.08.08 0 0 1-.09-.07.1.1 0 0 1 .07-.09h0z"/><use xlink:href="#U"/><use xlink:href="#V"/><use xlink:href="#W"/><path d="M203 123.52l-2.72 1.55h0a.74.74 0 0 1-.74-1.29h0l2.77-1.59a.74.74 0 0 1 .74 1.29z"/><use xlink:href="#X"/><use xlink:href="#Y"/><use xlink:href="#Z"/><path d="M177,144.39l-.93,1.18.8-1.27a.08.08,0,0,1,.11,0,.07.07,0,0,1,0,.11Z"/></g><g class="G"><path d="M222 89.66l-1.4.54a.08.08 0 0 1-.09 0v-.09h0z"/><use xlink:href="#D"/><use xlink:href="#E"/><use xlink:href="#F"/><use xlink:href="#G"/><use xlink:href="#H"/><use xlink:href="#I"/><use xlink:href="#J"/><use xlink:href="#K"/><use xlink:href="#L"/><path d="M167.2 139l-.64 1.35.51-1.41a.07.07 0 1 1 .13 0zm74.36-42.5l-1.48.25h-.07a.06.06 0 0 1 .05-.07h0z"/><use xlink:href="#M"/><use xlink:href="#N"/><use xlink:href="#O"/><use xlink:href="#P"/><path d="M207,109.34l-2.47,1.49h0a.74.74,0,0,1-.77-1.27h0l2.51-1.5a.74.74,0,0,1,.76,1.26Z"/><use xlink:href="#Q"/><path d="M194.26,118l-2.26,1.8h0a.69.69,0,0,1-.87-1.07l2.26-1.86a.71.71,0,1,1,.91,1.1h0Z"/><use xlink:href="#R"/><use xlink:href="#S"/><use xlink:href="#T"/><path d="M173.08 140.11l-.78 1.28.7-1.39a.07.07 0 0 1 .09 0 .06.06 0 0 1 0 .08zM233 113.75l-1.49.09a.08.08 0 0 1-.09-.07.1.1 0 0 1 .07-.09h0z"/><use xlink:href="#U"/><use xlink:href="#V"/><use xlink:href="#W"/><path d="M203 123.52l-2.72 1.55h0a.74.74 0 0 1-.74-1.29h0l2.77-1.59a.74.74 0 0 1 .74 1.29z"/><use xlink:href="#X"/><use xlink:href="#Y"/><use xlink:href="#Z"/><path d="M177,144.39l-.93,1.18.8-1.27a.08.08,0,0,1,.11,0,.07.07,0,0,1,0,.11Z"/></g><path d="M335.52 355.89c.76-9.42-2.08-52.64-2.08-52.64l25.83 2.55c-.25 23.8-5 42.59-5.73 56.14 0 0-8.05 7.74-12.56 12.71a99.23 99.23 0 0 1-12.43 11.91c-3.44 2.62-11 4.11-12.35 1.76 5.48-6.09 11.87-12.81 15.95-19.38 1.95-3.14 2.85-6.55 3.37-13.05z" class="I"/><path d="M303.15,386.19c-.32,0-.86,3.74.89,5.36,2,1.87,8,5,15.92,4s12.27-3.46,15.47-6.19,7.7-6.58,11.3-7.36c3.34-.72,7-2.25,8.06-3.31s1-5.84,1-5.84Z" class="F"/><path d="M353.94,357s1.18.32,1,2,.13,2.94.8,6.5a25.49,25.49,0,0,1-.13,8.93c-.47,2.44-5.92,4.07-9.41,5.41s-7.69,4.21-11.33,7.26-11.64,6.26-16.81,6.27c-7.89,0-13-2.29-14.51-5.27-1.91-3.68-.28-6.93,8.84-11.2,1.73-.8,7.21-4.4,9.28-5.72,5.6-3.58,10.54-7.36,12.68-16,.87-3.49,7.72-.7,9.09,0,2.59,1.33,3.21,2,3.54,3.6a6.45,6.45,0,0,1-.56,2.94c-.11.33-.83,2.53,0,2.77.3.09.67-.45,1.38-1.52.86-1.3,1.08-2.23,2.36-2.49s2.66-.24,3.6-1.54Z" class="C"/><path d="M312.72 376.81c11.41 1 15.51 9.43 15.94 14-3 1.89-8.24 2.64-10.6 2.64-7.89 0-13.31-2.28-14.83-5.27-2.16-4.24.5-8.87 9.49-11.37z" class="H"/><path d="M326.8 378.6a.55.55 0 0 0 .36-.13.59.59 0 0 0 .09-.81c-1.57-2.06-6.12-4.81-10.28-4.39a.583.583 0 0 0 .11 1.16c3.88-.38 8.05 2.32 9.29 3.95a.55.55 0 0 0 .43.22zm4.66-3.13a.53.53 0 0 0 .35-.13.59.59 0 0 0 .09-.82c-1.56-2-6.12-4.81-10.27-4.39a.58.58 0 0 0-.5.64.56.56 0 0 0 .61.52c3.87-.38 8.05 2.33 9.29 4a.55.55 0 0 0 .43.18zm4.54-3.32a.55.55 0 0 0 .36-.13.58.58 0 0 0 .08-.81c-1.56-2.06-6.13-4.81-10.27-4.39a.583.583 0 0 0 .11 1.16c3.87-.38 8.05 2.32 9.29 3.95a.55.55 0 0 0 .43.22zm5.15-3.91a.53.53 0 0 0 .35-.13.58.58 0 0 0 .1-.81c-2.15-2.92-7.07-4.88-11.22-4.46a.582.582 0 0 0 .1 1.16c3.74-.38 8.33 1.43 10.24 4a.57.57 0 0 0 .43.24z" fill="#f0f0f0"/><path d="M393.78 311.84l26.83-14.35 7.94 53.19c.75 3.18 7 26.54 7.58 33.35.86 10.23-10.56 12.1-12.69 6.44s-10.52-29.12-11.23-31.68c-4.95-11.65-18.07-46.06-18.43-46.95z" class="I"/><path d="M419.72,396.21c1.13,6.4,3.29,11,6,13.24,2.22,1.79,6.41,2.36,10,.68s8.07-5.23,8.33-10.46-.51-8.66-2.26-13.94Z" class="F"/><path d="M428.55 350.68c1.59-.15 3.33 7.62 5.51 15.33 2.34 8.26 5.32 11.32 7.31 18.08 2.27 7.72 2.45 11.32.58 16.56s-10.49 11.6-16.23 5.58c-9.93-10.16-6.78-24.46-11.94-38.38-2-6.31-4.79-11.13-2.83-12.08l1.21 2.89c.19.64 2.4 4.14 2.9 3.13-.14-2.14-1.35-4.31 1.32-5.59 3.31-1.58 6.26-3 9.74-2.35 1.82.34 2 2.2 2.58 3.23s.76.79 1 .69.14-.48 0-1l-1.15-6.09z" class="C"/><path d="M442.55 388.58c1.07 4.86 1.35 8.27-.12 12.37-1.87 5.25-11.24 11.75-17 5.73a22.59 22.59 0 0 1-5.73-10.47c1.93-5.77 17.75-11.34 22.85-7.63z" class="H"/><path d="M422.55 386a.76.76 0 0 0 .18-.09 22.57 22.57 0 0 1 13.27-3.86.62.62 0 0 0 .07-1.23 23.3 23.3 0 0 0-14 4.08.63.63 0 0 0-.14.85.58.58 0 0 0 .62.25zm11.55-9.54a.59.59 0 0 0 .42-.5.6.6 0 0 0-.48-.7c-7.43-1.24-13.75 3.72-14 3.93a.63.63 0 0 0-.11.86.58.58 0 0 0 .83.12c.06-.05 6.2-4.85 13.11-3.7a.53.53 0 0 0 .23-.01zm-1.72-5.38a.64.64 0 0 0 .43-.49.62.62 0 0 0-.48-.71 17.71 17.71 0 0 0-14.33 3.94.63.63 0 0 0-.06.86.56.56 0 0 0 .83.06c.06-.05 5.71-5.06 13.33-3.65a.57.57 0 0 0 .28-.01z" fill="#f0f0f0"/><path d="M430.43 364.58a.62.62 0 0 0 0-1.19c-7.69-1.55-14.12 3.88-14.39 4.12a.62.62 0 0 0-.07.86.55.55 0 0 0 .82.09c.07-.06 6.27-5.3 13.41-3.87a.49.49 0 0 0 .23-.01z" fill="#ebebeb"/><path d="M393.51 148.2c2 7.4 12 18.14 13.5 46.32l4.09 66.43c2.11 4.73 7 10.08 9.65 32.23l5.09 39.29s-12 10-22.26 6.29c-8.28-18.38-20.36-52-25.74-71.06-4.88-17.3-8.1-40.89-8.1-40.89l-7.15 42.57s4.1 10 1.92 27.34c-1.49 11.87-8.22 45.5-8.22 45.5s-12.43 4.45-21.4-1.72l-4.06-74.35c-.73-21.56-2.32-56.28-.88-85.91.54-11.33 2.57-23.05 3.05-31.52z" class="D"/><path d="M425.25 327.21c-3.45 3.53-17 9.59-22.91 8.72l2.53 6.75s4.53.36 11.93-1.8 9.63-6.08 9.63-6.08zm-67.55 7.85c-4.46 1.92-18.12 1.54-23.26-1.57l.45 7s2.4 3.09 10.07 3.55 11.3-1.38 11.3-1.38zm12.04-108.25l-7.23-35s-18-1.18-24.89-7.34c0 0 8.86 11.63 21.11 12.9l6.49 25.68-2.6 45.95z" class="C"/><path d="M236.05 59c-1.39-.46-1.81.87-1 2 1.82 2.63 5.74 2.93 7.47 4.14.4.34 5 5.62 5 7.08l-7-4.43a51.66 51.66 0 0 0-5.3-1.69 5.3 5.3 0 0 0-2-.39c-.46.09-1 1-.31 2 1.29 1.86 4 2.09 6 3.16 1 .49 4 2.22 4.72 4.37-3-1.23-5-1.34-9.83-1.42-.56 0-.69.27-.71.63A1.93 1.93 0 0 0 234 76c1.26.85 3.19.78 5.26 1.29a13.72 13.72 0 0 1 5.62 3.32 5.75 5.75 0 0 1 1.41 2 26.64 26.64 0 0 1 .9 2.92 10.17 10.17 0 0 0 9.13 6.85 1.36 1.36 0 0 0 .77-.13 1.49 1.49 0 0 0 .53-1.24c.33-4.59-1.43-9-2.59-13.48-.38-1.47-3.47-12.42-3.65-12.8-.08-.16-10.71-4.28-11-4.36-1.06-.27-2.99-.92-4.33-1.37z" class="J"/><path d="M323.79 90.78l-31.34 12.34L268.21 87c-5.63-4.25-7-8.81-8.28-12.8-1.8-5.72-2.63-6.11-5-8.09-1.49-1.23-4.79-4.61-4.91-4.72a5.19 5.19 0 0 0-1.8-.91c-.34-.14-1.75-.64-2.09-.76-2-.7-3.21-1-5.17-1.72a8.46 8.46 0 0 0-1.85-.51.67.67 0 0 0-.4 0c-.24.12-.28.44-.26.71a4.57 4.57 0 0 0 2 3.1 15.9 15.9 0 0 0 3.37 1.7c.72.3 1.13.41 2.58 1a3.64 3.64 0 0 1 1.41 1.23 41.55 41.55 0 0 1 5 7.54c-3.31-1.48-4.9-2.64-6.47-4.61s-3.46.13-2.13 3.17c1.54 3.49 4.36 4.27 6.29 9s-2.12 8.56 3.16 12.77a80.49 80.49 0 0 1 8.64 6.89c4 3.79 18.82 19.47 22 22 6.85 5.58 7.25 5.38 23.9-.39 23.5-8.14 27.65-10.12 27.65-10.12l8.77-26.54c-6.43.54-8.85 1.21-20.83 5.84z" class="I"/><path d="M347.05 83.62c-6.06.48-6.4.68-18.2 5.06L292.6 102.6l-11.63-7s.59 3.65-2.21 8.25-8.27 4.4-8.27 4.4l10.25 10.79c5.63 5.79 8.12 7 10.12 7.6s4.62-.58 9.83-2.19 36-12.49 36-12.49z" class="C"/><path d="M252.78,72.79a17.94,17.94,0,0,1,3.85,2.81c.42.46.43-1-1.39-2.73s-3.53-1.79-3.91-2.53Z" class="J"/><path d="M385.68 84.93A99.78 99.78 0 0 0 373.94 83s-7.2-.28-15.12 0-9.65.43-11.77.65c0 0-6.61 2.84-14.55 14.54-6.21 9.17-8 12.76-7.72 18.75.26 6.86 6.6 11.29 6.6 11.29.54 6.05 1 14.72 1.15 17.48-.24 7.36-1.78 16.42-2.34 21.48 5.12 18 49.43 19.19 58.2-3.47 5.86 11.07 14.65 12.41 16.8 12.41-.77-2.47-1.93-11.76-5.21-19.7-3-7.35-7.26-14.06-7.21-19.08 0-2.53 2-9.39 2.93-16 3.14-22.85-4.23-33.79-10.02-36.42z" class="B"/><path d="M385.68 84.93A99.78 99.78 0 0 0 373.94 83s-7.2-.28-15.12 0-9.65.43-11.77.65c0 0-6.61 2.84-14.55 14.54-.69 1-1.33 2-1.92 2.88l17.58-10.15s-.8 4.27 6.58 5.58 13.95-3.07 16.32-4.72c7.44 3.42 12.84 12.55 14.15 15.27h11.1c-.89-13.27-6.22-20.12-10.63-22.12z" class="D"/><path d="M353.21 130.19c7.64 4.73 20.9 2.91 25.32-7.51-.93 5-3.28 10.35-10.06 12.1-8.47 2.22-14.42-2.97-15.26-4.59z" class="G"/><path d="M476 187.75a5.65 5.65 0 0 1-3.44-.65 9.93 9.93 0 0 1-1.2-.84.53.53 0 0 0-.23-.13.6.6 0 0 0-.29.08 5.73 5.73 0 0 1-4.45 0l-5.54-1.89a13.92 13.92 0 0 1-3-1.29 4.63 4.63 0 0 1-2-2.45 2.37 2.37 0 0 1 .09-1.83 2.41 2.41 0 0 1 .81-.87 6.72 6.72 0 0 1 3.49-1 18.66 18.66 0 0 1 10.19 2.28l3.37 2.07c1.1.71 1.43 1.9 2 2.89a12.7 12.7 0 0 0 1.09 1.71c.25.32.87.62.82 1.1s-.4.52-.71.62a7 7 0 0 1-1 .2z" class="J"/><path d="M459.35 186.31c-2.42-1.05-4.86-1-7.42-1.43a17.74 17.74 0 0 1-3.59-.87 3 3 0 0 0-.78-.21 2.72 2.72 0 0 0-.63.08 10.31 10.31 0 0 1-9.12-3.31c-1.4-1.34-2.5-3.72-3.93-5-3.64-3.38-15.24-13.33-23.48-20.41-5.67-4.87-7.39-7.1-9.14-10.87-8.5-18.31-14.49-29.9-14.49-29.9-4.93-9.48-2.9-24-.6-28.93 13.41 3.75 15.37 4 23.22 21.29 4.43 9.77 6.35 15.42 13.37 31.3l25.19 31.49c2.27 1.57 8 1.9 13 3.23 2.61.69 5.18 1.32 7.84 1.78a8.06 8.06 0 0 1 2.56.76 7.78 7.78 0 0 1 1.58 1.28l4.33 4.15c1.23 1.18 2.72 2 4 3.09a1.39 1.39 0 0 1 .42.51c.84 2-3.23 1.89-4.15 1.66a15.73 15.73 0 0 1-3.31-1.4 28.35 28.35 0 0 1-4.36-2.92 7.87 7.87 0 0 0-5-1.89h-4c-.24 0-.57.12-.5.35a.35.35 0 0 0 .16.18 49 49 0 0 0 6.67 4.18 2.22 2.22 0 0 1 1 .76c.41.73-.17 1.64-.86 2.11-2.56 1.71-5.52.01-7.98-1.06z" class="I"/><path d="M385.68 84.93c10.19 2.39 13.5 3.43 16.63 7.33 4 5 5.09 8.57 9 17.84l11.73 27.34 8.88 12a12.75 12.75 0 0 0-7.8 4.35 21.17 21.17 0 0 0-4.63 9.18s-11.23-8.62-13.6-11a22.48 22.48 0 0 1-5.68-7.59c-2.17-4.32-14.57-30.38-14.57-30.38s-6.33-15.55.04-29.07z" class="C"/><path d="M382.94 22.54c4.32.78 6.93 3.14 7.5 7.37 3.91-.33 8.12.64 10.83 3.74a9.37 9.37 0 0 1 2.05 7.72c-.32 2.63-1.76 3.88-3.47 5.63a6.17 6.17 0 0 1 3 7.73c-.63 1.77-7.83 8.06-2.39 8.92-2.6 1.58-6.72-.14-6.24-3.53a7.58 7.58 0 0 1-7.82 7.4c-6.12-.09-10.86-3.74-12-9.73l-1.13-30.38c1.48-3.84 5.47-5.63 9.67-4.87z" class="F"/><path d="M332.24 34.31c.5-2.4 3.52-10.77 12.88-9.26 4.75-4.14 11.57-5.28 15.86-5.36 14.25-.26 19.07 7.88 19.61 11 7.57 2 11.07 15.5 3.82 28-3.62 6.27-9.13 8.71-10.19 12.31l-35.83-19c-3.06-3.38-7.73-10-6.15-17.69z" class="C"/><path d="M377.93 67.17c2.59.43 4.62-.89 6.16-2.65 3.4-3.9 3.64-7.81 2-10.37-1.37-2.11-4.69-3.41-7-1.91-2.44 1.59-2.49 2.85-3.38 4.62s-4.86 1.44-3.67-4.35a6.47 6.47 0 0 1-4.85-5.28c-.85-4.13-.73-8.75-3-10.76-4.88-4.33-9.87-1.35-11.88.72-1.36-2.53-6-5.15-9-2.95s-5.63 6.34-6 17.86c-.35 12.75 2 19.6 5.91 22.66 2.16 1.68 6.14 2.61 9.5 2.37v7.69c-9.19 11.44 11.77 14.49 21.53-1l-.05-18.61a6.4 6.4 0 0 0 3.73 1.96z" class="I"/><path d="M341.74 50.24a2 2 0 1 0 2.26-1.67 2 2 0 0 0-2.26 1.67zm-.94-4.53l4.84-2.12a2.54 2.54 0 0 0-3.4-1.41 2.77 2.77 0 0 0-1.44 3.53zm16.2 5.46a2 2 0 1 0 1.8-2.15 2 2 0 0 0-1.8 2.15zm1.47-6.42l4.66 2.48a2.53 2.53 0 0 0-1-3.54 2.78 2.78 0 0 0-3.66 1.06z" class="F"/><path d="M357,63.15l-7.13,1.39a3.64,3.64,0,0,0,4.6,2.78A3.41,3.41,0,0,0,357,63.15Z" fill="#b16668"/><path d="M352.47 67.29a3.8 3.8 0 0 1 4.2-2.91c.12 0 .23.06.35.09a3.21 3.21 0 0 1-2.55 2.85 4.08 4.08 0 0 1-2-.03zm.74-20.77l-1.1 14.38-7.81-2.82 8.91-11.56zm-.48 30.61c4.41-.37 9.55-.9 13.5-3.64a17.79 17.79 0 0 0 6.41-6.74s0 5-5.62 9.32c-4.83 3.72-14.29 4.18-14.29 4.18z" class="J"/><defs ><path id="B" d="M192.94 296.93l-80.14-46.25c-2.72-1.57-2.72-4.11 0-5.68l68.64-39.63a10.87 10.87 0 0 1 9.84 0l80.15 46.25c2.71 1.57 2.71 4.11 0 5.68l-68.64 39.63a10.89 10.89 0 0 1-9.85 0z"/><path id="C" d="M197.87 294.7a6.79 6.79 0 0 1-3.22-.72l-79.95-46.14 68.45-39.52a7.54 7.54 0 0 1 6.43 0l79.95 46.14L201.08 294a6.77 6.77 0 0 1-3.21.7z"/><path id="D" d="M216.1,92.05l-2.62,1.23h0a.35.35,0,0,1-.47-.17.34.34,0,0,1,.17-.46h0l2.72-1a.24.24,0,0,1,.32.14.26.26,0,0,1-.12.32Z"/><path id="E" d="M209.19,95.45l-2.52,1.42h0a.53.53,0,0,1-.52-.92h0l2.61-1.32a.47.47,0,0,1,.62.2.47.47,0,0,1-.19.62Z"/><path id="F" d="M202.59,99.4,200.2,101h0a.66.66,0,1,1-.74-1.1h0l2.47-1.56a.62.62,0,0,1,.86.19.63.63,0,0,1-.18.86Z"/><path id="G" d="M196.32 103.82l-2.26 1.78h0a.73.73 0 0 1-.9-1.15h0l2.32-1.79a.72.72 0 0 1 1 .13.72.72 0 0 1-.13 1z"/><path id="H" d="M190.41 108.71l-2.11 2h0a.73.73 0 0 1-1.05-.05.74.74 0 0 1 0-1h0l2.15-2a.75.75 0 1 1 1 1.1z"/><path id="I" d="M184.89,114l-2,2.11v0a.72.72,0,0,1-1-1l2-2.15a.71.71,0,0,1,1,0,.72.72,0,0,1,0,1h0Z"/><path id="J" d="M179.77,119.75,178,122v0a.62.62,0,0,1-.88.09.63.63,0,0,1-.11-.87l1.78-2.31a.66.66,0,0,1,.93-.12.67.67,0,0,1,.12.93h0Z"/><path id="K" d="M175.07,125.83l-1.64,2.37h0a.48.48,0,0,1-.65.12.46.46,0,0,1-.12-.63l1.55-2.47a.53.53,0,0,1,.73-.16.52.52,0,0,1,.16.72v0Z"/><path id="L" d="M170.86,132.26l-1.46,2.5h0a.25.25,0,0,1-.44-.24l1.29-2.61a.34.34,0,0,1,.47-.16.36.36,0,0,1,.16.47v0Z"/><path id="M" d="M235.35 97.73l-2.8.71h0a.32.32 0 0 1-.16-.62h0l2.86-.54a.22.22 0 0 1 .27.18.24.24 0 0 1-.17.27z"/><path id="N" d="M227.93,99.81l-2.73.92h0a.49.49,0,1,1-.31-.93h0l2.8-.83a.43.43,0,0,1,.54.3.42.42,0,0,1-.27.53Z"/><path id="O" d="M220.71,102.47l-2.64,1.15h0a.64.64,0,1,1-.51-1.17h0l2.72-1.06a.59.59,0,0,1,.76.33.57.57,0,0,1-.31.74Z"/><path id="P" d="M213.72,105.67,211.16,107h0a.71.71,0,0,1-.65-1.27h0l2.62-1.29a.68.68,0,0,1,.62,1.22Z"/><path id="Q" d="M200.48,113.45l-2.37,1.65h0a.74.74,0,0,1-.85-1.2l2.39-1.69a.75.75,0,1,1,.86,1.22h0Z"/><path id="R" d="M188.35,122.88l-2.14,1.94h0a.59.59,0,0,1-.8-.86l2.1-2a.63.63,0,0,1,.9,0,.66.66,0,0,1,0,.91h0Z"/><path id="S" d="M182.76,128.17l-2,2.1h0a.44.44,0,0,1-.62,0,.44.44,0,0,1,0-.6l1.92-2.2a.5.5,0,0,1,.7,0,.49.49,0,0,1,0,.69v0Z"/><path id="T" d="M177.62,133.9l-1.8,2.27h0a.22.22,0,0,1-.32,0,.23.23,0,0,1-.05-.31l1.67-2.4a.33.33,0,0,1,.45-.08.32.32,0,0,1,.08.45v0Z"/><path id="U" d="M226.29 114.57l-3.06.68h0a.41.41 0 0 1-.48-.32.42.42 0 0 1 .32-.48h0l3.15-.48a.3.3 0 0 1 .34.25.29.29 0 0 1-.23.33z"/><path id="V" d="M218.21,116.72l-3,1.06h0a.6.6,0,0,1-.78-.37.61.61,0,0,1,.37-.78h0l3-.93a.53.53,0,0,1,.34,1Z"/><path id="W" d="M210.43,119.78l-2.84,1.33h0a.72.72,0,0,1-.61-1.31h0l2.91-1.29a.68.68,0,0,1,.91.35.69.69,0,0,1-.34.9Z"/><path id="X" d="M195.8,127.85l-2.59,1.77h0a.69.69,0,0,1-.79-1.13l2.6-1.85a.72.72,0,1,1,.84,1.18h0Z"/><path id="Y" d="M189 132.74l-2.44 2h0a.54.54 0 0 1-.7-.82l2.38-2.12a.63.63 0 0 1 .87.05.62.62 0 0 1-.05.87h0z"/><path id="Z" d="M182.68 138.23l-2.22 2.22h0a.31.31 0 0 1-.43 0 .31.31 0 0 1 0-.41l2.09-2.4a.42.42 0 0 1 .58 0 .41.41 0 0 1 0 .58h0z"/></defs></svg>