<svg xmlns="http://www.w3.org/2000/svg" xmlns:xlink="http://www.w3.org/1999/xlink" viewBox="0 0 500 500" xmlns:v="https://vecta.io/nano"><style><![CDATA[.B{stroke-linejoin:round}.C{stroke:#263238}.D{stroke-linecap:round}.E{fill:none}.F{fill:#263238}.G{fill:#fff}.H{fill:#c03f3f}.I{fill-opacity:.7}.J{opacity:.3}.K{fill:#757575}.L{fill:#bfbfbf}.M{stroke-miterlimit:10}]]></style><defs><clipPath id="A"><path d="M373.36,208.72c12.39,6.59,60.49,39.21,70,49.4s-4.58,89.95-4.58,89.95H414.91l5.59-76.95-54.15-21.3Z" class="B C H"/></clipPath><clipPath id="B"><path d="M365 316.62v-48.27l10.8-3.81 28.02 15.82 1.77 43.85-40.59-7.59z" class="B C K"/></clipPath><clipPath id="C"><path d="M386.86 312.32l-5.32-42.03 9.37-7.98 33.92 11.53 4.81 42.78-42.78-4.3z" class="B C H"/></clipPath><clipPath id="D"><path d="M345.38 299.41l54.39-7.09 48.6 10.7-2.02 54.61-44.05 6.96-60.73-5.44 3.81-59.74z" fill="#999" class="B C"/></clipPath><clipPath id="E"><path d="M371.76,242.94a180.81,180.81,0,0,1-10.51,39c-15.81,40.07-.35,64-12.54,70.42-8.11,4.26-88.17,1.56-94.52-9.77-8.53-15.22.71-134.3,10.32-139,21.53-10.64,74.06-8.63,108.85,5.21,0,0,.18,1.68.29,4.75" class="B C D H"/></clipPath><clipPath id="F"><path d="M272,234.79a59.79,59.79,0,0,1-2.55,10.81l-64.2,39.82s-10.06-4.5-3-30.33,62.24-51.58,62.24-51.58a24.3,24.3,0,0,1,2.65,3.83" class="B C D H"/></clipPath><path id="G" d="M373.36,208.72c12.39,6.59,60.49,39.21,70,49.4s-4.58,89.95-4.58,89.95H414.91l5.59-76.95-54.15-21.3Z"/><path id="H" d="M371.76,242.94a180.81,180.81,0,0,1-10.51,39c-15.81,40.07-.35,64-12.54,70.42-8.11,4.26-88.17,1.56-94.52-9.77-8.53-15.22.71-134.3,10.32-139,21.53-10.64,74.06-8.63,108.85,5.21,0,0,.18,1.68.29,4.75"/><path id="I" d="M272,234.79a59.79,59.79,0,0,1-2.55,10.81l-64.2,39.82s-10.06-4.5-3-30.33,62.24-51.58,62.24-51.58a24.3,24.3,0,0,1,2.65,3.83"/></defs><path d="M70.48 273.7h49.63v166.89" class="B C D E"/><path d="M189.12 348.42h-55.55v7.26h7.25v85.01h48.3v-92.27z" fill="#999"/><path d="M126.5 298.41s1.4-6.73 0-10.74a3.58 3.58 0 0 1 1.53 0c.76.18 1.27 4.77 1.27 4.77s3.57-3.68 4.33-3.37a3.62 3.62 0 0 1 1.65 2c.13.56 1 1.37 1.28 1.79s.63 2 1 2.84-1.78 5-7 6.24zm-28.66-7.3a5.33 5.33 0 0 0-2.46 1.05L92.63 294l-4.17 3.14-6-7 2.93-6.25s13.89 7.52 12.45 7.22z" class="B C G"/><path d="M95.38 292.16L92.63 294a10.5 10.5 0 0 1-5.18-7.74l7.93 5.9z" class="F"/><g class="B C"><path d="M80.78,291.21l1.58-3.54s8.49,2.5,10.35,8.09l-7.43,2.65Z" class="H"/><path d="M87 267.54c3.47-4.82 14.62-.44 16.31 5.17s.32 18.38-3.64 19.73c-10.16 3.46-21.06-13.3-12.67-24.9z" class="G"/></g><path d="M93 273.76s2.21-2 8-1.52l-1.72 1.93s4.79.84 5.91-1.77-5.72-13.71-18.76-7.13c-9 4.52-2.37 21-2.37 21l2.33-1.18 1.61-1.73s-3.21-3.11-.91-5.61S91.4 279 91.4 279s2.43-2.87 1.6-5.24z" class="F"/><path d="M94.25 277.15a7.47 7.47 0 0 1 3.12 0m4.22-.09a5 5 0 0 1 1.72-.38" class="B C D E"/><path d="M96.42 280.07c0 .63-.27 1.13-.61 1.13s-.62-.5-.62-1.13.28-1.13.62-1.13.61.51.61 1.13zm5.79 0c0 .63-.28 1.13-.62 1.13s-.62-.5-.62-1.13.28-1.13.62-1.13.62.51.62 1.13z" class="F"/><g class="C B"><path d="M100.49 280.07a34.9 34.9 0 0 0 1.1 4.09l-1.1 1m0 1.1a21.32 21.32 0 0 1-5.3 0 3 3 0 0 0 2.65 2.74c2.55.38 1.69-2.1 1.69-2.1" class="D G"/><path d="M70.48,300.58s7.12-9.76,11.22-9.46,16.14,7.55,16.14,7.55l12.76,19.78L124,302.06l2.77-4.82,5.25,4.82-1.91,1.88a53.54,53.54,0,0,1-3.34,12.24c-2.39,5.39-7.45,16.75-13.12,18.13s-17.8-11.37-17.8-11.37-6.2,17.95-6.2,24.7L70.48,349Z" class="H"/><path d="M90.18 308.54a47 47 0 0 1 1.23-4.66m4.4 19.06c-3.4-3.47-6.71-6.65-6.07-11.78" class="D E"/></g><path d="M89.61,347.64l.57,5.48s11.19,22.7,14.95,32.45c7.48,19.36,0,55,0,55h-9.3s-2.06-38.19-3.07-39.21S76.5,376.61,76.5,376.61l-6,18.5V349Z" class="F"/><g class="B C"><g class="G"><path d="M165.15,369.28s-5.08,12.38-4,18.77,12.23,52.54,12.23,52.54h5.4s-.13-29.76-1.79-37-4.35-14.72-4.12-16.66,7.4-17.66,7.4-17.66Z"/><g class="D"><path d="M147,242.56s-1.72,1.69-2.75,16.51l-5.57-1.88s3.38-11.83,3.2-16.82"/><path d="M145.93 242.64a3.4 3.4 0 0 0 2.47-.82 6.18 6.18 0 0 0 1.19-1.16 8.11 8.11 0 0 1 1-1.1l.75-.64a16.27 16.27 0 0 1 1.6-1.13s-.05-1.06-1-.82a2.77 2.77 0 0 0-.75.34c-.4.24-.79.55-1.11.78a1.38 1.38 0 0 1-.62.29 1.17 1.17 0 0 1-.27 0h0-.1a1.16 1.16 0 0 1-.49-.3.78.78 0 0 1-.15-.22v-.06a1.21 1.21 0 0 1 0-.18 3.41 3.41 0 0 1 0-1h0a9.37 9.37 0 0 1 .3-1.49h0c0-.18.1-.37.16-.54a11.44 11.44 0 0 1 .47-1.3l.39-1 .31-.94c.24-.88.25-1.6-.35-1.61s-.67.31-.95 1.06l-.39.94a13.84 13.84 0 0 1-1 1.84h0l-.15.23-.35-.09c0 .05 0-.08 0-.35h0a16.55 16.55 0 0 1 .32-2.11l.23-1c.08-.35.17-.6.26-.89.46-1.46-.68-1.31-1.06-.94a3.84 3.84 0 0 0-.57 1.49l-.27 1c0 .16-.09.32-.14.46l-.52 1.69-.06.17-.47.06v-.23h0a10.78 10.78 0 0 1-.08-2c0-.45.07-.8.09-1.08 0-.52 0-.78-.33-.95s-.74.28-1 .92a5.26 5.26 0 0 0-.26 1.57h0a2.3 2.3 0 0 0 0 .28 6.09 6.09 0 0 1-.09 1.45 2.5 2.5 0 0 0-.05.29l-.32.22a3.45 3.45 0 0 1-.11-.4h0a10.38 10.38 0 0 1-.26-1.28h0a9.36 9.36 0 0 0-.16-1c-.07-.26-.18-.41-.41-.46s-.54.34-.61.88a4 4 0 0 0 0 1 2.62 2.62 0 0 0 .14.72 6.3 6.3 0 0 1 .18 1.36v.56 1.53.08l-.22 1.28a5.81 5.81 0 0 0 .17 2.65 2.39 2.39 0 0 0 1.38 1.18"/></g></g><path d="M148.39,237.72a2.88,2.88,0,0,0-3.16,1" class="D E"/></g><path d="M167.12,244.71s2,8.88,0,14.3-2.92,19.69,9,23.54,12.72,2.09,12.72,2.09l-.27-39.07-15.13-9.11Z" class="F"/><g class="B C"><path d="M177,265.82l-11.87.46-20.81,6.48,1.81-25.63.83-2.42-5.83-1.54-.57,2.73s-8.88,31.58-6.66,36.58,29.59-1.8,29.59-1.8,1,13.75,4.86,18.61,7.36,15,7.36,15H188.8V263.44Z" class="H"/><path d="M187.44 264.57s-7.85 6.68-7.79 4.45a26.38 26.38 0 0 0-.83-7.43 23.78 23.78 0 0 0-1.28-3.81l-.41-.86 9.06-12.81z" class="G"/><path d="M187.85 259.65l-8.02 8.73-1.35-6.3-5.58 7.97 4.23-1.87 2.02 6.87 2.5-6.04 6.2 2.92 1.27-10.97-1.27-1.31z" class="H"/></g><path d="M175.73,314.3s-2.31,15.32-2.32,18.7c0,0-8.89,28.92-10.56,40.52,0,0,10.05,5.06,26,3.09V314.3Z" class="F"/><path d="M163.51 280.68s-1.89-9.06 0-10.71m15.64 8.77s-.06 12.89 1.15 17.35" class="B C D E"/><path d="M184.43 253.46s-1.07 6.16-5.61 8.13a23.78 23.78 0 0 0-1.28-3.81c3.02-2.17 6.89-4.32 6.89-4.32z" class="F"/><path d="M179.62 229.16c-13.64-.68-12.23 13.76-10.28 24.43 1.38 7.5 7.68 9.7 15.28 1.36 3.79-4.15 6.38-25.22-5-25.79z" class="B C G"/><path d="M180 234.29s.54 9.86 5.55 14.16 3.21 12.64 3.21 12.64l.32-32.73s-8.11-2.13-13.66-.74c0 0-9.17.69-10.14 7.36s2.55 13.47 2.55 13.47.68-14.03 12.17-14.16zm-.85 11.61c0 .68-.3 1.23-.67 1.23s-.68-.55-.68-1.23.3-1.24.68-1.24.67.55.67 1.24zm-7.09 0c0 .68-.3 1.23-.67 1.23s-.67-.55-.67-1.23.3-1.24.67-1.24.67.55.67 1.24z" class="F"/><g class="C E B"><path d="M177.1 242.05a3.25 3.25 0 0 1 2.76.58m-8.72.11a3.86 3.86 0 0 0-3.45.87m5.21 4.21l-1.67 2s.83 1.46 1.67 1.78m-.84 1.88a10.07 10.07 0 0 0 5-1s0 3.45-2.48 3.44c-1.44 0-1.54-1.67-1.54-1.67m-19.13-93.63v23.18" class="D"/><path d="M182.95 188.31h-58.34l2.11-4.51h54.13l2.1 4.51z"/><path d="M104.72 160.62v58.67" class="D"/><path d="M126.76 222.72H82.48l1.6-3.43h41.08l1.6 3.43z"/><path d="M234.21 440.59V153.1H70.48v287.49" class="D"/></g><path d="M226.55 160.62l-37.43 30v249.97h37.43" class="B C D G"/><path d="M192.76 342.72h-11.85v-51.84h11.85v3.74h-7.54v44.26h7.54v3.84z" class="C L M"/><g class="B C"><path d="M226.55 440.59V160.62H70.48v279.97" class="D E"/><path d="M135.05 124.74h34.96v19.93h-34.96z" class="H"/><g class="G"><path d="M198.04 215.22v44.59l15.83-6.3v-47.73l-15.83 9.44z"/><path d="M199.9 259.07v-42.2l12.03-6.68" class="D"/></g></g><path d="M144.34 133.61h2.37v1.57h-2.37v3.22h3v1.6h-4.7v-11h4.7v1.57h-3zm9.81-4.61l-1.81 5.33 1.93 5.65h-1.82l-1.39-4.35h0l-1.45 4.37H148l1.93-5.65-1.81-5.35h1.79l1.29 4h0l1.32-4zm.98 0h1.73v11h-1.73zm2.48 0h5.33v1.57h-1.8V140h-1.72v-9.41h-1.81z" class="F"/><use xlink:href="#G" class="H"/><g clip-path="url(#A)" class="I"><path d="M439.84 341.81l-19.4-.28-5.05-.13 5.1-70.28-52.13-20.51-.36-4.41s7.85-.06 13.55-5.07a6.83 6.83 0 0 1 0 6.25s44.74 20.19 53.93 13a12.78 12.78 0 0 0 4.22-5.75 49.67 49.67 0 0 1 3.67 3.45c7.9 8.48-.44 64.73-3.53 83.73z" class="J"/></g><g class="B C"><use xlink:href="#G" class="E"/><path d="M357.58 314.43l-6.42-30.69 19.58-5.3 10.8 27.21-23.96 8.78z" class="K"/></g><path d="M365 316.62v-48.27l10.8-3.81 28.02 15.82 1.77 43.85-40.59-7.59z" class="K"/><g clip-path="url(#B)" class="I"><path d="M365 268.35l10.8-3.81-.08 44.49H365v-40.68z" class="J"/></g><path d="M365 316.62v-48.27l10.8-3.81 28.02 15.82 1.77 43.85-40.59-7.59z" class="B C E"/><path d="M386.86 312.32l-5.32-42.03 9.37-7.98 33.92 11.53 4.81 42.78-42.78-4.3z" class="H"/><g clip-path="url(#C)" class="I"><path d="M381.54 270.29l3.76 30.48 9.67-4.34-4.06-34.12-9.37 7.98z" class="J"/></g><g class="B C E"><path d="M386.86 312.32l-5.32-42.03 9.37-7.98 33.92 11.53 4.81 42.78-42.78-4.3z"/><path d="M393.42 285.99l.27 2.55m-2.78-26.23l1.87 17.62m-17.06-1.49v17.01m0-27.1v2.77" class="D"/></g><path d="M423.82 282.19l-21.52-5.92 1.28 11 21.25 5.05-1.01-10.13z" class="B C G"/><path d="M419.35 309.36s-2-45.44 6.41-56.64 3.37 25.59 3.37 25.59 12.49-41.52 22.28-40.17-14.51 44.22-14.51 44.22 16.2-17.52 20.92-15.34-19.34 25.3-19.34 25.3 5.84-5.57 9.89-1.18-17.55 15.86-18.56 23.29z" class="F"/><path d="M441.08 293.81a.67.67 0 0 0-.92.23A35.16 35.16 0 0 1 428 305.71c.39-1.87 1.2-5.53 2.31-10 3.15-5.1 10.78-10.82 10.86-10.88a.67.67 0 0 0 .13-.93.66.66 0 0 0-.93-.14 62.9 62.9 0 0 0-9.17 8.5c2.49-9.5 6.1-21.24 10.14-27.8a.67.67 0 0 0-1.14-.7c-5.9 9.57-10.77 29.24-12.8 38.24-3.13-13.76-1.92-32.06-1.91-32.26a.66.66 0 1 0-1.32-.09c0 .21-1.4 21.11 2.59 35.26l-.38 1.84a.68.68 0 0 0 .24.65.7.7 0 0 0 .41.14.72.72 0 0 0 .29-.06c8.78-4.09 13.78-12.45 14-12.8a.66.66 0 0 0-.24-.87z" opacity=".2" class="G"/><path d="M345.38 299.41l54.39-7.09 48.6 10.7-2.02 54.61-44.05 6.96-60.73-5.44 3.81-59.74z" fill="#999"/><g clip-path="url(#D)" class="I"><path d="M448.37 303.02l-.74 19.94-37.64 1.25-7.68-10.34v50.72l-60.73-5.45 3.81-59.72 54.38-7.11 48.6 10.71z" class="J"/></g><g class="B C"><path d="M345.38 299.41l54.39-7.09 48.6 10.7-2.02 54.61-44.05 6.96-60.73-5.44 3.81-59.74z" class="E"/><path d="M399.77 292.32l16.87 27.3 41.8 1.89-10.07-18.49-48.6-10.7z" class="L"/><path d="M399.77 292.32l-7.77 27.3-52.99 1.89 6.37-22.1 54.39-7.09z" fill="#999"/><path d="M402.3 306.92v-3.97m0 24.05v-12.57m0 50.16v-33.03" class="D E"/></g><path d="M252.81 440.68h76.27a433.76 433.76 0 0 0 16.57-89.26l-89.92-12.35-2.63 12.77s-8.54 15.66-5.9 56.25a174.85 174.85 0 0 0 5.61 32.59z" class="F"/><g class="C"><path d="M257,350.38c16,12.13,69,17.51,86.23,7.17l.51-11.23-85.16-6Z" class="B K"/><path d="M303.87,351.66V363s9.69,1.32,13.89-.07l.7-11.29Z" class="L M"/></g><path d="M282.61 349.09s-.9 8.08-1.5 11.59h-3.77s1.06-9.13 1.94-11.59zm48.8 14.58s0-8.13.28-11.69l3.74-.4s-.09 9.2-.7 11.74z" class="F"/><g class="H"><path d="M301.13,190c7-4.13,31.73-1,35,2.11s-9.22,44.81-9.22,44.81l-20.56,2.71Z" class="B C"/><use xlink:href="#H"/></g><g clip-path="url(#E)" class="I"><path d="M313.08 246.2s-2.81 22.33-18.48 28.8-18.6 11-18.53 17.66c0 0-8 11.53-9.09 21.77-.73 7.14-5.74 17.1-14.79 20.93-2.49-15.77-1.36-50.08 1.52-79.75l3.29-2.31s13.05-14.84 14.69-25.36a14.09 14.09 0 0 0 .16-1.66c.36-10.55 11.41 14 5 28.42s36.23-8.5 36.23-8.5zm28.31-22.47l-10.47-10.61-8 8.23-10.26-4.21L301.09 228c-7.29-7.29-8.16-22.72-8-30.87a202.54 202.54 0 0 1 49.34 3h0c3.74 14.8-1.04 23.6-1.04 23.6z" class="J"/></g><g class="B C"><use xlink:href="#H" class="D E"/><path d="M337 200.1S325.06 219 322.94 219c-2.88 0-21.81-18.18-21.81-18.18a13.57 13.57 0 0 0 4-7.26 26.26 26.26 0 0 0 0-9.74c-.16-.91-.3-1.44-.3-1.44l-3.72-40.59 40.51 7.17c-11.05 29.85-10.7 47.63-4.62 51.14z" class="G"/></g><path d="M297.94 198.45S301 215 311.63 225.58l7.83 2.63s14-15.09 17.57-28.1l4.62 3.33s-11.53 23.26-20.26 26.91l-9.39 11.1s1.79 14.32-10.88 19-47.47 29.43-40.63 51.55l-12.66 5.76-5.83-13.22s4.77-17.9 18.46-32.09 43.18-8.8 47.94-31V228s-18.09-21-10.46-29.55z" class="F"/><g class="H"><path d="M335,207.92l10.56,10.28c1.4-19.24-9.41-26.09-9.41-26.09,1.32,6.85-5.19,11.06-5.19,11.06a30.9,30.9,0,0,1-9.3,13.83,86.57,86.57,0,0,1-10-11.72c-6-2.63-10.5-15.28-10.5-15.28a28.13,28.13,0,0,0-6.53,7.78s.93,17.52,8,24.9a85.35,85.35,0,0,1,9-10.54l11.31,9.22Z" class="B C"/><use xlink:href="#I"/></g><g clip-path="url(#F)" class="I"><path d="M272,234.78a58.5,58.5,0,0,1-2.56,10.82l-24.15,15c-11.54,0-23.81-.86-26.8-3.94-6-6.17,2.44-10.22,2.44-10.22,5.6-4.44,24.62-6.1,33.06-8.31s16.86-8,16.86-8l.42.52Z" class="J"/></g><g class="B C"><use xlink:href="#I" class="D E"/><path d="M286,238.75s10.09-9.22,11.9-11.33,15.64-5.53,17.55-4.74.86,3.42.86,3.42,3.84,0,3.11,2.11-7.5,5-7.5,5,5.3,3.95,6.16,5.53-2.63,4.22-2.63,4.22,1,2.63,0,3.43-6.15,4.74-6.15,4.74-1.9-.79.18-4.22l-2.94-.14s-8.68,5.41-14.74,4.36Z" class="G"/><g class="D"><path d="M215.63,253c19-8.52,57.33-17.07,61.45-11.92l9-4.2s7.64,8.68,5.8,17.12l-7.24,1.58s-7.78,16.34-47.84,32.15c-22.53,8.9-31.31,2-33.73-7.52" class="H"/><path d="M341.7 274.74a61.65 61.65 0 0 0 13.83-.32l3.27-14.5m-25.41 9.81l-.52 3.28m26.98-17.76l1.3-5.78s-16.87-.25-24.25-2.11l-2.9 18.58m-24.69 67.37q0 2.88.21 5.76M311 307.7a157.87 157.87 0 0 0-1.73 22m9.65-69.29c-1.74 14.71-5.12 29.15-7.39 43.78m9.86-66.08l-1.95 17.83" class="E"/></g></g><g stroke="#fff" class="B D E"><path d="M282.54 390.92a24.15 24.15 0 0 0-5.2-1.95m38.66 48.7c-1-7.67-2-15.67-5-23.67-5-10-17-13-24.45-20.87m26.13-15.5c-.62 8.37 1.49 19.1-3.4 26.45m4.43-37.25l-.63 6.1m3.42 38.35a48.78 48.78 0 0 0 4.89 3"/><path d="M289.12 381.59a115.29 115.29 0 0 0 23.2 26.53m-50.61-50.49s.36 13.77-10.89 19m90.75-13.04s-1.05 7.38.08 10.62M254 430.78q2.43 3.45 5.09 6.73"/></g><path d="M336 253s12.31 2.75 20.75 1.17M228 248.34s-4.64-3.56-14.18-1m63.26-6.22a18 18 0 0 1 5 10.15m97.78-6.8a13.69 13.69 0 0 1-9.59 6.89m-45.44 67.92a22.81 22.81 0 0 1-4.71 2.23m27.45-27.13c-5.14 8.21-11.41 16.28-19 22.31m-50.32-17.05c6.07 18.17 16.53 39.5 35.73 46.64m-38.73-56.51q.78 2.82 1.64 5.63m-5.01-20.4c.56 3.33 1.3 6.63 2.1 9.91" class="C B D E"/><path d="M322.87 183.28s-7.37 12.79-17.77 10.26a26.26 26.26 0 0 0 0-9.74l1.05-.52z" class="F"/><g class="B C D"><path d="M337.23,165.5s4.56-5.35,4.45-15.35c-.19-16.14-7.18-31.26-31.13-27.22-10.05,1.7-16.9,8.62-19.06,19.36-1,5-.14,10.91.44,16.37.63,6,.64,11.11,2.11,16.52,2.55,9.43,7.71,15.65,14.3,14.73,7.09-1,18.74-8.11,19-12.16" class="G"/><path d="M308.43 149.77s4.6-1.71 7.06 3.69m-22.23-6.24s4.61-1.71 7.07 3.69" class="E"/></g><path d="M309.34 157.45c0 1.14.51 2.06 1.14 2.06s1.15-.92 1.15-2.06-.51-2.07-1.15-2.07-1.14.92-1.14 2.07zm-13.69-1.32c0 1.14.52 2.07 1.15 2.07s1.14-.93 1.14-2.07-.51-2.06-1.14-2.06-1.15.93-1.15 2.06z" class="F"/><path d="M309.52 172.81s-5 2.78-9.71 1.56m8.8-.63s-.54 3.63-3.94 4a3.15 3.15 0 0 1-3.59-3" class="B C D E"/><path d="M301.13,155.36c0,1.75-7,10.54-6.34,11.59s6.34,1.41,6.34,1.41" class="B C D G"/><path d="M326 161.86h-2.9c1.06-5.73-1-14.12-4.39-17.72l5-7.38s-12.12-6.41-29-3.2c0 0-5.32-4.7-3.72-14.45a16.57 16.57 0 0 0 8.79 3.16s-2.36-2.9-1.87-6.06a30.22 30.22 0 0 0 15.77 2.63c9.49-.79 20.36.53 28 11.6 6.66 9.68 4.8 32.15-6.64 40.1l-1.9-2.18s3.73-14.05-1.86-12.23c-4.03 1.32-5.28 5.73-5.28 5.73z" class="F"/><path d="M326.89,159.51s2.11-4.56,6.32-3.38.27,19.64-6.32,15.42" class="B C D G"/></svg>