<svg xmlns="http://www.w3.org/2000/svg" viewBox="0 0 500 500" xmlns:v="https://vecta.io/nano"><style><![CDATA[.B{fill:#263238}.C{fill:#ffbe9d}.D{fill:#eb996e}.E{fill:#c03f3f}.F{fill:#455a64}]]></style><path d="M211.6 150.5l15.53-5.75 38.46-2.82 10.12 3.09-13.65 58.8-33.55 7.25-15.56-20.65-1.35-39.92z" class="C"/><path d="M298.74,152.9,273.67,144s-23.51,33.63-62.07,6.45c0,0-16.91,6.08-19.43,7.48s11.76,44.13,11.76,44.13l-1.68,53.13c22,11.35,57.2,7.13,87.84,2l-.88-59Z" class="E"/><path d="M289,104.7a9.31,9.31,0,0,0-13.8-12.3l-5,8.87A24.16,24.16,0,0,0,264.87,113a17.34,17.34,0,0,0,2.91,12.43A15,15,0,1,0,289,104.7Z" class="B"/><path d="M276 105.39c-.15-3-.47-6 .38-8.91a12.26 12.26 0 0 0 .82-3.27 4 4 0 0 0-7.06-2.54L270 91c-1.73 1.4-2.56 3.61-3.24 5.73a89.46 89.46 0 0 0-2.56 10.07 16 16 0 0 0-.33 5.8 6.18 6.18 0 0 0 3.19 4.61c2.72 1.26 6.08-.48 7.57-3.07s1.55-5.77 1.37-8.75z" class="E"/><path d="M272.3 95.11c-.57-3.4-2.05-6.6-2.57-10-.68-4.47.33-9 .58-13.52s-.46-9.49-3.77-12.57c-3.53-3.29-8.84-3.44-13.59-4.3-5.4-1-10.52-3.11-15.83-4.52s-11.06-2.08-16.2-.15c-4.65 1.74-8.29 5.39-11.58 9.1C204 65.16 199 72.28 199 80.32c0 4.17 1.47 8.21 2 12.35.51 4 .19 8 1.12 12s3.57 7.8 7.51 8.52l43.22 4.32a19.19 19.19 0 0 0 19.45-22.4z" class="B"/><path d="M260.54,73.91l-.11-5.29-32-4.75c-9.82-.64-20,9.6-20.22,19.44-.24,10.93-.11,24.29,1.51,32.38,3.26,16.26,15.89,17.83,15.89,17.83v9.24a18.58,18.58,0,0,0,18.57,18.56h0a18.57,18.57,0,0,0,18.56-19.17Z" class="C"/><path d="M215 94.21a2.11 2.11 0 0 0 2.11 2 2 2 0 0 0 2.09-2 2.11 2.11 0 0 0-2.11-2 2 2 0 0 0-2.09 2zm-3-4.09c.27.26 1.82-1 4.07-1.06s4 1 4.2.69c.11-.13-.17-.61-.92-1.11a5.81 5.81 0 0 0-3.37-.89 5.48 5.48 0 0 0-3.22 1.19c-.7.56-.91 1.06-.76 1.18zm24.37 3.37a2.11 2.11 0 0 0 2.11 2 2 2 0 0 0 2.09-2 2.11 2.11 0 0 0-2.11-2 2 2 0 0 0-2.09 2zm-2.17-3.85c.27.26 1.81-1 4.07-1.06s4 1 4.19.69c.12-.13-.16-.61-.91-1.11a5.81 5.81 0 0 0-3.37-.89 5.49 5.49 0 0 0-3.18 1.19c-.72.54-.93 1.06-.8 1.18zm-7.52 17.08a15 15 0 0 0-3.69-.51c-.58 0-1.13-.13-1.25-.52a3 3 0 0 1 .32-1.72l1.53-4.46c2.11-6.35 3.62-11.51 3.41-11.65s-2.18 5-4.29 11.35l-1.46 4.48A3.36 3.36 0 0 0 221 106a1.44 1.44 0 0 0 1 .8 4 4 0 0 0 1 .1 14.47 14.47 0 0 0 3.68-.18z" class="B"/><path d="M225.65 133.56a43.32 43.32 0 0 0 22.23-6.79s-5.23 11.73-22.23 10.91zm2.21-21.43a4 4 0 0 1 3.58-1.66 3.68 3.68 0 0 1 2.63 1.27 2.36 2.36 0 0 1 .28 2.68 2.74 2.74 0 0 1-2.93.87 8.5 8.5 0 0 1-2.95-1.6 2.63 2.63 0 0 1-.68-.65.78.78 0 0 1 0-.84" class="D"/><g class="B"><path d="M244.62 82.93c-.13-.64-2.41-.68-5-1.38s-4.6-1.73-5-1.23c-.19.23.09.86.86 1.57a9 9 0 0 0 7.63 2c1.01-.25 1.56-.66 1.51-.96zm-26.13-1.63c-.71-.21-2.33 1.22-4.55 2.4s-4.3 1.82-4.49 2.52c-.07.33.46.63 1.51.64a9 9 0 0 0 4.11-1.17 8.72 8.72 0 0 0 3.18-2.79c.55-.9.57-1.48.24-1.6zm36.08-23l-24.68 1.94-20.45 7.05c2.63 5.73 3.13 10.44 9.41 11a18.49 18.49 0 0 0 16.46-7.41c1.06 4.64 6.29 7 11 7.66a18.74 18.74 0 0 0 9.94-.9c3.09-1.32 5.71-4.1 6.13-7.44s-4.49-11.35-7.81-11.9z"/><path d="M274.12 74.7a12 12 0 0 0-6.34-5.54l-.63-4.79-18.29 5.77c-4.33 6.86-2.35 16.86 4.33 21.67l.08 3.47a21.44 21.44 0 0 0 2.92 10.34h0l5.8 12.63c4.26.1 5.23-4.51 6.92-8.28s1.71-8 1.56-12.14q-.11-3-.31-6c1.3-2.2 3.15-4.25 4.24-6.59a12 12 0 0 0-.28-10.54z"/></g><path d="M255.71 96.34c.25-.13 10-4 10.59 6.26s-9.79 8.74-9.82 8.45-.77-14.71-.77-14.71z" class="C"/><path d="M259.37 107s.19.12.5.24a1.77 1.77 0 0 0 1.33-.06c1.06-.46 1.87-2.23 1.8-4.08a5.84 5.84 0 0 0-.65-2.52 2.06 2.06 0 0 0-1.42-1.29.91.91 0 0 0-1 .55c-.12.3-.05.5-.1.52s-.23-.16-.17-.59a1.12 1.12 0 0 1 .36-.66 1.33 1.33 0 0 1 1-.32 2.51 2.51 0 0 1 2 1.47 6.11 6.11 0 0 1 .79 2.82c.06 2.07-.88 4.06-2.34 4.57a1.87 1.87 0 0 1-1.64-.17c-.43-.25-.49-.48-.46-.48z" class="D"/><path d="M273.05 73.48c.16 0 .26.51.1 1.34A7.23 7.23 0 0 1 271.5 78a8.5 8.5 0 0 1-4.68 2.74c-2.12.45-4.24 0-6 .19a14.73 14.73 0 0 0-2.74.67l-1.5.39-1.48.25a11.29 11.29 0 0 1-5.25-.43 6.89 6.89 0 0 1-3-2c-.54-.65-.68-1.11-.56-1.22.3-.3 1.56 1 4 1.43a11.89 11.89 0 0 0 4.39-.17l1.28-.29c.43-.11.85-.26 1.31-.42a15.19 15.19 0 0 1 3.23-.82c2.44-.21 4.36.29 5.88 0a7.74 7.74 0 0 0 3.8-1.7c1.97-1.55 2.48-3.24 2.87-3.14z" fill="#fff"/><path d="M235.63 110.89c.06.29-1.94.9-4.16 2.08s-3.86 2.48-4.07 2.26 1.19-1.92 3.58-3.18 4.61-1.43 4.65-1.16z" class="B"/><path d="M237.42 112.45c-.14-.07.11-.78-.1-1.63s-.7-1.4-.61-1.51.89.34 1.12 1.39-.3 1.84-.41 1.75zm4.75-16.53c.12.06-.37 1-1.53 1.56s-2.21.32-2.17.18.95-.16 1.95-.65 1.63-1.18 1.75-1.09zm.95.79c.12.08-.26.75-1.07 1.19s-1.57.4-1.58.26.63-.33 1.33-.72 1.2-.82 1.32-.73zm-28.01 2.17c0 .14-.56.23-1.14-.07s-.83-.8-.72-.89.48.18 1 .42.87.39.86.54zm-.11 1.21c0 .14-.64.15-1.32-.16s-1.09-.79-1-.89.6.14 1.21.42 1.16.54 1.11.63zm14.55-20a7.6 7.6 0 0 1-8.27.82 19.07 19.07 0 0 0 4.21.3 19 19 0 0 0 4.06-1.12zm.97 1.05a3.22 3.22 0 0 1-2.14 1.62 3.16 3.16 0 0 1-2.68-.09 23.37 23.37 0 0 0 2.52-.41c1.34-.41 2.19-1.26 2.3-1.12z" class="D"/><path d="M212.61 74.83s-.1-.09-.25-.29a5.38 5.38 0 0 1-.57-.94 8.65 8.65 0 0 1-.81-3.93c0-3.43 2-8.11 6-11.52a18.05 18.05 0 0 1 6.36-3.57 18.25 18.25 0 0 1 5.89-.84 17 17 0 0 1 4 .53c.45.12.8.23 1 .32s.35.14.34.16a26.32 26.32 0 0 0-5.36-.65 18.83 18.83 0 0 0-5.75.94 18.12 18.12 0 0 0-6.16 3.5c-3.86 3.32-5.86 7.83-5.93 11.14a9 9 0 0 0 .63 3.84c.34.86.65 1.28.61 1.31zm36.89 3.68a2.79 2.79 0 0 1-.87-.2 12.87 12.87 0 0 1-2.22-1 17.34 17.34 0 0 1-5.89-5.42 11 11 0 0 1-1.44-4.22 20.6 20.6 0 0 1-.21-3.61 16.82 16.82 0 0 1 .24-2.42 2.77 2.77 0 0 1 .22-.86c.09 0-.12 1.26-.09 3.29a22.69 22.69 0 0 0 .31 3.52 11.18 11.18 0 0 0 1.41 4A18.77 18.77 0 0 0 246.6 77c1.72 1.06 2.93 1.43 2.9 1.51zm-29.08-3.82a3.52 3.52 0 0 1-.32-1 12.23 12.23 0 0 1-.27-2.8 13.36 13.36 0 0 1 11.22-13.13 11.8 11.8 0 0 1 2.81-.16 3.61 3.61 0 0 1 1 .15 28.11 28.11 0 0 0-3.77.37 13.55 13.55 0 0 0-10.92 12.78 25.22 25.22 0 0 0 .25 3.79zm33.13-19.32a19.74 19.74 0 0 0-6.44.15 19.54 19.54 0 0 0-5.87 2.67 4.8 4.8 0 0 1 1.44-1.3 12.67 12.67 0 0 1 9-2.06 5.08 5.08 0 0 1 1.87.54z" class="F"/><path d="M289.65 104.91c-.52.54-3.14-1.22-6.72-2.26s-6.72-1.11-6.85-1.85c-.05-.34.73-.81 2.13-1.06a12.6 12.6 0 0 1 10.26 3.11c1.02.98 1.41 1.81 1.18 2.06z" fill="#fff"/><path d="M288.08 107.58l1.23-.68a10.63 10.63 0 0 0 2.85-2.44 9.62 9.62 0 0 0 2.16-5 9.4 9.4 0 0 0-1.7-6.4 9.23 9.23 0 0 0-5.62-3.59 13.26 13.26 0 0 0-5.55 0 36.2 36.2 0 0 0-4.95 1.58 5.82 5.82 0 0 1 1.24-.68 17.74 17.74 0 0 1 3.64-1.26 13.09 13.09 0 0 1 5.72-.1 9.57 9.57 0 0 1 5.91 3.71 9.56 9.56 0 0 1-.61 12 10.08 10.08 0 0 1-3 2.38 7.28 7.28 0 0 1-1 .41 1.48 1.48 0 0 1-.32.07zM205.4 257.6s-21.29 44.86-21.08 65.51c.14 13 18.34 151.36 18.34 151.36h38.78l3.15-128.9 2.66-3.56 1.66 4.06-4.48 128.4h43.35l15.61-114.32c1.83-15.04 4-22.24 3.06-44.12s-16.28-58.43-16.28-58.43-58.79 9.57-84.77 0z" class="B"/><g class="F"><path d="M207.36 257.9l-3.6 12.38 10.38 2.23 2.92-12.46-9.7-2.15zm13.64 2.67l-2.1 11.94a200.37 200.37 0 0 0 24.46 1c12.17-.33 24.06-1.35 29.39-3.21l-1.55-10.65s-40.2 3.69-50.2.92zm55.39-1.52l2.57 10.5s8.3-.91 11.72-2.91l-2.86-9.43zM221 472.74l-3.37-97.86-1.65-69.24-.05-12 .08-9 .17-5.7.05-1.49v-.5.51 1.48l-.07 5.7v9l.12 12 1.8 69.22 2.22 69.2.55 21 .08 5.7v1.49c0 .36.07.49.07.49zm25.22-198.43a2.7 2.7 0 0 1 .05.59v1.68l.07 6.16.38 20.34.78 20.33.28 6.16q0 1 .06 1.68a2.14 2.14 0 0 1 0 .59 4.68 4.68 0 0 1-.09-.58l-.15-1.68-.45-6.15c-.33-5.2-.7-12.39-.93-20.33S246 288 246 282.74l.09-6.17.06-1.67a2.27 2.27 0 0 1 .07-.59z"/><path d="M247.86 331.84a6.41 6.41 0 0 1-.65-.11l-1.85-.36a61.56 61.56 0 0 1-6.76-1.71 9.22 9.22 0 0 1-2.14-1 1.31 1.31 0 0 1-.46-.54l-.19-.61a10.7 10.7 0 0 1-.23-1.28c-.2-1.75-.09-3.59-.11-5.53l.08-12.62.24-22.93.14-6.95q0-1.17.06-1.89a2.89 2.89 0 0 1 .06-.66 3.44 3.44 0 0 1 0 .66q0 .72 0 1.89v6.95l-.09 22.93-.12 12.62.06 5.48a9.87 9.87 0 0 0 .21 1.23l.16.57a1.05 1.05 0 0 0 .32.36 8.73 8.73 0 0 0 2 .95c2.75.95 5.08 1.45 6.67 1.86l1.83.46a2.22 2.22 0 0 1 .77.23zm21.63 140.9v-.51c0-.34.05-.87.09-1.52l.36-5.82 1.54-21.39 4.63-70.58c1.47-27.58 2-52.61 1.41-70.7l-.28-6.44c-.09-2.03-.15-4-.33-5.75-.32-3.58-.49-6.67-.81-9.18l-.8-5.77-.19-1.51-.05-.51s0 .17.1.51.14.85.25 1.49l.89 5.76c.38 2.48.55 5.61.9 9.19.2 1.79.28 3.71.38 5.75l.31 6.45c.72 18.11.13 43.14-1.26 70.74s-3.37 52.53-4.79 70.58l-1.69 21.38-.47 5.81-.13 1.51c-.03.36-.06.51-.06.51z"/></g><path d="M244.11 273.93v2.32l13.44-.52a1.64 1.64 0 0 0 1.58-1.65v-12.41a1.65 1.65 0 0 0-1.65-1.65h-14.27v1.86l13.53.7v4.51h-.91a.71.71 0 0 0-.73.71h0a.71.71 0 0 0 .69.7h1v4.5z" fill="#e0e0e0"/><path d="M232.53 260.86h3.8v13h-3.8zm23.02 8.42c-.05.05-.26 0-.48-.35a2.18 2.18 0 0 1-.38-1.36 2 2 0 0 1 .56-1.29c.25-.27.47-.34.51-.29s-.49.7-.55 1.62.45 1.58.34 1.67zm-10.8-2.64s.07-.08.22-.07a.69.69 0 0 1 .49.35 1 1 0 0 1 .06.92 1.06 1.06 0 0 1-1 .57 1 1 0 0 1-.85-.79.91.91 0 0 1 .32-.86c.43-.33.78-.17.75-.12s-.28.1-.49.38a.52.52 0 0 0-.11.5.5.5 0 0 0 .41.37.65.65 0 0 0 .54-.28.67.67 0 0 0 0-.52c-.09-.34-.33-.38-.34-.45zm37.49 2.64a9.09 9.09 0 0 1 1-1.91l1.18-2 .71-1.18a9.1 9.1 0 0 0 .7-1.21 1.34 1.34 0 0 0-.2-1.17 4.8 4.8 0 0 0-1-.8l-1.89-1.35a9.19 9.19 0 0 1-1.66-1.36 8.5 8.5 0 0 1 1.87 1.05l1.95 1.27.56.37a2.13 2.13 0 0 1 .58.52 1.87 1.87 0 0 1 .28 1.63 3 3 0 0 1-.38.72l-.39.61-.74 1.16-1.27 1.93a8.71 8.71 0 0 1-1.3 1.72z" class="B"/><path d="M305 299.55a1.27 1.27 0 0 1-.35.19 5.42 5.42 0 0 1-1.11.33 8.37 8.37 0 0 1-4.19-.52 26 26 0 0 1-5.5-3 40.37 40.37 0 0 1-15.61-20 9.1 9.1 0 0 1-.43-1.48 7.53 7.53 0 0 1 .62 1.41l1.76 3.8a44.6 44.6 0 0 0 8.12 11.06 43.68 43.68 0 0 0 5.81 4.84 27.34 27.34 0 0 0 5.36 3 8.62 8.62 0 0 0 4 .67c1.01-.11 1.52-.35 1.52-.3zm-97.58-20.26a13.57 13.57 0 0 1-1.65 2.6 47.71 47.71 0 0 1-10.46 10.45 14.1 14.1 0 0 1-2.59 1.65 23.76 23.76 0 0 1 2.37-1.94 64.9 64.9 0 0 0 10.39-10.39 25.36 25.36 0 0 1 1.94-2.37z" class="F"/><path d="M242.31 178.87l-.7-33.39c-.34-4.29-4.05-3.49-4.05-3.49s-.24 11.84-1.23 18.49-4.57 14-4.69 15.49-.58 14.15-1 18.21a60.37 60.37 0 0 1-2.55 10.08l9.51 7.31 2.89-4.06s3.25-2.32 4-5.22-2.18-23.42-2.18-23.42z" class="C"/><g class="D"><path d="M242.31 178.87s.05.18.11.54l.24 1.57.84 6 1.05 9.48.2 2.87c0 .5.05 1 0 1.51a6.62 6.62 0 0 1-.16 1.58 8.35 8.35 0 0 1-1.58 2.87 14.58 14.58 0 0 1-2.46 2.37v-.05l-2.88 4.07-.14.18-.18-.14-9.52-7.29-.13-.1v-.17a46.9 46.9 0 0 0 2.78-13l.74-14.39a6.11 6.11 0 0 1 .13-1.25l.37-1.18.83-2.25 1.59-4.45a42.32 42.32 0 0 0 2-8.86c.66-5.91.87-11.57 1-16.77v-.19h.18a4 4 0 0 1 2.29.26 3.16 3.16 0 0 1 1.58 1.6 5.28 5.28 0 0 1 .45 2.12v2.05c0 2.69.1 5.25.14 7.66l.21 12.49.1 8.06v2.13.55.18-.18-.54c0-.51 0-1.22-.08-2.13l-.23-8.05-.32-12.49c0-2.41-.11-5-.18-7.66-.08-1.34.12-2.79-.47-4a2.64 2.64 0 0 0-1.37-1.38 3.52 3.52 0 0 0-2-.22l.18-.22c-.13 5.22-.32 10.87-1 16.82a43.18 43.18 0 0 1-2.05 9c-.49 1.49-1 3-1.59 4.46l-.83 2.25c-.13.37-.26.75-.35 1.12a5.2 5.2 0 0 0-.12 1.15l-.75 14.4a47.1 47.1 0 0 1-2.83 13.17l-.08-.27 9.49 7.32-.31.05 2.9-4.05h0 0a10.76 10.76 0 0 0 3.93-5 6.67 6.67 0 0 0 .15-1.49v-1.49c0-1-.1-1.93-.17-2.85-.29-3.68-.66-6.87-.95-9.48l-.73-6-.19-1.58c-.05-.38.17-.71.17-.71z"/><path d="M241.65 148.45a12.91 12.91 0 0 0-.84-1.1 4.72 4.72 0 0 0-1.28-.9 1.46 1.46 0 0 0-1.74.23l.05-.16.43 3.48c.1 1.28.13 2.65.09 4.08a55.55 55.55 0 0 1-1.11 9l-.58 2.67a3.4 3.4 0 0 1-.29 1 32.56 32.56 0 0 1 .5-3.7 71.62 71.62 0 0 0 1-8.91l-.07-4-.35-3.46v-.09l.05-.07a1.54 1.54 0 0 1 1.14-.52 2.25 2.25 0 0 1 1.06.26 4.26 4.26 0 0 1 1.31 1 3.94 3.94 0 0 1 .57.9c.05.16.08.29.06.29zm.27 12.96a12.5 12.5 0 0 1-.24-1.56 4 4 0 0 0-.59-1.64 2.94 2.94 0 0 0-1.93-1l.27-.2-.42 6.61-1.24 8.7-.57 2.6a3.39 3.39 0 0 1-.29.94 34.75 34.75 0 0 1 .49-3.61l1.09-8.68.5-6.58v-.26l.26.05a3.28 3.28 0 0 1 2.13 1.24 4.21 4.21 0 0 1 .55 1.8 5 5 0 0 1-.01 1.59zM237 179.46c-.09.11-.65-.31-.72-1.1s.39-1.32.5-1.22-.05.57 0 1.17.3 1.05.22 1.15zm-1.53-8.24c-.13.05-.51-.7-.44-1.72s.55-1.71.67-1.64-.1.78-.15 1.68.06 1.63-.08 1.68z"/></g><path d="M255.83 197.82c-.75-4-2.1-16.59-2.32-18.09s-4.3-8.56-5.76-15.12-2.53-18.36-2.53-18.36-3.75-.54-3.8 3.77l1.65 33.35s-1.48 20.68-.51 23.52 4.38 4.92 4.38 4.92l3.17 3.84 9-8a61.15 61.15 0 0 1-3.28-9.83z" class="C"/><g class="D"><path d="M255.83 197.82v.16c0 .11.07.3.12.5l.54 2a75.69 75.69 0 0 0 2.66 7.22v.08l-.07.07-8.93 8-.15.13-.12-.15-3.19-3.83h.05a14.69 14.69 0 0 1-2.58-2.12 8.17 8.17 0 0 1-1.91-3 17.17 17.17 0 0 1-.32-3.64v-3.75c.11-5.08.41-10.49.79-16.16h0l-.87-17.43-.56-11.37c0-.93-.09-1.84-.14-2.75a14.86 14.86 0 0 1 0-2.75 3.57 3.57 0 0 1 1.35-2.43 3.88 3.88 0 0 1 2.66-.66h.19v.21c.36 3.82.77 7.51 1.26 11a65.55 65.55 0 0 0 1.93 9.92 71.76 71.76 0 0 0 3.3 8.36c.57 1.29 1.16 2.49 1.6 3.73a11.36 11.36 0 0 1 .29 1.91l.21 1.79 1.26 10.94.38 2.91.11.75a1 1 0 0 1 0 .26 1.23 1.23 0 0 1-.07-.25c0-.19-.08-.44-.14-.75a98.51 98.51 0 0 1-.47-2.9c-.37-2.54-.84-6.25-1.4-10.92l-.22-1.79a13.58 13.58 0 0 0-.29-1.84c-.43-1.19-1.05-2.41-1.62-3.68a71.29 71.29 0 0 1-3.37-8.4 66.87 66.87 0 0 1-2-10q-.73-5.3-1.28-11l.21.22a3.42 3.42 0 0 0-2.29.57 3.1 3.1 0 0 0-1.15 2.11 14 14 0 0 0 0 2.66c0 .9.09 1.82.13 2.74l.57 11.37.86 17.42h0 0c-.39 5.65-.7 11.07-.83 16.13 0 1.27-.05 2.51 0 3.73a17.31 17.31 0 0 0 .29 3.52 7.72 7.72 0 0 0 1.79 2.8 14.56 14.56 0 0 0 2.49 2.07h0 0l3.17 3.85h-.27l9-7.91v.15a67 67 0 0 1-2.55-7.28c-.24-.86-.39-1.52-.47-2l-.09-.51c.14.05.13-.01.14-.01z"/><path d="M241.57 153.06a3.19 3.19 0 0 1 .41-.91 6.18 6.18 0 0 1 .64-1 2.41 2.41 0 0 1 1.33-.93 1.59 1.59 0 0 1 1.71 1 6.56 6.56 0 0 1 .17 2.2l.24 4.87a81.36 81.36 0 0 0 1.38 8.75 31.21 31.21 0 0 1 .71 3.62 4.27 4.27 0 0 1-.35-.93l-.72-2.6a60.35 60.35 0 0 1-1.54-8.79 47.37 47.37 0 0 1-.2-4.92 6.35 6.35 0 0 0-.09-2 1.21 1.21 0 0 0-1.24-.8 2.17 2.17 0 0 0-1.17.76 7.45 7.45 0 0 0-.7.9 4.37 4.37 0 0 1-.58.78zm.66 13.36a1.34 1.34 0 0 1-.08-.45 8.59 8.59 0 0 1 0-1.28 5.38 5.38 0 0 1 .47-1.95 3.19 3.19 0 0 1 2-1.73l.25-.08v.27l.91 6.31 1.72 8.74a34.59 34.59 0 0 1 .76 3.62 3.45 3.45 0 0 1-.36-.93l-.76-2.6c-.59-2.21-1.3-5.29-1.87-8.74l-.85-6.35.29.19a2.82 2.82 0 0 0-1.79 1.46 5.59 5.59 0 0 0-.54 1.82l-.15 1.7zm6.25 17.06c-.12-.09.11-.56.11-1.16s-.18-1.08-.06-1.17.6.38.58 1.18-.54 1.26-.63 1.15zm.91-8.32c-.15 0-.07-.79-.2-1.68s-.39-1.59-.26-1.66.64.58.78 1.59-.19 1.79-.32 1.75z"/></g><g opacity=".3"><path d="M253.49 215.34c-1.85-2.14-4.19-4.29-7-4.27-2.51 0-4.65 1.75-6.43 3.51a72.48 72.48 0 0 0-13.87 20.12c-3.59 7.35-7.94 16.19-10.67 23.9 6-1.26 11.32-5 15.37-9.63s7-10.14 9.57-15.71c.9-1.92 2.19-4.15 4.31-4.2 1.56 0 2.84 1.21 3.82 2.43 2.81 3.55 4.7 7.73 6.68 11.8s4.14 8.15 7.36 11.34 7.69 5.4 12.19 4.9c-5.14-15.65-10.53-31.75-21.33-44.19z"/></g><path d="M192.17,158s-13.11,8.26-13.5,24.53.58,59.64,3.49,65.45,5,26.72,23.82,18c10.55-4.89,22-20.76,29.5-34.08a144,144,0,0,0,9.12-19.36l-17.71-11.42-22.27,26.33-.69-25.32Z" class="E"/><g class="B"><path d="M204.62 227.42c0 .09-.8.14-2 .48a13 13 0 0 0-4.38 2.25 23.46 23.46 0 0 0-3.54 3.51 12.57 12.57 0 0 1-1.36 1.59 6.57 6.57 0 0 1 1.07-1.81 17.78 17.78 0 0 1 3.51-3.7 11.24 11.24 0 0 1 4.61-2.19 5.15 5.15 0 0 1 2.09-.13z"/><path d="M204.51 227.22a38.75 38.75 0 0 0-5.22.21 41.17 41.17 0 0 0-5 1.41 10.28 10.28 0 0 1 4.94-1.92 10.14 10.14 0 0 1 5.28.3zm40.09-14.71a2.35 2.35 0 0 1-.15.54l-.54 1.51-2.2 5.46a128.21 128.21 0 0 1-9.12 17.14 144.78 144.78 0 0 1-11.51 15.64l-3.88 4.42-1.1 1.17a2.82 2.82 0 0 1-.41.38 2.36 2.36 0 0 1 .33-.45l1-1.23 3.75-4.52a166.61 166.61 0 0 0 11.35-15.69 143.38 143.38 0 0 0 9.22-17l2.35-5.39.63-1.47a2.23 2.23 0 0 1 .28-.51z"/><path d="M203.93 202.1a2.7 2.7 0 0 1 0 .48c0 .36.05.82.08 1.39l.21 5.22.59 18.22-.42-.15 9.74-11.55 12.53-14.77.13-.16.17.11 12.78 8.36 3.57 2.38.93.64a1.62 1.62 0 0 1 .31.24 1.48 1.48 0 0 1-.34-.18l-1-.58-3.64-2.28-12.87-8.19.29-.05-12.48 14.82-9.77 11.53-.42.48v-.63l-.4-18.23-.08-5.23v-1.39a3.06 3.06 0 0 1 .09-.48z"/></g><path d="M298.74,152.9s11.08,5.61,11.57,31.66,2.43,56.95,0,62.31c-1.84,4-6.16,16.25-14,20.43-2.36,1.25-4.15,1.31-7.37.84-10.7-1.56-24.74-14.07-35.41-34.61-8.12-15.63-8.62-22.87-8.62-22.87l14.9-15,29.09,36.07.54-34.58Z" class="E"/><g class="B"><path d="M289.21 198.19v.6 1.75 6.7l-.14 24.49v.55l-.34-.43-29.14-36h.38l-11.52 11.61-3.38 3.4.07-.24A95.21 95.21 0 0 0 259.59 243a84.25 84.25 0 0 0 19.94 20.84 28.13 28.13 0 0 0 5 3 14.77 14.77 0 0 0 2.52.87 22.43 22.43 0 0 0 2.49.38 13.17 13.17 0 0 0 8-1.57 12.94 12.94 0 0 0 3.79-3.58l.77-1.13s.27-.38.27-.38a14.65 14.65 0 0 1-1 1.57 12.59 12.59 0 0 1-3.76 3.69 13.35 13.35 0 0 1-8.14 1.68l-2.53-.36a14.57 14.57 0 0 1-2.58-.88 27.65 27.65 0 0 1-5.06-3 83.91 83.91 0 0 1-20.12-20.86 95.23 95.23 0 0 1-14.56-32.57v-.14l.1-.1 3.38-3.41 11.53-11.6.2-.21.18.23 29 36.11-.35.12.32-24.48.12-6.7v-1.75a5.45 5.45 0 0 1 .11-.58z"/><path d="M300.78 245.16a19.07 19.07 0 0 1-1.5-2.15 47.21 47.21 0 0 0-3.9-4.94 59.51 59.51 0 0 0-4.49-4.41 15.71 15.71 0 0 1-1.93-1.79 11.18 11.18 0 0 1 2.16 1.51 38.42 38.42 0 0 1 4.65 4.34 34 34 0 0 1 3.82 5.09 9.71 9.71 0 0 1 1.19 2.35zm-3.23-87.04c.07.06-.8 1.13-2 3a39.92 39.92 0 0 0-6.07 16.09l-.47 3.58a4 4 0 0 1-.05-1 23.12 23.12 0 0 1 .16-2.65 34.7 34.7 0 0 1 6.13-16.25 24.09 24.09 0 0 1 1.63-2.09 3.6 3.6 0 0 1 .67-.68zm-96.06 26.68c-.08 0-.26-1.33-.66-3.48a75.06 75.06 0 0 0-2-8.29 79.25 79.25 0 0 0-2.94-8 34.45 34.45 0 0 1-1.39-3.26 3.6 3.6 0 0 1 .52.8c.31.53.72 1.32 1.2 2.31a56.71 56.71 0 0 1 3.11 8 58 58 0 0 1 1.87 8.38l.28 2.58a3.22 3.22 0 0 1 .01.96z"/></g><g opacity=".3"><path d="M302.23 245.09a10.77 10.77 0 0 0-3.15-5.5 37.57 37.57 0 0 0-10.19-7.73 55 55 0 0 1 12.05 13.44c.25.4.74.85 1.11.56a.8.8 0 0 0 .18-.77z"/></g><g opacity=".3"><path d="M204.43,227.39a13.81,13.81,0,0,0-14.85,8.42,3.85,3.85,0,0,0-.36,1.66,1.55,1.55,0,0,0,.89,1.35,1.61,1.61,0,0,0,1.74-.58,6.06,6.06,0,0,0,.9-1.73,15.15,15.15,0,0,1,12.32-9.1Z"/></g></svg>