<svg xmlns="http://www.w3.org/2000/svg" xmlns:xlink="http://www.w3.org/1999/xlink" viewBox="0 0 750 500" xmlns:v="https://vecta.io/nano"><style><![CDATA[.B{fill:#263238}.C{fill:#f52f39}.D{fill:#fff}.E{opacity:.5}.F{fill:#c7c7c7}.G{fill:#f7a9a0}.H{fill:#a6a6a6}.I{fill:#dbdbdb}.J{fill:#ebebeb}]]></style><path d="M659.47 387.57h-44.4v-11.19h44.4zM300.75 122.81h-44.4v-11.19h44.4zm339.09 278.86l44.4-.46-.47.46v-11.19l.5.5c-7.38 0-26.18-.07-33.3-.17l-11.1-.12.2-.21-.2 11.19zm0 0l-.2-11.19v-.19h.21l22.2-.22 22.2-.08h.5v.5 11.19.47h-.46c-12.92 0-31.32-.3-44.4-.47zM206.4 269.04H162v-11.19h44.4zm-19.63 14.12l44.4-.47-.46.47v-11.19l.5.5c-7.37 0-26.17-.08-33.3-.17l-11.1-.13.21-.2-.21 11.19zm0 0l-.2-11.19v-.2h.2l22.2-.23 22.2-.07h.5v.5 11.19.46h-.46c-12.92 0-31.32-.29-44.4-.46zm285.41.35l44.4-.47-.47.47v-11.19l.5.5c-7.38 0-26.18-.08-33.3-.17l-11.1-.13.2-.2-.2 11.19zm0 0l-.2-11.19v-.2h.21l22.2-.23 22.2-.07h.5v.5 11.19.49h-.46c-12.92 0-31.32-.29-44.4-.46zm24.76 14.11l44.4-.47-.46.47v-11.19l.5.5c-7.37 0-26.17-.08-33.3-.17l-11.1-.13.21-.2-.21 11.19zm0 0l-.2-11.19v-.2h.2l22.2-.23 22.2-.07h.5v.5 11.19.46h-.46c-12.91 0-31.32-.29-44.4-.46zm69.08-14.12h-44.4v-11.19h44.4zM110.17 401.68h-44.4v-11.19h44.4zm24.76-345.55h-44.4V44.94h44.4zm-69.17 14.1l44.4-.46-.46.46V59.04l.5.5c-7.37 0-26.17-.07-33.3-.17l-11.1-.13.2-.24-.21 11.19zm0 0L65.56 59v-.2h.2l22.2-.22 22.2-.08h.5v.5 11.19.47h-.46c-12.91 0-31.32-.3-44.4-.47zm549.31-14.11l44.4-.46-.46.46V44.93l.5.5c-7.38 0-26.17-.07-33.3-.17l-11.1-.13.2-.2-.2 11.19zm0 0l-.2-11.19v-.2h.2l22.2-.22 22.2-.08h.5v.5 11.19.47h-.46c-12.92 0-31.32-.3-44.4-.47zM85.76 130.16h158.25v103.33H85.76z" class="J"/><use xlink:href="#B" class="D"/><use xlink:href="#B" x="18.59" class="I"/><g class="D"><path d="M138.61 150.03H154v15.39h-15.39zm18.59 0h15.39v15.39H157.2z"/><use xlink:href="#B" x="74.37"/><use xlink:href="#B" x="92.96"/><use xlink:href="#B" x="111.56"/><use xlink:href="#B" y="18.72"/><use xlink:href="#B" x="18.59" y="18.72"/><path d="M138.61 168.75H154v15.39h-15.39zm18.59 0h15.39v15.39H157.2z"/></g><use xlink:href="#B" x="74.37" y="18.72" class="I"/><g class="D"><use xlink:href="#B" x="92.96" y="18.72"/><use xlink:href="#B" x="111.56" y="18.72"/><use xlink:href="#B" y="37.44"/><use xlink:href="#B" x="18.59" y="37.44"/><path d="M138.61 187.47H154v15.39h-15.39zm18.59 0h15.39v15.39H157.2z"/><use xlink:href="#B" x="74.37" y="37.44"/><use xlink:href="#B" x="92.96" y="37.44"/><use xlink:href="#B" x="111.56" y="37.44"/><use xlink:href="#B" y="56.17"/><use xlink:href="#B" x="18.59" y="56.17"/><path d="M138.61 206.2H154v15.39h-15.39zm18.59 0h15.39v15.39H157.2z"/><use xlink:href="#B" x="74.37" y="56.17"/><use xlink:href="#B" x="92.96" y="56.17"/><use xlink:href="#B" x="111.56" y="56.17"/></g><g class="F"><use xlink:href="#C"/><use xlink:href="#C" x="13.99"/><use xlink:href="#C" x="27.97"/><use xlink:href="#C" x="41.96"/><use xlink:href="#C" x="55.94"/><use xlink:href="#C" x="69.93"/><use xlink:href="#C" x="83.91"/><use xlink:href="#C" x="97.9"/><use xlink:href="#C" x="111.88"/><use xlink:href="#C" x="125.87"/><use xlink:href="#C" x="139.85"/></g><path d="M588.58 210.46h87.57v106.22h-87.57z" class="J"/><path d="M598.59 220.16h67.56v86.83h-67.56z" class="D"/><path d="M598.59 220.16h2.64v86.83h-2.64zm77.57-9.7h2.64v106.22h-2.64z" class="F"/><path d="M621.23 240.24h15.93v47.46h-15.93z" class="I"/><path d="M657.26 255.88h-43.48v-24.25h43.48zm-42.48-1h41.48v-22.25h-41.48zM534.09 74.15h87.57v106.22h-87.57z" class="J"/><path d="M544.1 83.85h67.56v86.83H544.1z" class="D"/><path d="M544.1 83.85h2.64v86.83h-2.64zm77.57-9.7h2.64v106.22h-2.64z" class="F"/><path d="M571.34 106.29h13.65v34.51h-13.65z" class="J"/><path d="M599.85,151.55H562.19V126.77h37.66Zm-36.66-1h35.66V127.77H563.19Z" class="I"/><path d="M59 454.35h632H59z" class="B"/><path d="M688.61 312.66c-19.36 26.23-39.55 56.66-44.47 89.55-.06.5.74.66.85.17a196 196 0 0 1 8.57-26.33c12.73-3.51 25.23-6.38 31.91-19 6.82-13 5.95-29.93 4.66-44.08-.13-.77-1.13-.81-1.52-.31z" class="C"/><path d="M653.75 375.8c8.7-19.52 19.87-39.12 34.06-55.18.1-.1.25.05.16.16-9.29 11.43-16.36 23.89-23.25 36.55 6.41-6.51 13.43-12.34 19.51-19.24.12-.13.31.06.19.2-6 7.23-12.62 15.1-20.47 20.45q-3.16 5.83-6.39 11.69c.53-.3 1.07-.56 1.62-.83.09-.05.18.1.08.14-.6.31-1.19.63-1.81.89l-3.08 5.53c-.23.41-.8.05-.62-.36zm6.47-6.8a114.81 114.81 0 0 0 14.87-9.92c.12-.11.31.07.18.18a78.59 78.59 0 0 1-14.83 10.1.211.211 0 0 1-.22-.36z" class="B"/><path d="M641.9 397.33c0 .39.72.39.71 0l.17-32.59c2.78-5.6 8.73-8.7 12.87-13.18a58 58 0 0 0 7.73-10.76 77.33 77.33 0 0 0 9-29.88c1.14-11.58-3.25-49.81-8.14-48.48-2.53.68-10.73 19.62-12.9 25.88a181.17 181.17 0 0 0-7.75 31.68c-3.96 25.5-3.59 51.68-1.69 77.33z" class="C"/><path d="M641.82 350.6h0c.6-13.7 3.68-27.54 6.57-40.84 3.12-14.31 6.76-27.8 14.12-40.57.14-.24.49 0 .37.22a150.65 150.65 0 0 0-11.34 31.14c.49-.77 1.09-1.51 1.6-2.24.2-.28.68 0 .48.28a20.26 20.26 0 0 1-2.3 3.25.16.16 0 0 1-.1.05c-2.54 10.23-4.36 20.7-5.91 31.14.11-.13.22-.27.34-.4s.22 0 .16.12c-.19.35-.41.69-.62 1l-2.24 15.83c9.43-8.06 17.49-17.57 22-29.29 0-.05.11 0 .09 0-4.45 12.15-11.48 22.95-22.28 30.33l-.6 4.23c0 .29-.51.21-.51-.07 0-1.25.07-2.5.12-3.75a.29.29 0 0 1 .05-.43zm4.45-19.85c7.21-10.77 14-21.22 19.23-33.12 0-.13.28 0 .23.1-4.45 11.82-10.67 23.8-19.1 33.29-.17.2-.51-.02-.36-.27zm9.58-35.75c3-5.29 6.14-10.43 8.95-15.82.08-.15.29 0 .23.13a82.58 82.58 0 0 1-8.71 16c-.2.2-.64-.03-.47-.31zm-1.16 2.27a0 0 0 1 1 0 .09 0 0 0 0 1 0-.09z" class="B"/><path d="M634.57 366a109.91 109.91 0 0 1-2.57 21.34l.34 2.34a101.8 101.8 0 0 0 3.81-23.79.7.7 0 0 0 0-.73h0a157 157 0 0 0-2.39-32.22c-3.35-19.91-10.68-39-24.56-53.93a1 1 0 0 0-1.53.32c-5.61 14.24-3.65 31.24 1.12 45.44a83 83 0 0 0 11 21.59c4.84 6.64 10.91 12.33 14.78 19.64z" class="C"/><path d="M610.91 285.65c13.16 21.35 22.31 46.66 23.43 71.88 0 .45-.73.57-.79.11q-.48-3.39-1-6.75h0c-5.44-5.22-11-10.72-14.93-17.23-.06-.12.1-.25.19-.15 4.74 5.41 9.16 11 14.5 15.78q-1.41-8.35-3.38-16.47a22.26 22.26 0 0 1-1-1.22c-.31-.41.15-.66.39-.39l.32.35a190.78 190.78 0 0 0-6.88-21.84c-3.35-4-7.09-7.45-9.53-12.26a.1.1 0 1 1 .17-.1c2 2.75 3.86 5.52 6.09 8.07.88 1 1.85 2 2.77 3a167.59 167.59 0 0 0-10.77-22.45.29.29 0 0 1 .42-.33zm2.66 26.35c4.25 5.73 9.1 11.19 13 17.1.12.17-.13.35-.27.21-5.08-4.76-9.38-11.27-13.07-17.14-.06-.17.22-.35.34-.17zm13.65 18.41l.18.18a.14.14 0 0 1-.2.19l-.18-.18c-.12-.12.07-.32.2-.19z" class="B"/><path d="M590.3 326.69c1.06 11 6.84 24.11 13.88 32.57a34.48 34.48 0 0 0 11.26 8.79c4.88 2.41 10 5.19 15 7.17a98.55 98.55 0 0 1 5.31 18.9c.17-.55.33-1.13.49-1.68C633 364.63 615 340.86 592 325.6a1.12 1.12 0 0 0-1.7 1.09z" class="C"/><path d="M598.25 334.91c-.16-.14.06-.44.24-.3 12.2 9 23.19 22.21 29.33 36.15.17.38-.35.71-.57.33q-1.61-2.8-3.27-5.49h0c-5.25-1-10.23-4.68-14.13-8.19-.1-.1 0-.25.16-.16a32.11 32.11 0 0 0 6.65 4.67c2.14 1.09 4.44 1.77 6.67 2.64-1.95-3.09-4-6.05-6.09-8.93-5.66-1.92-11-5.4-15.79-8.87-.15-.11 0-.36.14-.26a158.27 158.27 0 0 0 14.68 7.85 131.15 131.15 0 0 0-10.36-12.08c-1.79-.95-3.6-1.89-5.33-2.9-.14-.08 0-.33.11-.27a18.91 18.91 0 0 1 4.09 2c-2.1-2.1-4.24-4.17-6.53-6.19zm.49 9.6a7.12 7.12 0 0 1 .89.63c.08.08 0 .19-.11.15a7.65 7.65 0 0 1-.93-.52c-.16-.11-.01-.36.15-.26z" class="B"/><path d="M672.2 454.35h-63.08l5.09-57.45 1.12-12.67h50.66l1.12 12.67 5.09 57.45z" fill="#455a64"/><path d="M667.11 396.9h-52.9l1.12-12.67h50.66l1.12 12.67z" class="B"/><path d="M612.31 375.37h56.7v12.54h-56.7z" fill="#455a64"/><path d="M313.64 321.79A6.82 6.82 0 0 0 317 328a52 52 0 0 0 5.75 3.23 203.7 203.7 0 0 1 .71-20.86c.5-8 1.54-15.83 2.76-23.72a.1.1 0 0 1 .2 0c-.66 8-1 16.09-1.45 24.11-.39 7-.21 14.15-.64 21.17 2 .92 4.14 1.73 6.25 2.47l-.06-7.38c0-7.4.69-14.69 1.1-22.06a.13.13 0 1 1 .25 0c-.29 7.18 0 14.46.1 21.64 0 2.78.07 5.55.14 8.32a132.85 132.85 0 0 0 4.33 1.33l2.86.77c.06-4.85.4-9.74.59-14.49.31-7.68 1.1-15.31 1.53-23a.2.2 0 1 1 .39 0c-.38 7.64-.25 15.34-.45 23l-.21 14.95a116 116 0 0 0 39.13 2 173.87 173.87 0 0 0 22.45-4.07c1.79-.43 6.34-1.69 10.84-3 0-2.32.15-4.64.17-6.88 0-5.11.38-10.26.28-15.37 0-.15.19-.15.2 0 .27 5.13.84 10.22.95 15.37 0 2.07.14 4.2.16 6.36l4.51-1.38c-.51-9.66.11-19.48.17-29.11a.16.16 0 1 1 .32 0c.38 9.45 1.35 19 1.22 28.56a15.61 15.61 0 0 0 3-1.17c2.23-1.75.74-40 .6-48.87-.25-16.62-.07-99.41-5-115.35-1.79-5.77-7.49-23.16-28.15-32-6.59-2.82-14.31-2.14-21.36-2.18-34.23-.16-45.27 24-48.43 66.38l-7.57 111.88c-.36 4.35-.92 8.77-1 13.14z" class="B"/><path d="M367.06 290.71c70.74-11.13 164.19-39.83 167.65-64.32 3.85-27.28-86.85-23.64-87.22-19.47-.32 3.53-49.06 32-92.26 59s-5.66 27.54 11.83 24.79z" class="G"/><g class="C"><use xlink:href="#D"/><use xlink:href="#D"/></g><path d="M404.9 292.46c-16.49 3.59-35.78 6.54-54.9 6.54-14.25 0-23.11-8.4-12.44-20a205.18 205.18 0 0 1 15.82-15z" opacity=".1"/><path d="M393.81 237.45c7.11 8.58 27 31.29 41.92 44.36.09.08.43-.22.36-.32-10.75-12.73-34-36.56-41.77-44.49-.15-.15-.64.29-.51.45z" class="B"/><path d="M233.11 454.66l177.3-.45-10.72-66.76s15.31-18.64 12.43-38.85c-3.18-22.16-43.06-78.29-46.42-81.45-13.49-12.69-27.69-16.09-40.55-9.44-44.25 22.87-92.04 196.95-92.04 196.95z" class="C"/><path d="M362.79 264.57h-46.91l1.17-1.08h44.41l1.33 1.08zM377.31 283h-76.18l-.7 1.08h77.62zM390 302.44H289.79l-.57 1.08H390.7l-.7-1.08zm11.34 19.48h-121.1l-.49 1.08H402zm8.9 19.47H271.77l-.45 1.08h139.3l-.35-1.08zM264 360.87l-.41 1.08h148.08l.19-1.08zm-7.19 19.48l-.38 1.07h147.4l.64-1.07zm144.86 19.47H250.08l-.36 1.08h152.13zm3.12 19.48H243.72l-.34 1.07H405zm3.13 19.47H237.71l-.32 1.08H408.1z" class="D"/><path d="M369 382.34a161.52 161.52 0 0 0-23.55 3.87c-3.84 1-7.6 2.14-11.36 3.38-1.87.62-3.75 1.17-5.65 1.72a25.12 25.12 0 0 1-6.07 1.14.15.15 0 0 0 0 .29 43.77 43.77 0 0 0 5.84-.11 42.06 42.06 0 0 0 5.57-1.05l11.64-3.1c7.85-2 15.69-4 23.67-5.49.37-.06.28-.69-.09-.65zm19.6 7.03a174.57 174.57 0 0 0-19.67-.94c-3.29 0-6.55.27-9.82.58l-4.68.53-5.12.86c-.18 0-.18.3 0 .29 1.62-.14 3.27 0 4.9 0l4.91-.13 9.83-.23c6.56-.23 13.09-.38 19.65-.38.4-.04.34-.54 0-.58z" class="B"/><path d="M303.62 276.75c-44.21 56.34-94.39 161.06-80.24 181.34 15.76 22.59 78.5-48.2 75.94-51.51-2.18-2.8 16.59-70.57 29.82-119.77s-14.59-23.99-25.52-10.06z" class="G"/><path d="M249.32 344.42l71.82 5.92s12.81-51.78 13.63-79.92c.46-15.77-8.75-15.53-19.46-6.14-37.49 32.86-65.99 80.14-65.99 80.14z" class="C"/><g class="B"><path d="M319.56 338.81c-11-1.82-40.88-5.92-60.66-6-.12 0-.18.46-.06.47 16.44 2.59 49.55 5.38 60.64 6.25.21-.03.29-.68.08-.72zm-7.18 10.81l8.8.18-.57.42c1.36-7.9 3-15.75 4.74-23.56s3.73-15.58 6.06-23.28c-1.1 7.95-2.59 15.83-4.21 23.68s-3.47 15.65-5.53 23.4l-.13.48-.45-.06c-2.9-.36-5.81-.78-8.71-1.26z"/><path d="M328.2 319.07a22.17 22.17 0 0 1 2-4.69 32.81 32.81 0 0 1 2.8-4.28 8.94 8.94 0 0 1-.6 2.51 17.5 17.5 0 0 1-1.06 2.33 16.75 16.75 0 0 1-3.14 4.13z"/></g><g class="G"><path d="M224.33 459.92c16.89 10.22 74 3.57 150.28-13.78 10.56-2.4-14.62-75.57-26-73.59-14.37 2.5-69.59 15.31-73.51 16.76-33.1 12.21-62.23 63.69-50.77 70.61z"/><path d="M324.47,382.35s4.49-1.93,26.58-16c15.27-9.72,58.67-23.64,99.75,6.36,15.75,11.5,14.55,27.56-3.92,18.52-13-6.36-21.48-11.89-26.31-12.78,0,0,9.52,20,3.25,31.24-2.81,5-10.78,18.51-18.48,28.14a50.07,50.07,0,0,1-5.57-3,27,27,0,0,1-26.39,11.49Z"/><path d="M367.1 359.42c9.38 1.42 29.21 4.77 44.48 13.16 16.95 9.31 47.11 31.82 40.1 44.27-5.13 9.13-17.4 1.54-17.4 1.54s10.5 11.93 4.06 19.16c-5.87 6.59-15 .16-15 .16s5.13 8.33-1.75 13.59c-8.27 6.32-17.66-12.18-31.57-13-3.14-.2-22.92-78.88-22.92-78.88z"/></g><path d="M398.75 388.85c8.6 2.79 26.51 14.13 35.53 29.14.2.34.06.68-.2.41a190 190 0 0 0-35.42-29.4c-.09 0-.01-.18.09-.15zm-8.91 17.4c7.18 3.16 25.12 15.68 33.73 31.2.2.35 0 .67-.21.39-13.43-15.64-27.13-26.84-33.61-31.44a.09.09 0 0 1 .09-.15zm-141.43 3.16c2.57-2.92 10.15-12.21 22.19-18.22 10.5-5.24 25.46-8 33.26-9 .19 0 .27.2.08.26-6.73 2.29-20.42 5.19-31.68 10.64a98.77 98.77 0 0 0-23.64 16.47c-.14.16-.34-.01-.21-.15z" class="B"/><g class="G"><path d="M534.83 224.66c1.28-19.28-20.73-48.52-70.13-107-6.84-8.09-66.95 27.07-60.09 36.09 8.63 11.36 43 55.84 46.05 58.59 25.48 23.23 83.34 25.4 84.17 12.32z"/><path d="M468.62,129.7c-5.3-21.49-18-43.83-25-49.67S403.8,64.45,396,63.77s-34.23-2.85-39.27,2c-4,3.93,1.93,12.06,17.76,13.7,13.93,1.45,16.87,3.53,23,7.24,3.77,2.27,16,10.86,14.86,17.13-.68,3.69-9.33,10-16,8.81s-10.68-7.77-18.94-11.63-20.16-.15-20,3.29,4.5,4,13.47,13.48c5.77,6.12,9.89,18.24,22,28.23,6.08,5,20.1,12.76,20.1,12.76Z"/><path d="M436.75,84c-4.57-7.45-30.82-23-38.67-25.65-12.24-4.11-37.46-7.27-39.2,1.26-2.5,12.21,27.18,15.74,30.22,17.08,5.92,2.6,28.52,23.25,28.52,23.25Z"/></g><path d="M405.23,88.93a138.56,138.56,0,0,0-13.72-10.55,9.4,9.4,0,0,0-3.85-1.5C378.9,75,365.55,72.41,359.6,65.3c-2-2.46-2.21-6.53.21-8.87,5.88-5.29,18.76-2.74,25.93-1.58a104.69,104.69,0,0,1,14.79,3.85c8.63,3.93,16.37,9.42,24.17,14.72a86.1,86.1,0,0,1,6.93,5.23c-4.61-3.49-9.59-6.47-14.49-9.53-7.4-4.43-14.65-9.39-23.21-11.11-6.83-1.67-33.84-8-34.47,2.86.31,9.18,22.11,13.45,29.48,15.27,3.84,1.32,6.83,4.39,9.9,6.89,2.19,1.91,4.33,3.87,6.39,5.9Z" class="B"/><path d="M441.76,92.7c-2.56-8.36-24.07-30-31-34.51-10.82-7-34-16.21-38.27-8.6-4.42,7.94,22.38,22,25,24.1,5.08,4,21.79,29.66,21.79,29.66Z" class="G"/><path d="M415.15,97.17c-5.35-7.45-10.46-15.22-16.64-22a14.11,14.11,0,0,0-3.76-2.38C388,69,371,59.85,371.27,51.22c.29-3.69,4.17-5.67,7.46-5.64,6.38,0,12.26,2.38,18,4.78a109.58,109.58,0,0,1,16.32,8.79C420.29,65,426.27,72.08,432.4,79c2,2.35,4,4.67,5.75,7.21-3.82-4.8-8.15-9.19-12.39-13.63s-8.52-8.9-13.36-12.51a121.83,121.83,0,0,0-16.21-8.49c-5.79-2.29-15.59-6.56-21.43-3.48-9.52,7.25,17.05,21.78,22.5,24.89a7.05,7.05,0,0,1,1.92,1.51,76.43,76.43,0,0,1,5.75,7.27q5.31,7.56,10.22,15.37Z" class="B"/><path d="M456.42,98.35c-7-13-19.65-31.47-24.49-36.1s-25.44-19.68-32.62-17c-9,3.37,4.85,17.66,11.45,23.32s8.71,17.58,8.71,17.58Z" class="G"/><path d="M396.66 51.08a27.77 27.77 0 0 0 6 8.6c4.08 4.69 9.26 8.35 13 13.39 4.64 6.72 5.87 15.17 5.93 23.16 0 3.56-.27 7.14-.59 10.63a69.07 69.07 0 0 0 1.66 21 60 60 0 0 1-2.82-21c.42-7.07.68-14.1-.68-21a32.48 32.48 0 0 0-4.63-12 39 39 0 0 0-5.2-5.86c-4.74-5.12-10.45-10.06-12.67-16.88zm104.51 180.34c-3.81-.08-15.54.1-27.62-5.11-10.55-4.55-22.07-14-27.69-19.22-.14-.13 0-.33.14-.23 6 3.59 16.76 12 27.93 17a96.5 96.5 0 0 0 27.23 7.3.13.13 0 1 1 .01.26z" class="B"/><g class="G"><path d="M312.38 266.89s38.38 32.89 51.22 29.28 3.79-44.78 3.79-44.78-31.03-10.02-55.01 15.5z"/><path d="M332.39 263.13c.3 3.41 13 27.07 28.15 28.5 4.94.46 8.66-26.43 8.66-26.43l.73-1.92 10.16-26.92-29.63-25.58-4.32-3.44-5.06 17-.4 1.34c-.17.53-.33 1-.47 1.53l-1.27 4.28c-.31 1.09-.62 2.15-.9 3.31s-.6 2.28-.91 3.44c-2.87 11.43-4.85 23.44-4.74 24.89z"/></g><path d="M341.08 224.31a57.63 57.63 0 0 0 28.85 39l10.16-26.92-29.63-25.58-4.32-3.44-5.06 16.94z" class="B"/><path d="M424 199.62c-5.3 50.21-35.94 52.72-46.76 51.57-9.82-1-43.11-5.83-43-56.31s25.08-63.88 47.66-62.72 47.41 17.25 42.1 67.46z" class="G"/><g class="B"><path d="M338.24 197.82c8.88 3 15.48-17.41 15.48-17.41s40.2 1.33 49.94-29.65c0 0 2.55 21.53 21 34.8 0 0 6.31-39.26-20.43-47.3 0 0-33.66-20-58.37 3.16s-13.59 54.38-7.62 56.4z"/><path d="M404.27 148.45a35 35 0 0 1-4.67 14.09 36.69 36.69 0 0 1-9.94 11.29 30.3 30.3 0 0 1-3.16 2.09l-1.61 1-1.71.81-3.45 1.53c-1.17.46-2.4.74-3.6 1.09l-1.81.51-1.84.31-3.69.62-7.42.23 7.25-1.32 3.53-.91 1.76-.45 1.7-.64 3.39-1.27c1.13-.4 2.15-1.07 3.23-1.6l1.61-.8 1.51-1a31.51 31.51 0 0 0 3-2 41.94 41.94 0 0 0 9.83-10.4 43.94 43.94 0 0 0 3.55-6.32 43.28 43.28 0 0 0 2.54-6.86zM418.54 198a33.35 33.35 0 0 1-3.46-.26c-1.32-.11-2.39-.07-3.47-.93a1.79 1.79 0 0 1-.29-2.16c.93-1.42 2.59-1.68 4.19-1.61a6.55 6.55 0 0 1 4.35 1.73 1.91 1.91 0 0 1-1.32 3.23zm-33.64-12.14a32.56 32.56 0 0 0 3.39.76c1.3.27 2.3.62 3.59.11a1.79 1.79 0 0 0 .9-2c-.48-1.62-2-2.35-3.54-2.75a6.56 6.56 0 0 0-4.67.41 1.9 1.9 0 0 0 .33 3.47zm6.35 14.28c0-.14-.28.12-.3.26-.37 3.4-1.37 7.22-4.59 7.91-.1 0-.11.2 0 .2 3.81 0 5.09-5.1 4.89-8.37z"/><path d="M388.74 196.18c-5.39-1.19-7.36 9.66-2.37 10.76s6.88-9.77 2.37-10.76z"/><path d="M386.5 196.36c-1.06.44-2.18 1.36-3.35 1.26-1.34-.11-2.13-1.42-2.8-2.67-.07-.13-.18-.06-.21.09-.41 2.07 0 4.35 2.18 5.06 2 .66 3.77-.92 4.67-2.91.17-.37-.06-1.01-.49-.83zm23.25 6.11c.06-.12.22.21.19.35-.87 3.3-1.32 7.24 1.44 9 .08.06 0 .23-.07.18-3.56-1.33-2.92-6.54-1.56-9.53z"/><path d="M413.52,199.68c5.45.82,3.4,11.66-1.65,10.89S409,199,413.52,199.68Z"/><path d="M415.65 200.82c.75.73 1.39 1.94 2.4 2.2 1.17.3 2.27-.71 3.24-1.68.1-.11.17 0 .15.14-.34 2.09-1.43 4.11-3.49 4.13-1.89 0-2.88-2-3-4.16-.01-.4.4-.93.7-.63zm-34.35 25.92c.58 1 1.08 2.26 2.25 2.69a9 9 0 0 0 3.77.12.12.12 0 0 1 .1.21 4.59 4.59 0 0 1-4.67.66c-1.42-.66-1.81-2.15-1.8-3.62.05-.2.27-.2.35-.06zm2.97-4.74c10.74.07 15.71 3.17 15.83 2.8l.76-8c.91.62 5.55 3.54 5.67 2.14.92-11.6 1.79-22.49.27-34.23a.33.33 0 0 0-.65 0c-1.33 11.11-.54 20.38-1.7 31.56-1.5-.82-3.92-2.29-5.31-2.46-.4.06-.69 7-.81 7.83 0 0-8.26-1.86-13.7-.46-1.87.46-2.71.82-.36.82z"/></g><g fill="#37474f"><path d="M378.85 215.24a16 16 0 1 1 19.8-15.66h0a16 16 0 0 1-19.8 15.66zm7.11-29a13.84 13.84 0 1 0 10.55 13.33 13.75 13.75 0 0 0-10.51-13.3zm29.32 33.34c-5.94-1.46-9.84-8.86-8.81-17.14a19.07 19.07 0 0 1 4.73-10.67c2.62-2.8 5.83-4.12 9.05-3.72s6 2.47 7.86 5.82a19 19 0 0 1 2 11.51c-1.08 8.74-7.26 15.2-13.77 14.39-.34-.05-.73-.11-1.06-.19zm5.5-29.26a5.24 5.24 0 0 0-.79-.15 8.53 8.53 0 0 0-7.23 3.06 16.94 16.94 0 0 0-4.17 9.47c-.94 7.58 2.62 14.29 8 15s10.45-5 11.4-12.54a17 17 0 0 0-1.73-10.21 8.77 8.77 0 0 0-5.48-4.63z"/><path d="M397.89 201.35l-1.17-1.79c2.66-1.72 8.56-3.75 11.92.88l-1.73 1.25c-3-4.15-8.78-.49-9.02-.34zm-71.18-4.71l-1.76-1.2c.56-.82 5.64-8 10.47-8.22 4.52-.15 32.61 6 33.8 6.31l-.46 2.08c-8.05-1.78-29.77-6.38-33.26-6.25-3.19.12-7.42 5.3-8.79 7.28z"/></g><path d="M342.83,199.57S335,182,327.26,184.5s-4,26.5,3.65,31.17A8.52,8.52,0,0,0,343,213.33Z" class="G"/><path d="M328.51 191.36c-.13 0-.19.14-.08.21 5.32 3.46 7.31 9.4 8.36 15.37-1.3-2.47-3.41-4.09-6.67-2.6-.17.08-.07.34.1.34a5.25 5.25 0 0 1 5.32 2.89 25.35 25.35 0 0 1 1.82 5.12c.17.57 1.16.47 1.08-.16a.78.78 0 0 1 0-.14c1.56-7.34-2.17-18.76-9.93-21.03zm81.54 46.57a113.21 113.21 0 0 0 8.23-13.93 31.47 31.47 0 0 1-8.23 13.91zm-152.69-80.81a121.55 121.55 0 0 1 67.41-56.93 128.32 128.32 0 0 1 49.5-6 179.28 179.28 0 0 1 19.84 2.64c-5.75-.9-11.55-1.62-17.38-2-1.6-.09-5.8-.22-7.48-.3-18.24-.31-36.72 2.8-53.45 10.2a125.84 125.84 0 0 0-58.44 52.39zm-2.52-19.63c10.78-15.77 27.6-27.27 45.83-32.72 2.28-.75 5.59-1.35 7.94-1.92-21 5.51-40.33 17.5-53.77 34.64zm34.96-2.99a73.07 73.07 0 0 1 36.92-29.76c2.14-.81 4.39-1.36 6.58-2a95.15 95.15 0 0 0-12.59 5.35 88.46 88.46 0 0 0-30.91 26.41z" class="B"/><g class="E C"><path d="M179.21 399.11a24.41 24.41 0 0 1-4.77 25.25 76.46 76.46 0 0 0 1.51 8.87l-16.37 7.41a76.06 76.06 0 0 0-5.67-7 24.4 24.4 0 0 1-22.11-13.07c-5.45-9.87-5-28.29 12.14-36.05l.17-.08c17.15-7.75 31.28 4.07 35.1 14.67z"/></g><g opacity=".7" class="C"><path d="M177.22 400.1a22.34 22.34 0 0 1-4.36 23.1c.1 2.42 2.39 10.35 2.39 10.35l-15 6.78s-4.45-7-6.2-8.64a22.33 22.33 0 0 1-20.23-12c-5-9-4.58-25.86 11.11-33l.16-.07c15.72-7.03 28.64 3.79 32.13 13.48z"/></g><g class="B"><path d="M147.454 416.868l.984-.687 16.484 23.604-.984.687zm17.504-8.177l1.165-.286 6.867 27.959-1.165.286z"/><path d="M160.6 421.09c-1.47.67-3.43-.09-5.16-1.4a2.16 2.16 0 0 1-1 1.4c-2.41 1.09-5.64-3.45-5.77-3.65l.32-.23c0 .05 3.17 4.47 5.28 3.52h0a1.9 1.9 0 0 0 .87-1.31 12 12 0 0 1-3.28-4c-.63-1.38-.47-2.41.43-2.82h0a1.58 1.58 0 0 1 1.66.15c1.29.93 1.94 3.78 1.74 5.87a6.45 6.45 0 0 1-.11.68c1.66 1.3 3.54 2.08 4.89 1.47h0c1.23-.56 1.8-2.18 1.9-4a7.33 7.33 0 0 1-3.46-3.66c-.81-1.79-.64-3.2.43-3.69.86-.39 1.75.26 2.44 1.77a13.24 13.24 0 0 1 1 5.32 2.64 2.64 0 0 0 2-.06h0c1.5-.68 1.21-4.84 1-6.38l.39-.06c0 .24.89 5.86-1.19 6.8h0a3 3 0 0 1-2.15.1c-.25 2.09-1 3.63-2.23 4.18zm-1.13-11.36c-1 .46-.77 2-.24 3.15a7.29 7.29 0 0 0 3.11 3.41 12.32 12.32 0 0 0-1-5c-.24-.6-.98-1.97-1.87-1.56zm-7.05 3.19h0c-.93.42-.55 1.62-.24 2.3a11.69 11.69 0 0 0 3 3.76 3.11 3.11 0 0 0 .06-.44c.19-1.93-.41-4.67-1.58-5.51a1.16 1.16 0 0 0-1.24-.11z"/></g><g class="F"><path d="M157.496 441.623l20.517-9.285 5.109 11.288-20.517 9.285z"/><path d="M180.81,444.66c-.23,2.68-1.68,5.64-6.09,7.64s-7.59,1.13-9.77-.47Z"/></g><path d="M180.81 444.66a8 8 0 0 1-.54 2.33l-14.61 5.31-.71-.47zm-1.21-10.46l-20.8 11.83-.44-.98 20.8-11.84.44.99zm1.35 2.98l-20.8 11.83-.44-.98 20.8-11.84.44.99zm1.35 2.98l-20.8 11.83-.45-.98 20.81-11.84.44.99z" class="H"/><g class="D E"><path d="M135.41 414.8c.81-.22 0-4.54 2.16-10.92 1-2.84 6.86-8.52 5.31-10.59s-6.76 3.13-8.26 8.22c-2.41 8.18.04 13.49.79 13.29zm37.37-15.95a1.181 1.181 0 0 0-1-2.14 1.181 1.181 0 0 0 1 2.14zm.55 19.24c1 .23 3.15-4.82 3-9.61-.15-4-1.83-8.32-2.87-8.15s1 6.26.86 8.91c-.2 3.34-2.08 8.6-.99 8.85z"/></g><g opacity=".2" class="C"><path d="M104.35 448.35a24.4 24.4 0 0 1-10.87-23.28 78.06 78.06 0 0 0-6.41-6.32l9-15.58a77.19 77.19 0 0 0 8.68 2.37 24.4 24.4 0 0 1 25.59-2.29c10.18 4.82 20.58 20 11.19 36.35l-.1.17c-9.43 16.31-27.8 14.96-37.08 8.58z"/></g><path d="M105.38 446.38a22.33 22.33 0 0 1-9.94-21.29c-1.49-1.91-8-7-8-7l8.2-14.24s7.67 3.05 10.07 3.39a22.32 22.32 0 0 1 23.4-2.1c9.31 4.41 18.82 18.33 10.24 33.25l-.09.16c-8.58 14.91-25.38 13.67-33.88 7.83z" opacity=".3" class="C"/><g class="B"><path d="M92.216 406.965l.398-1.132 27.164 9.539-.398 1.132zm-4.536 7.452l.779-.913 21.899 18.69-.779.913z"/><path d="M106.63 419.64c.8-1.39 2.83-1.93 5-1.87a2.14 2.14 0 0 1 0-1.75c1.32-2.29 6.59-.48 6.82-.4l-.13.37c-.06 0-5.19-1.77-6.34.23h0a1.88 1.88 0 0 0 .06 1.57 12 12 0 0 1 5 1.36c1.32.76 1.79 1.69 1.29 2.55h0a1.57 1.57 0 0 1-1.43.84c-1.59 0-3.79-1.93-4.84-3.75a5 5 0 0 1-.31-.61c-2.11-.09-4.09.37-4.83 1.66h0c-.67 1.17-.19 2.82.81 4.37a7.27 7.27 0 0 1 5 1c1.69 1 2.38 2.21 1.8 3.24-.48.82-1.57.81-3 0a12.91 12.91 0 0 1-3.91-3.73 2.55 2.55 0 0 0-1.57 1.2h0c-.82 1.43 1.84 4.63 2.94 5.74l-.29.28c-.17-.17-4.13-4.24-3-6.22h0a2.93 2.93 0 0 1 1.69-1.34c-1.17-1.91-1.39-3.57-.76-4.74zm7.55 8.57c.56-1-.54-2.06-1.65-2.7a7.29 7.29 0 0 0-4.52-.95 12.54 12.54 0 0 0 3.7 3.49c.58.33 1.98 1.01 2.47.16zm3.82-6.71h0c.5-.88-.5-1.63-1.15-2a11.81 11.81 0 0 0-4.64-1.3 3.72 3.72 0 0 0 .21.39c1 1.68 3.06 3.56 4.49 3.55a1.17 1.17 0 0 0 1.09-.64z"/></g><g class="F"><path d="M97.161 401.185l-11.236 19.517-10.738-6.182 11.236-19.517z"/><path d="M76.46,412.31c-1.38-2.32-1.93-5.56.48-9.76s5.51-5.35,8.2-5.33Z"/></g><path d="M76.46 412.31a8.25 8.25 0 0 1-.93-2.21l8.77-12.84a7.87 7.87 0 0 1 .84 0zm7.08 7.79l9.98-21.75.94.53-9.98 21.76-.94-.54zm-2.83-1.63l9.98-21.76.94.54-9.98 21.76-.94-.54zm-2.84-1.64l9.98-21.75.94.54-9.98 21.75-.94-.54z" class="H"/><g class="D E"><path d="M130.75 410.05c-.53.64 2.63 3.69 4.62 10.12.88 2.86-.59 10.92 1.87 11.7s3.66-6.49 1.91-11.49c-2.82-8.06-7.91-10.93-8.4-10.33zm-21.03 34.76a1.18 1.18 0 0 0 2 1.17 1.18 1.18 0 0 0-2-1.17zm-11.67-15.3c-1 .41.25 5.75 3.18 9.54 2.44 3.14 6.35 5.69 7.09 4.95s-4.47-4.5-5.9-6.73c-1.81-2.82-3.34-8.19-4.37-7.76z"/></g><g opacity=".2" class="C"><path d="M180.78 416.1a24.41 24.41 0 0 1-6.41-24.88 77.5 77.5 0 0 0-5.14-7.39l11.67-13.67a76.26 76.26 0 0 0 8.1 3.92 24.43 24.43 0 0 1 25.58 2.44c9.12 6.61 16.55 23.47 4.33 37.79l-.13.15c-12.23 14.31-30.05 9.61-38 1.64z"/></g><path d="M182.16 414.35a22.34 22.34 0 0 1-5.87-22.75c-1.12-2.15-6.56-8.35-6.56-8.35l10.67-12.5s7 4.41 9.28 5.18a22.33 22.33 0 0 1 23.39 2.23c8.34 6 15.14 21.47 4 34.56l-.11.14c-11.23 13.14-27.52 8.79-34.8 1.49z" opacity=".3" class="C"/><g class="B"><path d="M176.443 373.172l.599-1.04 24.953 14.36-.599 1.04zm-5.849 6.53l.933-.754 18.095 22.393-.933.754z"/><path d="M188.29 388.29c1-1.22 3.14-1.37 5.27-.92a2.11 2.11 0 0 1 .34-1.71c1.72-2 6.57.73 6.77.85l-.19.35s-4.77-2.7-6.28-.94h0a1.91 1.91 0 0 0-.23 1.55 12 12 0 0 1 4.69 2.26c1.16 1 1.45 2 .81 2.74h0a1.58 1.58 0 0 1-1.56.57c-1.57-.29-3.38-2.6-4.08-4.57l-.19-.67c-2.06-.47-4.09-.38-5 .75h0c-.88 1-.71 2.74 0 4.45a7.29 7.29 0 0 1 4.69 1.84c1.49 1.27 1.94 2.62 1.17 3.52-.61.72-1.69.51-2.95-.57a13 13 0 0 1-3.16-4.39 2.63 2.63 0 0 0-1.76.9h0c-1.07 1.25 1 4.88 1.83 6.18l-.33.22c-.13-.2-3.29-4.93-1.8-6.66h0a3 3 0 0 1 1.91-1c-.87-2.04-.83-3.72.05-4.75zm5.85 9.81c.73-.85-.16-2.12-1.13-3a7.27 7.27 0 0 0-4.26-1.77 12.36 12.36 0 0 0 3 4.11c.5.48 1.75 1.41 2.39.66zm5-5.88h0c.66-.77-.19-1.7-.76-2.19a11.64 11.64 0 0 0-4.32-2.12 3.38 3.38 0 0 0 .13.42c.65 1.83 2.36 4.06 3.77 4.32a1.2 1.2 0 0 0 1.2-.43z"/></g><g class="F"><path d="M182.359 368.414l-14.626 17.124-9.421-8.047 14.626-17.124z"/><path d="M160,375.55c-.92-2.53-.87-5.82,2.27-9.5s6.39-4.25,9-3.74Z"/></g><path d="M160 375.55a8.32 8.32 0 0 1-.5-2.34l11-11q.44 0 .84.12zm5.51 8.96l13.8-19.56.82.71-13.8 19.55-.82-.7zm-2.49-2.13l13.81-19.55.82.7-13.8 19.55-.83-.7zm-2.48-2.12l13.8-19.56.82.71-13.8 19.55-.82-.7z" class="H"/><g class="D E"><path d="M213.76 383.29c-.64.54 1.91 4.11 2.68 10.8.35 3-2.58 10.62-.3 11.84s4.78-5.71 4-10.95c-1.31-8.43-5.79-12.19-6.38-11.69zm-27.05 30.31a1.181 1.181 0 0 0 1.8 1.53 1.181 1.181 0 0 0-1.8-1.53zM178 396.42c-1 .22-.81 5.7 1.38 10 1.82 3.54 5.2 6.76 6.06 6.17s-3.57-5.25-4.56-7.7c-1.22-3.14-1.75-8.7-2.88-8.47z"/></g><g class="E C"><path d="M100.21 414.6a24.4 24.4 0 0 1 16.92 19.33 77.4 77.4 0 0 0 7.92 4.28l-4.27 17.46a76.54 76.54 0 0 0-9 .15 24.41 24.41 0 0 1-23.94 9.33c-11.12-1.8-25.34-13.51-20.84-31.79v-.19c4.49-18.29 22.51-22.11 33.21-18.57z"/></g><g opacity=".7" class="C"><path d="M99.76 416.77a22.33 22.33 0 0 1 15.48 17.68c2 1.42 9.62 4.51 9.62 4.51l-3.9 16s-8.22-.79-10.62-.45A22.31 22.31 0 0 1 88.45 463c-10.17-1.64-23.18-12.35-19.09-29.08v-.17C73.49 417 90 413.54 99.76 416.77z"/></g><g class="B"><path d="M94.586 450.556l.066-1.198 28.746 1.592-.066 1.198zm3.614-19.332l.492-1.092 26.199 11.804-.492 1.092z"/><path d="M106 442.81c-.38 1.56-2.18 2.64-4.29 3.19a2.14 2.14 0 0 1 .46 1.68c-.63 2.57-6.19 2.3-6.43 2.29v-.4c.06 0 5.47.27 6-2h0a1.85 1.85 0 0 0-.49-1.49 11.91 11.91 0 0 1-5.2.09c-1.48-.36-2.19-1.12-2-2.09h0a1.58 1.58 0 0 1 1.14-1.2c1.54-.45 4.19.8 5.7 2.25a5.39 5.39 0 0 1 .47.5c2.05-.5 3.82-1.5 4.17-2.94h0c.32-1.31-.6-2.76-2-4a7.28 7.28 0 0 1-5 .47c-1.9-.47-2.91-1.47-2.63-2.61.23-.92 1.28-1.22 2.89-.83a13 13 0 0 1 4.8 2.5 2.61 2.61 0 0 0 1.17-1.59h0c.39-1.6-3.06-3.93-4.42-4.69l.19-.35c.21.12 5.16 2.92 4.62 5.14h0a3 3 0 0 1-1.26 1.75c1.73 1.52 2.45 3.01 2.11 4.33zm-9.64-6.13c-.27 1.09 1.09 1.83 2.34 2.13a7.29 7.29 0 0 0 4.6-.34 12.3 12.3 0 0 0-4.53-2.32c-.63-.15-2.16-.43-2.39.53zm-1.84 7.52h0c-.24 1 .94 1.43 1.66 1.6a11.54 11.54 0 0 0 4.82-.05 4.53 4.53 0 0 0-.31-.31c-1.4-1.35-3.93-2.56-5.3-2.16a1.16 1.16 0 0 0-.85.92z"/></g><g class="F"><path d="M120.259 457.842l5.349-21.876 12.035 2.943-5.349 21.876z"/><path d="M137,441.43c2,1.85,3.4,4.81,2.25,9.52s-3.79,6.67-6.39,7.39Z"/></g><path d="M137 441.43a8.44 8.44 0 0 1 1.5 1.87l-4.84 14.78a7.46 7.46 0 0 1-.8.26zm-8.94-5.5l-3.52 23.67-1.05-.25 3.52-23.68 1.05.26zm3.18.78l-3.52 23.67-1.05-.25 3.52-23.68 1.05.26zm3.17.78l-3.52 23.67-1.05-.26 3.53-23.67 1.04.26z" class="H"/><g class="D E"><path d="M85.52 458.74c.33-.77-3.55-2.82-7.25-8.44-1.65-2.49-2.47-10.64-5.06-10.7s-1.7 7.24 1.37 11.56c4.95 6.95 10.64 8.29 10.94 7.58zM96 419.5a1.18 1.18 0 0 0-2.29-.56 1.18 1.18 0 0 0 2.29.56zm15.51 11.43c.81-.65-1.84-5.45-5.72-8.27-3.22-2.34-7.68-3.7-8.18-2.78s5.54 3.08 7.54 4.82c2.52 2.2 5.49 6.93 6.36 6.23z"/></g><g class="E C"><path d="M197.23 476.43a24.41 24.41 0 0 1-17.14-19.14 76.52 76.52 0 0 0-8-4.2l4.08-17.5a76.38 76.38 0 0 0 9-.25 24.41 24.41 0 0 1 23.83-9.6c11.14 1.68 25.49 13.23 21.22 31.57v.19c-4.22 18.33-22.22 22.35-32.99 18.93z"/></g><g opacity=".7" class="C"><path d="M197.66 474.25A22.34 22.34 0 0 1 182 456.74c-2-1.39-9.67-4.39-9.67-4.39l3.73-16s8.22.7 10.62.33a22.31 22.31 0 0 1 21.8-8.78c10.18 1.53 23.31 12.1 19.41 28.87v.17c-3.97 16.76-20.42 20.44-30.23 17.31z"/></g><g class="B"><path d="M173.659 440.352l.053-1.199 28.762 1.276-.053 1.199zm-2.202 8.432l.482-1.099 26.368 11.558-.482 1.099z"/><path d="M191.11 448.29c.36-1.57 2.15-2.67 4.25-3.24a2.19 2.19 0 0 1-.48-1.68c.6-2.58 6.17-2.37 6.41-2.36v.4c-.05 0-5.47-.21-6 2h0a1.92 1.92 0 0 0 .51 1.48 12 12 0 0 1 5.2-.15c1.48.35 2.21 1.1 2 2.07h0a1.57 1.57 0 0 1-1.13 1.22c-1.52.46-4.19-.76-5.72-2.19l-.48-.5c-2 .53-3.8 1.54-4.13 3h0c-.31 1.32.63 2.75 2 3.95a7.3 7.3 0 0 1 5-.52c1.9.45 2.92 1.44 2.66 2.59-.22.92-1.27 1.23-2.89.85a13.1 13.1 0 0 1-4.82-2.44 2.56 2.56 0 0 0-1.15 1.6h0c-.38 1.6 3.1 3.9 4.47 4.64l-.19.35c-.21-.11-5.19-2.86-4.67-5.08h0a3 3 0 0 1 1.23-1.77c-1.64-1.39-2.38-2.9-2.07-4.22zm9.71 6c.25-1.08-1.12-1.81-2.36-2.1a7.29 7.29 0 0 0-4.6.39 12.42 12.42 0 0 0 4.55 2.28c.65.14 2.18.4 2.41-.56zm1.75-7.53h0c.23-1-.95-1.42-1.68-1.59a11.62 11.62 0 0 0-4.82.11l.32.31c1.42 1.33 4 2.51 5.33 2.1a1.18 1.18 0 0 0 .85-.92z"/></g><path d="M176.714 433.392l-5.108 21.933-12.067-2.81 5.108-21.933zM160.11 450c-2-1.82-3.46-4.77-2.36-9.49s3.72-6.71 6.31-7.46z" class="F"/><path d="M160.11 450a8.48 8.48 0 0 1-1.53-1.85l4.68-14.83a6.28 6.28 0 0 1 .8-.27zm9.04 5.4l3.26-23.71 1.05.25-3.26 23.71-1.05-.25zm-3.19-.74l3.26-23.71 1.05.25-3.26 23.71-1.05-.25zm-3.19-.74l3.26-23.71 1.06.24-3.26 23.72-1.06-.25z" class="H"/><g class="D E"><path d="M211.43 432.12c-.32.78 3.58 2.78 7.35 8.36 1.67 2.48 2.59 10.62 5.17 10.66s1.62-7.27-1.5-11.55c-5.02-6.9-10.72-8.18-11.02-7.47zm-10.08 39.36a1.181 1.181 0 0 0 2.3.54 1.181 1.181 0 0 0-2.3-.54zm-15.6-11.26c-.8.67 1.9 5.43 5.81 8.21 3.25 2.3 7.72 3.61 8.21 2.69s-5.57-3-7.59-4.74c-2.54-2.17-5.57-6.87-6.43-6.16z"/></g><path d="M228.73 462.32A25.39 25.39 0 0 1 218.55 474l-2.84-4.11-4.71-1.55 1.14-4.76-4.9-2.08.33-2.35-2.93-.71h4.14l1 1.42 5.61-.5 2 3.95 5.52-2.33 1.32 1.82z" class="D"/><path d="M247.05 455.77a27.77 27.77 0 0 1-1.13 16.92l-5.19-1.7-5.12 1.75-2.16-4.89-5.65 1.43-1.27-2.28-3 1.33 3.61-2.74 1.79.59 4.56-4.15 4.32 2.14 3.26-5.69 2.36.71z" class="C"/><g opacity=".3" class="C"><path d="M121 427.94a24.43 24.43 0 0 1 24.92 6.26 76.17 76.17 0 0 0 8.94-1l6.43 16.8a77.23 77.23 0 0 0-7.31 5.24 24.42 24.42 0 0 1-14.37 21.3c-10.17 4.86-28.53 3.33-35.26-14.25l-.07-.18c-6.73-17.58 5.91-30.99 16.72-34.17z"/></g><g opacity=".3" class="C"><path d="M121.87,430a22.32,22.32,0,0,1,22.79,5.72c2.42,0,10.48-1.78,10.48-1.78L161,449.28s-7.21,4-9,5.68a22.33,22.33,0,0,1-13.14,19.48c-9.3,4.44-26.09,3-32.25-13l-.07-.17C100.42,445.16,112,432.9,121.87,430Z"/></g><g class="B"><path d="M136.206 459.696l24.54-15.056.628 1.023-24.54 15.056zm-6.73-18.107l28.318-5.192.216 1.18-28.318 5.192z"/><path d="M141.84 447.82c.57 1.51-.3 3.42-1.71 5.07a2.13 2.13 0 0 1 1.33 1.12c.95 2.47-3.78 5.42-4 5.55l-.21-.34s4.65-2.9 3.82-5.06h0a1.86 1.86 0 0 0-1.25-.94 12.12 12.12 0 0 1-4.23 3c-1.42.54-2.44.32-2.79-.6h0a1.57 1.57 0 0 1 .25-1.64c1-1.24 3.89-1.72 6-1.4a6.22 6.22 0 0 1 .68.15c1.39-1.58 2.28-3.41 1.75-4.79h0c-.48-1.27-2.06-1.93-3.9-2.13a7.3 7.3 0 0 1-3.86 3.23c-1.83.7-3.23.45-3.65-.65-.34-.88.36-1.73 1.91-2.33a13 13 0 0 1 5.36-.67 2.58 2.58 0 0 0 .06-2h0c-.59-1.54-4.75-1.49-6.31-1.35v-.39c.24 0 5.9-.54 6.72 1.6h0a2.9 2.9 0 0 1 0 2.15c2.08.32 3.54 1.16 4.03 2.42zm-11.42.46c.4 1 1.94.88 3.14.42a7.31 7.31 0 0 0 3.58-2.9 12.27 12.27 0 0 0-5 .67c-.66.23-2.07.89-1.72 1.81zm2.77 7.22h0c.36.95 1.58.64 2.28.38a11.52 11.52 0 0 0 3.93-2.79l-.4-.09c-1.92-.31-4.69.13-5.59 1.25a1.15 1.15 0 0 0-.22 1.25z"/></g><path d="M162.101 452.09l-8.056-21.03 11.57-4.432 8.056 21.03zM166.55 429c2.67.4 5.54 2 7.27 6.54s.68 7.64-1 9.72z" class="F"/><path d="M166.55 429a8 8 0 0 1 2.3.68l4.44 14.9c-.16.24-.33.46-.51.68zm-10.51.63l10.58 21.46-1.01.39-10.58-21.47 1.01-.38zm3.06-1.17l10.58 21.46-1.01.39-10.58-21.47 1.01-.38zm3.05-1.17l10.58 21.46-1.01.39-10.58-21.47 1.01-.38z" class="H"/><g class="D E"><path d="M134.06 472.6c-.17-.82-4.53-.3-10.77-2.81-2.78-1.12-8.1-7.35-10.26-5.93s2.73 6.93 7.72 8.73c8.02 2.9 13.46.76 13.31.01zm-13.7-38.25a1.182 1.182 0 0 0-2.21.84 1.182 1.182 0 0 0 2.21-.84zm19.23.59c.29-1-4.62-3.44-9.41-3.55-4-.09-8.42 1.34-8.31 2.38s6.31-.63 8.94-.33c3.32.37 8.46 2.56 8.78 1.5z"/></g><g class="E C"><path d="M205.65 179.18a24.41 24.41 0 0 1 24.79-6.72 75.4 75.4 0 0 0 7.33-5.23l13.81 11.5a76.58 76.58 0 0 0-3.82 8.15 24.41 24.41 0 0 1-2.13 25.61c-6.49 9.2-23.26 16.84-37.73 4.79l-.15-.12c-14.46-12.05-9.98-29.93-2.1-37.98z"/></g><g opacity=".7" class="C"><path d="M207.4 180.54a22.36 22.36 0 0 1 22.69-6.15c2.13-1.14 8.27-6.67 8.27-6.67L251 178.24s-4.33 7-5.07 9.34A22.34 22.34 0 0 1 244 211c-5.94 8.42-21.28 15.4-34.51 4.39l-.14-.12c-13.25-11.02-9.15-27.37-1.95-34.73z"/></g><g class="B"><path d="M234.441 199.447l14.054-25.127 1.047.586-14.054 25.127zm-14.701-12.538l22.167-18.371.766.924-22.167 18.371z"/><path d="M233.54 186.34c1.24 1 1.41 3.13 1 5.26a2.15 2.15 0 0 1 1.71.32c2 1.7-.65 6.58-.77 6.79l-.35-.2s2.65-4.8.87-6.28h0a1.91 1.91 0 0 0-1.56-.21 12 12 0 0 1-2.2 4.71c-1 1.17-2 1.48-2.73.84h0a1.6 1.6 0 0 1-.58-1.55c.27-1.57 2.56-3.4 4.52-4.13l.67-.2c.44-2.06.33-4.09-.81-5h0c-1-.87-2.75-.67-4.45 0a7.35 7.35 0 0 1-1.79 4.71c-1.25 1.5-2.59 2-3.5 1.21-.73-.6-.54-1.68.53-3a13.08 13.08 0 0 1 4.35-3.21 2.6 2.6 0 0 0-.91-1.75h0c-1.27-1-4.88 1-6.16 1.91l-.23-.33c.2-.13 4.88-3.35 6.64-1.88h0a3 3 0 0 1 1 1.89c2.03-.78 3.71-.76 4.75.1zm-9.74 6c.86.71 2.13-.18 2.95-1.17a7.29 7.29 0 0 0 1.71-4.28 12.48 12.48 0 0 0-4.08 3c-.38.54-1.33 1.8-.58 2.43zm5.95 5h0c.78.65 1.7-.22 2.17-.79a11.51 11.51 0 0 0 2.07-4.35l-.42.14c-1.82.67-4 2.4-4.27 3.82a1.19 1.19 0 0 0 .45 1.11z"/></g><g class="F"><path d="M253.323 180.178l-17.304-14.412 7.929-9.52 17.304 14.412z"/><path d="M245.93,157.87c2.52-1,5.81-.94,9.53,2.16s4.33,6.33,3.84,9Z"/></g><path d="M245.93 157.87a8.7 8.7 0 0 1 2.34-.53l11.15 10.84a7.72 7.72 0 0 1-.12.84zm-8.89 5.65l19.72 13.56-.69.83-19.72-13.56.69-.83zm2.1-2.51l19.72 13.56-.69.83-19.73-13.56.7-.83zm2.09-2.51l19.72 13.56-.69.83-19.72-13.56.69-.83z" class="H"/><g class="D E"><path d="M238.86 211.76c-.55-.64-4.09 2-10.77 2.81-3 .38-10.65-2.45-11.84-.16s5.76 4.71 11 3.85c8.41-1.4 12.11-5.92 11.61-6.5zm-30.64-26.68a1.18 1.18 0 0 0-1.51 1.81 1.18 1.18 0 0 0 1.51-1.81zm17.06-8.88c-.23-1-5.7-.74-9.94 1.51-3.52 1.86-6.69 5.27-6.09 6.13s5.2-3.63 7.64-4.66c3.11-1.3 8.64-1.89 8.39-2.98z"/></g><path d="M592.45,114.38a55.73,55.73,0,0,1-89,44.75l-27.31,7,11.37-25.43a55.75,55.75,0,1,1,104.9-26.29Z" class="D"/><path d="M592.45 114.38a55.94 55.94 0 0 1-75.61 52.39 56.85 56.85 0 0 1-13.54-7.38c1.32 0-27.29 7.06-27 7.09l-.79.21.33-.75 11.3-25.46v.41a54.89 54.89 0 0 1-6.61-24.42 56.52 56.52 0 0 1 20.07-45c36.57-30.3 91.62-4.61 91.85 42.88zm0 0c.12-35.72-34.63-62.92-69.23-53.76-24.91 5.92-43.05 30.29-41.76 55.82a56 56 0 0 0 6.5 24l.11.21-.09.2-11.44 25.4-.46-.54 27.48-6.94a56.4 56.4 0 0 0 13.44 7.48 55.72 55.72 0 0 0 37.55.69 61.67 61.67 0 0 0 8.79-3.8c1.56-1 3.4-1.95 4.89-3 .5-.4 3.38-2.49 3.85-2.87a56.26 56.26 0 0 0 20.33-42.87zm-89.79 3.07a14.92 14.92 0 0 0 3.76 3.1c.9 3.24 4.1 5.47 7 6.83a35.67 35.67 0 0 0 10.77 3 68.31 68.31 0 0 0 18.5-.56c1.18 4.69 1 9.79.7 14.61 0 .13.18.12.19 0 .32-4.78.66-9.92-.32-14.7l3.59-.59c1.83-.33 3.69-.73 5.54-1.23a61.81 61.81 0 0 0 9.58-2.67c3.61-1.36 7-3.46 9-6.88a9.82 9.82 0 0 0-.13-10.24 17.84 17.84 0 0 0-3.09-3.75 24 24 0 0 0-2.4-2.24 31.09 31.09 0 0 0-9.57-5 62.08 62.08 0 0 0-2.74-.84l-.39-.19a39 39 0 0 0-11.23-3.1 56.93 56.93 0 0 0-24.27 1.93 54.53 54.53 0 0 0-11.36 4.86c-3.14 1.79-6 4.25-6.43 8a11.49 11.49 0 0 0 2 7.6 10.19 10.19 0 0 0 1.3 2.06zm46.42 9.74q-3.11.56-6.26.87c-.07-.24-.13-.48-.21-.72l1.38-.26c.46-.1.82-.2 1.24-.32a56.71 56.71 0 0 0 11.31-3 51.57 51.57 0 0 0 9.34-4.67c-3.8 4-9.59 6.28-14.76 7.59-.68.22-1.36.37-2.04.51zM526 97.35c1.1-.14 2.19-.26 3.29-.36a26.27 26.27 0 0 0-7.38 3.87 15.79 15.79 0 0 0-5.49 7.17 17.66 17.66 0 0 0-3.45 3c-.28.12-.57.24-.85.38a14.22 14.22 0 0 0-2.91 1.92c-.06-.14-.13-.26-.18-.4-1.08-3.24.79-6.27 3.09-8.41a30.12 30.12 0 0 1 9-5.47 40.15 40.15 0 0 1 4.88-1.7zm-14.17 20.9a15.07 15.07 0 0 0 1.37.87 6.21 6.21 0 0 0-.61 1.24 7.39 7.39 0 0 1-.79-2.11zm30.12 9.2c.08.22.16.44.23.67a73.92 73.92 0 0 1-8.92.29 107.21 107.21 0 0 0 5.37-.53l3.29-.43zm-2.24-4.23a75.72 75.72 0 0 1-22.79-.63c-1-.19-1.94-.4-2.91-.65a3.91 3.91 0 0 1 .66-2.09 35.62 35.62 0 0 0 11.33 2.63 112.77 112.77 0 0 0 12.47.21.55.55 0 0 0 .53-.35l.12.13c.21.25.38.53.56.75zm-22.92-3.91a22.81 22.81 0 0 1-1.21-.46 8.33 8.33 0 0 1 4.31-1.54 36.27 36.27 0 0 1 10.76 0 14 14 0 0 1 7.61 4.08c-7.2.18-14.63.28-21.5-2.08zm23.78 5.24c.22.38.42.76.61 1.15h-.07l-1.64.19c-.78 0-1.57.08-2.35.09a64.09 64.09 0 0 1-12-.91 79.15 79.15 0 0 0 12.88-.23c.84-.07 1.69-.18 2.54-.29zm.89-.12q3.44-.5 6.81-1.28a7.08 7.08 0 0 1-2.78 1.64 19.09 19.09 0 0 1-3.5.8l-.56-1.16zm-16.08 2.17h-.59a32.49 32.49 0 0 1-5.19-.86l-1.56-.39-.8-.43-.48-.31a66.59 66.59 0 0 0 8.59 1.99zm-13.64-10a7.72 7.72 0 0 1 1.65-4.16 18.11 18.11 0 0 1 3.16-1.08 4.3 4.3 0 0 0 2.06 1.42 44.32 44.32 0 0 0 5.53 1.62 51.76 51.76 0 0 0 20.89.39 11.39 11.39 0 0 1 3.59 3.59 4.34 4.34 0 0 1 .57 3.18 76.46 76.46 0 0 1-8.47 1.57q-.35-.58-.75-1.14a14.69 14.69 0 0 0-8.8-5.77 36.06 36.06 0 0 0-11.31-.37 9.48 9.48 0 0 0-5.74 2.16.52.52 0 0 0-.1.11 14.13 14.13 0 0 1-2.31-1.54zm47.59-9a4.61 4.61 0 0 1-1.6 1.5 26.1 26.1 0 0 0-9.26-5 37.72 37.72 0 0 0-21-.89 35.88 35.88 0 0 0-8.94 3.52l.17-.29a14.68 14.68 0 0 1 2.9-3.48c4.35-3.91 10.44-5.69 16.23-6.27h.44a56.24 56.24 0 0 1 18.29 3.44l.25.21c1.84 1.66 3.98 4.76 2.49 7.25zm-41.67 1.08a31.56 31.56 0 0 1 7.78-3.64 36.57 36.57 0 0 1 19.33-.7 34.45 34.45 0 0 1 9.18 3.62 17.64 17.64 0 0 1 2.55 1.78c-.53.24-1.05.45-1.54.66a50.36 50.36 0 0 1-5.21 1.85c-1.35.4-2.72.72-4.1 1l-.15-.1c-6.24-3.93-13.94-4.55-21.13-4.28a42.19 42.19 0 0 0-6.9.73 3.43 3.43 0 0 1 .16-.93zm2.31 2a56.35 56.35 0 0 1 10.63-.25 34.28 34.28 0 0 1 10 2.07 29.12 29.12 0 0 1 2.59 1.16 49.74 49.74 0 0 1-14.72.06 48.49 48.49 0 0 1-5.18-1c-.93-.24-1.86-.51-2.78-.8a9.34 9.34 0 0 1-2.31-.91c.54-.14 1.14-.24 1.74-.31zm38.89 5.47c-1.12 2.57-4.21 3.82-6.71 4.56-.36.11-.73.2-1.09.3.2-2.71-1.72-5-3.85-6.69h0a42.8 42.8 0 0 0 10.31-3.6c1.37 1.53 2.2 3.4 1.31 5.45zm-48.24-.66a7.93 7.93 0 0 1-.67-.86 11.76 11.76 0 0 1 1.3-1c-.11.24-.23.47-.32.73a8 8 0 0 0-.34 1.15zm57.86 0a16.86 16.86 0 0 1-2.18 1.62 48.64 48.64 0 0 1-9 4.82 54.91 54.91 0 0 1-7.78 2.47 5.42 5.42 0 0 0 1.21-1.89h.12c3-.79 6.33-1.84 8.33-4.34a5.88 5.88 0 0 0 1.32-4.32 7.16 7.16 0 0 0-1.79-3.79 5.13 5.13 0 0 0 2.41-3.33 6.52 6.52 0 0 0-.74-4.08 9.49 9.49 0 0 0-.79-1.31A25.71 25.71 0 0 1 567 106a7.75 7.75 0 0 1 2.52 4.72 8.68 8.68 0 0 1-.93 4.58zM511 121a28.86 28.86 0 0 1-3.24-1.63 5.09 5.09 0 0 1 1.27-3.79 10.57 10.57 0 0 0 1.47 1.6 8.59 8.59 0 0 0 1.2 4.07zm-7.57-5.13a7.75 7.75 0 0 1-1.6-5.59 11.22 11.22 0 0 1 5.29-7.72c3.26-2.11 7.15-3 10.9-3.84l.59-.12a30 30 0 0 0-7.28 4.82c-2.43 2.21-4.39 5.3-3.82 8.71a7.86 7.86 0 0 0 .7 2.1 7.11 7.11 0 0 0-2 4.16 15.42 15.42 0 0 1-2.81-2.51zm39.27-21.34a54.37 54.37 0 0 0-10.29.21 48.49 48.49 0 0 0-5.84 1.06c-2.15.25-4.29.58-6.4 1-7.14 1.35-16.25 3.24-19.21 10.86-.09.26-.16.51-.23.76a7.32 7.32 0 0 1 .42-2.13 9 9 0 0 1 3.27-4 41.47 41.47 0 0 1 10.12-5 56 56 0 0 1 22.28-3.33 53.12 53.12 0 0 1 5.85.58zm21 28.53l-.58.26a22.48 22.48 0 0 0 4.69-4.14 16 16 0 0 0 1.85-2.73 6.42 6.42 0 0 0 1.07-1.36 2.22 2.22 0 0 0 .13-.31 6.6 6.6 0 0 1-.21 1c-1.07 3.38-3.92 5.77-7.01 7.29zm-53.22.67a9.9 9.9 0 0 1-1.83-2 30.33 30.33 0 0 0 3.52 1.29l.24.1h.06a5.12 5.12 0 0 0 3 3.15 24.81 24.81 0 0 0 5.65 1.68 33.09 33.09 0 0 0 2.22.62c.75.18 1.81.37 2.73.52a39.57 39.57 0 0 1-6.31-1.05c-3.32-.84-6.76-2.04-9.34-4.3z" class="B"/><path d="M408.65 447.28h157.62v7.07H408.65z" class="I"/><g class="H"><path d="M486.93 447.28h79.33v7.07h-79.33z"/><path d="M491.75 454.34h153.61l20.08-104.33H511.83l-20.08 104.33z"/></g><path d="M498 454.34h153.61l20.08-104.33H518.08L498 454.34z" class="I"/><path d="M575.49 402.17a8.43 8.43 0 0 0 8.54 9.35 10.4 10.4 0 0 0 10.16-9.35 8.42 8.42 0 0 0-8.53-9.35 10.42 10.42 0 0 0-10.17 9.35z" class="D"/><defs ><path id="B" d="M101.42 150.03h15.39v15.39h-15.39z"/><path id="C" d="M91.96 119.19h6.01v15.88h-6.01z"/><path id="D" d="M450.6 279.31l-50.43-51.59s-43.6 30.64-62.66 51.33c-10.68 11.59-1.81 20 12.44 20 49.88-.2 100.65-19.74 100.65-19.74z"/></defs></svg>