<svg xmlns="http://www.w3.org/2000/svg" xmlns:xlink="http://www.w3.org/1999/xlink" viewBox="0 0 500 500" xmlns:v="https://vecta.io/nano"><style><![CDATA[.B{stroke-miterlimit:10}.C{stroke:#263238}.D{fill:none}.E{fill:#f52f39}.F{stroke-width:.5}.G{stroke-width:2}.H{fill:#263238}]]></style><use xlink:href="#B" class="E"/><use xlink:href="#B" fill="#fff" opacity=".7"/><g class="B C D"><path d="M61.58 476.25h400.15"/><g class="G"><path d="M123.67 324.26l15.88 151.79"/><path d="M136.73 444.91l-7.06-7.46"/></g></g><path d="M131.82 439.69a8 8 0 0 0-2.81-6c-1.81-1.62-11.35-5.63-12.25-2.27-.99 3.66 8.77 10.84 15.06 8.27z" class="B C E"/><g class="D B C"><path d="M131.82 439.69l-9.08-5.66" class="F"/><path d="M138.5 461.88l-7.05-7.46" class="G"/></g><path d="M133.59 456.66a8 8 0 0 0-2.81-6c-1.81-1.62-11.35-5.63-12.25-2.27-.99 3.66 8.77 10.83 15.06 8.27z" class="B C E"/><g class="D B C"><path d="M133.59 456.66l-9.08-5.66" class="F"/><path d="M132.41 403.5l-7.06-7.45" class="G"/></g><path d="M127.5 398.28a8 8 0 0 0-2.81-6c-1.81-1.61-11.35-5.63-12.25-2.27-.99 3.67 8.77 10.84 15.06 8.27z" class="B C E"/><g class="D B C"><path d="M127.5 398.28l-9.08-5.65" class="F"/><path d="M134.18 420.47l-7.06-7.45" class="G"/></g><path d="M129.27 415.25a8 8 0 0 0-2.81-6c-1.81-1.62-11.35-5.63-12.25-2.27-.99 3.66 8.79 10.84 15.06 8.27z" class="B C E"/><g class="D B C"><path d="M129.27 415.25l-9.08-5.66" class="F"/><path d="M129.54 375.94l-7.06-7.46" class="G"/></g><path d="M124.62 370.72a8 8 0 0 0-2.81-6c-1.81-1.62-11.35-5.63-12.25-2.27-.98 3.66 8.78 10.84 15.06 8.27z" class="B C E"/><g class="D B C"><path d="M124.62 370.72l-9.08-5.66" class="F"/><path d="M126.65 348.26l-7.06-7.46" class="G"/></g><path d="M121.73 343a8 8 0 0 0-2.81-6c-1.81-1.62-11.34-5.63-12.25-2.27-.98 3.7 8.78 10.87 15.06 8.27z" class="B C E"/><g class="D B C"><path d="M121.73 343.03l-9.08-5.65" class="F"/><path d="M135.55 434.87l5.36-8.75" class="G"/></g><path d="M139.28,428.75a8,8,0,0,1,1.51-6.44c1.44-2,9.94-7.85,11.52-4.75C154,420.93,146,430,139.28,428.75Z" class="B C E"/><g class="D B C"><path d="M139.28 428.75l8.17-7.82" class="F"/><path d="M130.89 390.22l5.36-8.75" class="G"/></g><path d="M134.62 384.09a8 8 0 0 1 1.51-6.43c1.44-2 9.94-7.86 11.52-4.76 1.72 3.37-6.35 12.41-13.03 11.19z" class="B C E"/><g class="D B C"><path d="M134.62 384.09l8.17-7.81" class="F"/><path d="M128.84 370.59l5.37-8.75" class="G"/></g><path d="M132.57 364.47a8 8 0 0 1 1.51-6.44c1.44-1.95 9.94-7.85 11.52-4.75 1.72 3.37-6.35 12.41-13.03 11.19z" class="B C E"/><g class="D B C"><path d="M132.57 364.47l8.17-7.81" class="F"/><path d="M125.84 341.83l5.36-8.75" class="G"/></g><path d="M129.57 335.7a8 8 0 0 1 1.51-6.44c1.44-1.95 9.94-7.85 11.52-4.75 1.72 3.37-6.35 12.41-13.03 11.19z" class="B C E"/><path d="M129.57 335.7l8.17-7.81" class="B C D F"/><path d="M123.54 323.43a8 8 0 0 1 1.51-6.43c1.44-2 9.94-7.86 11.52-4.76 1.72 3.37-6.35 12.41-13.03 11.19z" class="B C E"/><path d="M123.54 323.43l8.18-7.81" class="B C D F"/><path d="M124 323.77a8 8 0 0 1-6.25-2.18c-1.8-1.63-6.77-10.71-3.52-11.95 3.55-1.36 11.69 7.62 9.77 14.13z" class="B C E"/><g class="D B C"><path d="M124.02 323.77l-6.92-8.95" class="F"/><g class="G"><path d="M164.74 344.81l-13.13 131.24"/><path d="M152.68 465.56l-5.37-8.75"/></g></g><path d="M149 459.44a8 8 0 0 0-1.52-6.44c-1.44-1.95-9.94-7.84-11.52-4.74-1.77 3.37 6.31 12.4 13.04 11.18z" class="B C E"/><g class="D B C"><path d="M148.95 459.44l-7.72-7.41" class="F"/><path d="M156.98 424.15l-5.37-8.75" class="G"/></g><path d="M153.24 418a8 8 0 0 0-1.51-6.44c-1.44-1.95-9.95-7.84-11.52-4.74-1.72 3.4 6.35 12.43 13.03 11.18z" class="B C E"/><g class="D B C"><path d="M153.24 418.03l-7.71-7.4" class="F"/><path d="M155.22 441.12l-5.38-8.75" class="G"/></g><path d="M151.48 435a8 8 0 0 0-1.51-6.44c-1.44-1.95-9.95-7.84-11.53-4.74-1.71 3.37 6.36 12.4 13.04 11.18z" class="B C E"/><g class="D B C"><path d="M151.48 435l-7.72-7.4" class="F"/><path d="M159.84 396.59l-5.37-8.75" class="G"/></g><path d="M156.1 390.47a8 8 0 0 0-1.51-6.44c-1.44-2-10-7.85-11.52-4.75-1.72 3.37 6.35 12.4 13.03 11.19z" class="B C E"/><g class="D B C"><path d="M156.1 390.47l-7.71-7.41" class="F"/><path d="M162.71 368.9l-5.37-8.75" class="G"/></g><path d="M159 362.78a8 8 0 0 0-1.52-6.44c-1.44-1.95-9.94-7.84-11.52-4.74-1.74 3.4 6.34 12.4 13.04 11.18z" class="B C E"/><g class="D B C"><path d="M158.98 362.78l-7.72-7.4" class="F"/><path d="M153.59 455.49l7.05-7.46" class="G"/></g><path d="M158.5 450.27a8 8 0 0 1 2.8-6c1.81-1.62 11.35-5.64 12.26-2.28.98 3.66-8.77 10.84-15.06 8.28z" class="B C E"/><g class="D B C"><path d="M158.5 450.27l9.61-5.96" class="F"/><path d="M158.22 410.84l7.06-7.46" class="G"/></g><path d="M163.13 405.61a8 8 0 0 1 2.81-6c1.81-1.62 11.34-5.63 12.25-2.28.99 3.67-8.77 10.85-15.06 8.28z" class="B C E"/><g class="D B C"><path d="M163.13 405.61l9.61-5.96" class="F"/><path d="M160.26 391.21l7.05-7.46" class="G"/></g><path d="M165.17 386a8 8 0 0 1 2.8-6c1.81-1.62 11.35-5.64 12.26-2.28.98 3.65-8.77 10.83-15.06 8.28z" class="B C E"/><g class="D B C"><path d="M165.17 385.99l9.61-5.96" class="F"/><path d="M163.24 362.44l7.06-7.46" class="G"/></g><path d="M168.15 357.22a8 8 0 0 1 2.81-6c1.81-1.62 11.34-5.64 12.25-2.28.99 3.66-8.77 10.84-15.06 8.28z" class="B C E"/><path d="M168.15 357.22l9.61-5.96" class="B C D F"/><path d="M164.78 344a8 8 0 0 1 2.81-6c1.81-1.62 11.34-5.63 12.25-2.27.99 3.63-8.77 10.81-15.06 8.27z" class="B C E"/><path d="M164.78 343.97l9.61-5.96" class="B C D F"/><path d="M165.18 344.4a8 8 0 0 1-5.66-3.42c-1.43-2-4.42-11.87-1-12.42 3.75-.56 9.87 9.86 6.66 15.84z" class="B C E"/><g class="D B C"><path d="M165.18 344.4l-4.93-10.18" class="F"/><g class="G"><path d="M147 284.05l-.97 192.23"/><path d="M147.15 444.37l-6.25-8.15"/></g></g><path d="M142.8 438.66a8 8 0 0 0-2.17-6.24c-1.63-1.8-10.7-6.78-11.95-3.54-1.36 3.54 7.6 11.68 14.12 9.78z" class="B C E"/><g class="D B C"><path d="M142.8 438.66l-8.44-6.57" class="F"/><path d="M147.15 408.91l-6.25-8.15" class="G"/></g><path d="M142.8 403.2a8 8 0 0 0-2.17-6.24c-1.63-1.8-10.7-6.78-11.95-3.53-1.36 3.57 7.6 11.67 14.12 9.77z" class="B C E"/><g class="D B C"><path d="M142.8 403.2l-8.44-6.57" class="F"/><path d="M147.15 367.28l-6.25-8.15" class="G"/></g><path d="M142.8 361.57a8 8 0 0 0-2.17-6.24c-1.63-1.8-10.7-6.78-11.95-3.53-1.36 3.53 7.6 11.67 14.12 9.77z" class="B C E"/><g class="D B C"><path d="M142.8 361.57l-8.44-6.57" class="F"/><path d="M147.15 339.56l-6.25-8.14" class="G"/></g><path d="M142.8 333.86a8 8 0 0 0-2.17-6.25c-1.63-1.79-10.7-6.77-11.95-3.53-1.36 3.53 7.6 11.68 14.12 9.78z" class="B C E"/><g class="D B C"><path d="M142.8 333.86l-8.44-6.57" class="F"/><path d="M147.15 311.73l-6.25-8.15" class="G"/></g><path d="M142.8 306a8 8 0 0 0-2.17-6.25c-1.63-1.8-10.7-6.78-11.95-3.53-1.36 3.56 7.6 11.71 14.12 9.78z" class="B C E"/><g class="D B C"><path d="M142.8 306.03l-8.44-6.57" class="F"/><path d="M147.01 455.19l6.25-8.14" class="G"/></g><use xlink:href="#C" class="B C E"/><g class="D B C"><path d="M151.36 449.49l8.94-6.92" class="F"/><path d="M147.01 398.8l6.25-8.15" class="G"/></g><use xlink:href="#D" class="B C E"/><g class="D B C"><path d="M151.36 393.1l8.94-6.93" class="F"/><path d="M147.01 370.96l6.25-8.14" class="G"/></g><path d="M151.36 365.26a8 8 0 0 1 2.17-6.25c1.63-1.79 10.7-6.77 11.95-3.53 1.36 3.52-7.61 11.68-14.12 9.78z" class="B C E"/><g class="D B C"><path d="M151.36 365.26l8.94-6.92" class="F"/><path d="M147.01 334.17l6.25-8.14" class="G"/></g><use xlink:href="#C" y="-121.02" class="B C E"/><g class="D B C"><path d="M151.36 328.47l8.94-6.92" class="F"/><path d="M147.01 305.25l6.25-8.15" class="G"/></g><use xlink:href="#D" y="-93.55" class="B C E"/><path d="M151.36 299.55l8.94-6.92" class="B C D F"/><path d="M146.64 286.72a8 8 0 0 1 2.17-6.25c1.63-1.8 10.7-6.77 11.95-3.53 1.36 3.53-7.61 11.68-14.12 9.78z" class="B C E"/><path d="M146.64 286.72l8.94-6.92" class="B C D F"/><path d="M147.07 287.1a8 8 0 0 1-6-2.81c-1.62-1.82-5.62-11.36-2.26-12.26 3.67-.98 10.84 8.79 8.26 15.07z" class="B C E"/><path d="M147.07 287.1l-5.94-9.61" class="B C D F"/><path d="M401.04 476.25l-5.78-66.63H258.41l-7.56 66.63h150.19z" class="B C H"/><path d="M317.22 207.67s-40 11-57.5 24.24-29.6 26.78-26.78 52.43 21.14 95.83 21.14 95.83l-2.54 30.16c0 1.69-.28 6.48 5.92 6.76l97.24 3.67c16.63.28 38.62-1.41 41.15-3.38a11.76 11.76 0 0 0 4.23-8.46l3.1-44.82.28-18.6s18.33-60.88 19.45-80.61-6.2-26.21-14.37-32.41-33.61-16.7-47.35-20.86-43.97-3.95-43.97-3.95z" class="B C E"/><path d="M327.09 302.27l-5.34 86.71c.45 12-4.44 15.55-4.44 20m11.11-124.42l-.91 12.06" class="D B C"/><path d="M346.28 319.82l2.56 30.2 14.33-1.02-16.89-29.18zm-13.58 52.66s35-5.5 37.63-4.92 20.55 9.26 23.16 9.84a24.34 24.34 0 0 1 4.92 1.74l3.93 3.29-1.34-9.95s-5.21-6.37-16.79-11-17.37-2-20-1.15-31.51 12.15-31.51 12.15z" class="H B C"/><path d="M278.88 346.07l91-.29 30.44-3.1c1.12-.29 12.69 2.82 13.82 3.67s1.12 3.38.56 5.92l-.56 2.53a53.38 53.38 0 0 1 .84 6.49c0 2-2.25 2.53-2.54 3.38s1.7 3.94-.56 5.92l-2.25 2s-.29 5.36-1.41 6.77-4.51 3.94-5.92 3.1-.85-3.1-.85-4.51-.56-2.82-2.25-2.82-2 1.41-10.71-.85-18.32-9.86-19.17-10.15-77.23 20.3-99.78 23.12-24.52-.28-25.37-4-2.25-12.4-2.25-12.4l-4-17.19z" fill="#fff" class="B C"/><path d="M338.05 240.71s4.71-5 7.68-2.73 5.69 14.11 9.4 13.12 11.14-24 11.14-33.16-6.44-14.6-7.92-15.1-39.35-1-43.81.75-6.18 17.32-7.91 26.72 2.22 11.63 4.7 10.4 12.12-5.2 14.35-5.2 12.37 5.2 12.37 5.2z" class="B C E"/><g fill="#fff" class="B C"><path d="M363.4 188.54s-3.55 17.54-4.93 21.87-11.43 17.54-14 20.3-10.05 16.35-12 16.75-7.47-18.13-7.47-18.13-7.1-12.22-8.48-15.37-3.52-12.41-3.52-12.41 11.62 10 24 7.88 18.71-14.58 18.71-14.58zm-48.11-34.94s-3.47-3.72-5.45 2 2 15.83 2 15.83z"/><path d="M315.91 142l-5.71 43c0 2.41-1.58 10.24.79 15.37s9.45 11.42 15.17 12.21 16.94-.39 23.25-5.32S363 191.7 363 191.7s7.89-1.19 13-3.35 9.06-7.1 8.87-12.22a17.18 17.18 0 0 0-3.35-9.06l-3-5.52 7.88-14.78s-4.53-8.47-19.11-16.55-27.59-10.64-33.69-10.64-13.8 2.56-16 7.49-1.69 14.93-1.69 14.93z"/></g><path d="M334.63 122.14s11.23 18.52 19.71 17.74 11-4.73 11-4.73l5.71 7.68s-6.1 2.56-4.92 5.72 6.5 10.24 6.5 10.24l-4.34 18.52s3.35.59 3.95-.59 3.54-8.47 3.54-8.47a10.22 10.22 0 0 1 2.56-1.18 7.52 7.52 0 0 1 3.16 0s2.16-7.29 3-7.49 8.67-2.37 11.63-10.05-1.58-19.9-11.83-29.55-31.92-12.22-33.1-14 5.52.78 4.14-3.16-10.05-9.06-21.08-3.54-9.46 11.62-8.28 13.59l1.18 2s-9.26-3.15-15.76.79-9.65 11.82-6.7 12.61 6.7-1 6.7-1-3.94 6.5-2.76 7.88 7.29 6.89 7.29 6.89 2.37-13.79 7.29-15.76 11.41-4.14 11.41-4.14z" class="B C H"/><path d="M331.08 148.74l1.78 5.72-10.05 18.91 10.64 4.14" class="B C D"/><g class="H"><path d="M329.11 146.57s-4.72-3.74-8.67-2.75-1.57 1.57 1.19 2.56 8.27 3.54 7.48.19zm14.59-.78s-4.54 1.18-2.37 2.16 8.67-1 11.23 0 5.91 4.34 5.72 2.76a8 8 0 0 0-5.28-5.91c-3.59-1.18-9.3.99-9.3.99z" class="B C"/><path d="M326.51 155.32c-.35 1.43-1.31 2.42-2.16 2.21s-1.25-1.52-.91-2.95 1.32-2.42 2.16-2.22 1.25 1.53.91 2.96zm21.49 5.62c-.35 1.42-1.32 2.41-2.16 2.21s-1.25-1.53-.91-3 1.31-2.42 2.16-2.21 1.24 1.57.91 3z"/></g><g class="C"><g class="B"><path d="M316.7 179.87l8.08 5.32" class="D"/><g class="E"><path d="M399.8 227.68s27.9 10.72 33.26 26.78-1.41 36.36-4.23 44.82-20.29 41.43-23.11 49.32-7.05 17.48-7.05 17.48-3.94-23.68-14.67-38.33-13.25-27.91-13.25-27.91 19.45-34.39 24.52-45.1"/><path d="M373.73 293.88s5.71-2.85 7.61-1.9 26.33 14 29.5 28.87a50.55 50.55 0 0 1-4.44 33c-2.86 5.4-8.25 15.86-12.37 17.13s-7.62-32.67-16.18-50.43-4.12-26.67-4.12-26.67z"/></g><path d="M383.17 277.57l7.05-23.95" class="D"/><path d="M332.27 216.52s-7.88-11-14-18.32-12.42-11.63-14.58-11-3 2.76-1.58 5.32 7.88 8.28 9.06 9.86 3 7.29 3 7.29-5.71.39-6.7 1.57a26.41 26.41 0 0 0-2.36 4.34 8.37 8.37 0 0 0-3 2.56 7 7 0 0 0-1.18 2.76c-.2.79-3 2.17-2.76 5.71s3.55 8.67 4.73 11 9.85 12.8 11.43 14.58 10.64 17.53 13 22.85 25.22 67 31.92 76.26 19.11 18.12 25.81 21.28 11.43-2.17 14.58-8.87 5.91-20.1-.19-35.47-18.13-28.57-27.39-36.45-26.6-27.58-28.57-31.13-4.49-11.43-4.49-11.43 5.12-15 5.51-18.52-1.57-9.85-1-12.61 2.95-8.28 3.94-10.64 4.33-6.31 2.56-8.08-9.06.39-11.62 4.53a120.38 120.38 0 0 0-6.12 12.61z" fill="#fff"/><g class="E"><path d="M271.37 259.19l1-5.29m-2.79-27.06s-14.94 2-30.44 18.6-8.74 56.09-7.33 64.27 3.67 33.29 3.67 33.29l39.74-13.25-7.05-48.2c-.28-2 .8-9 1.94-15.5"/><path d="M231.53 334.23s3.95 21.14 5.92 22.26 32.69-7.32 36.08-7.89 5.35.28 5.35-2.53-2.82-16.07-4.51-18.32-38.33 2.53-41.43 3.38-1.41 3.1-1.41 3.1z"/></g><path d="M254 317.89a159.92 159.92 0 0 1 20.33 9.86s-9.58-18-13.53-21.71m-12.08 9.87l3.35 1.21m89.09 91.06c7.29-2.6 14-5.46 18-8.28m-52.37 18.32s15.57-3.69 30.35-8.65m35.14-10.84c-7.66 3.82-19.79 9.4-29.7 11.88m37.21-15.78l-4.18 2.21" class="D"/><path d="M116.12 37.14C49.05 69.45 36.33 164.31 78.87 221.33c8.89 11.92 20.51 22 34.28 27.81 47 19.93 84.67-19.7 107.58-56.12 36.58-58.13 41.15-72.5 40.5-62.71s16.33 20.25 26.13-31.31c12.53-66-79.83-81-126.58-74.76a148.06 148.06 0 0 0-44.66 12.9z" class="H"/></g><ellipse cx="273.97" cy="152.85" rx="14.7" ry="8.82" transform="matrix(.484504 -.874789 .874789 .484504 7.52 318.46)" class="H"/><g class="B"><path d="M288.69 158.58c-2.32 4.19-2.16 8.73.35 10.12s6.45-.88 8.77-5.07 2.17-8.73-.35-10.12-6.46.87-8.77 5.07z" class="H"/><path d="M120 31C52.91 63.27 40.19 158.13 82.73 215.15c8.89 11.92 20.52 22 34.28 27.81 47 19.93 84.67-19.7 107.58-56.12 36.58-58.13 41.16-72.5 40.5-62.71s16.33 20.25 26.13-31.35c12.53-66-79.83-81-126.58-74.76A148.06 148.06 0 0 0 120 31zm150.12 111.4c-3.94 7.1-3.67 14.77.59 17.13s10.9-1.49 14.84-8.59 3.66-14.77-.6-17.13-10.9 1.49-14.83 8.59zm22.44 10c-2.33 4.2-2.17 8.73.35 10.12s6.44-.87 8.76-5.07 2.17-8.73-.35-10.12-6.44.87-8.76 5.07z" fill="#fff"/></g></g><g fill="#ccc"><path d="M84.57 102.45V89.24h8a38.14 38.14 0 0 1 1.71-6.42l-6.95-4L94 67.37l7 4a38.64 38.64 0 0 1 4.7-4.7l-4-7 11.44-6.61 4 7a38.14 38.14 0 0 1 6.42-1.71v-8h13.21v8.05a37.19 37.19 0 0 1 6.42 1.7l4-6.95 11.44 6.61-4 7a38.56 38.56 0 0 1 4.69 4.7l7-4 6.6 11.44-7 4a37.19 37.19 0 0 1 1.7 6.42h8v13.21h-8a38.51 38.51 0 0 1-1.71 6.43l6.95 4-6.6 11.44-7-4a37.86 37.86 0 0 1-4.7 4.69l4 7-11.44 6.6-4-7a37.54 37.54 0 0 1-6.43 1.7v8h-13.21v-8a38.14 38.14 0 0 1-6.42-1.71l-4 7L101.6 132l4-7a38.64 38.64 0 0 1-4.7-4.7l-7 4-6.61-11.44 7-4a38.51 38.51 0 0 1-1.71-6.43zm45.53 18a24.62 24.62 0 1 0-24.62-24.61 24.61 24.61 0 0 0 24.62 24.63z"/><path d="M103.31 180.08v-10.73h6.54a31.44 31.44 0 0 1 1.39-5.23l-5.65-3.26 5.37-9.3 5.67 3.27a30.63 30.63 0 0 1 3.82-3.82l-3.27-5.66 9.3-5.37 3.26 5.66a30.63 30.63 0 0 1 5.22-1.39v-6.54h10.74v6.54a31.07 31.07 0 0 1 5.22 1.39l3.27-5.65 9.3 5.37-3.27 5.64a31.33 31.33 0 0 1 3.82 3.82l5.66-3.27 5.37 9.3-5.66 3.27a31.32 31.32 0 0 1 1.39 5.22h6.54v10.76h-6.54a31.07 31.07 0 0 1-1.39 5.22l5.65 3.26-5.37 9.31-5.69-3.28a31.33 31.33 0 0 1-3.82 3.82l3.26 5.66-9.3 5.37-3.26-5.65a31.32 31.32 0 0 1-5.22 1.39v6.53H135v-6.54a29.27 29.27 0 0 1-5.22-1.39l-3.27 5.66-9.3-5.37 3.27-5.67a31.24 31.24 0 0 1-3.81-3.82l-5.67 3.27-5.37-9.3 5.66-3.26a31.44 31.44 0 0 1-1.39-5.23zm37 14.65a20 20 0 1 0-20-20 20 20 0 0 0 20.02 20z"/><path d="M171.55 155.54v-8.18h5a23.09 23.09 0 0 1 1.06-4l-4.31-2.49 4.09-7.08 4.32 2.49a23.53 23.53 0 0 1 2.91-2.91l-2.49-4.31 7.08-4.09 2.49 4.31a23.09 23.09 0 0 1 4-1.06v-5h8.18v5a23.66 23.66 0 0 1 4 1.06l2.49-4.3 7.08 4.09-2.49 4.31a23.53 23.53 0 0 1 2.91 2.91l4.31-2.49 4.09 7.08-4.3 2.49a24 24 0 0 1 1 4h5v8.18h-5a23.09 23.09 0 0 1-1.06 4l4.29 2.45-4.09 7.09-4.32-2.49a23.45 23.45 0 0 1-2.91 2.9l2.49 4.32-7.08 4.09-2.49-4.31a24 24 0 0 1-4 1.06v5h-8.18v-5a23.64 23.64 0 0 1-4-1l-2.49 4.3-7.08-4.09 2.49-4.31a24.24 24.24 0 0 1-2.91-2.91l-4.31 2.49-4.04-7.14 4.3-2.48a24 24 0 0 1-1.05-4zm28.19 11.15a15.24 15.24 0 1 0-15.24-15.24 15.24 15.24 0 0 0 15.24 15.24zm.94-86.82v-8.18h5a24 24 0 0 1 1.06-4l-4.3-2.48 4.09-7.09 4.31 2.49a25 25 0 0 1 2.91-2.91l-2.49-4.31 7.09-4.09 2.48 4.31a23.09 23.09 0 0 1 4-1.06v-5H233v5a24 24 0 0 1 4 1.06l2.48-4.3 7.09 4.09-2.57 4.33a24.15 24.15 0 0 1 2.9 2.91l4.32-2.49 4.09 7.09-4.31 2.48a24 24 0 0 1 1.06 4h5v8.18h-5a24 24 0 0 1-1.05 4l4.3 2.48-4.09 7.09-4.31-2.49a24.15 24.15 0 0 1-2.91 2.9l2.49 4.32-7.09 4.09-2.48-4.31A24 24 0 0 1 233 99v5h-8.18v-5a24 24 0 0 1-4-1l-2.48 4.3-7.09-4.09 2.49-4.31a25 25 0 0 1-2.91-2.91l-4.31 2.49-4.09-7.09 4.31-2.48a23.09 23.09 0 0 1-1.06-4zM228.87 91a15.25 15.25 0 1 0-15.24-15.25A15.25 15.25 0 0 0 228.87 91z"/></g><defs ><path id="B" d="M437.4,314.93s51.09-57.42,34.85-157.33-99.67-136.72-155-117.49-67.81,52.7-113,71.84-131.06,6-174,70.29,11.88,170.82,81.67,237.62S359.8,444.84,437.4,314.93Z"/><path id="C" d="M151.36 449.49a8 8 0 0 1 2.17-6.25c1.63-1.79 10.7-6.77 11.95-3.53 1.36 3.53-7.61 11.68-14.12 9.78z"/><path id="D" d="M151.36 393.1a8 8 0 0 1 2.17-6.25c1.63-1.8 10.7-6.78 11.95-3.53 1.36 3.53-7.61 11.68-14.12 9.78z"/></defs></svg>