<svg xmlns="http://www.w3.org/2000/svg" xmlns:xlink="http://www.w3.org/1999/xlink" viewBox="0 0 500 500" xmlns:v="https://vecta.io/nano"><style><![CDATA[.B{fill:#c7c7c7}.C{fill:#dbdbdb}.D{opacity:.4}.E{fill:#263238}.F{fill:#eb9481}.G{fill:#fff}.H{fill:#ebebeb}.I{fill:#f52f39}]]></style><path d="M392.73 413.14c-.2.59-33.76-14.5-28.42-44.37 1.81-14.8 5.56-32.5 14.63-48 13.43-15.14 41.49-52.56 55.22-55.72 16.7-2 26.72 56.77 14.06 76.33-9.69 20.1-52.9 28.13-59.64 36.6-11.58 17.67 3.56 35.22 4.15 35.16z" class="H"/><path d="M431 318.12c.63 2.37 2.48 2.68 4.08.62a9.83 9.83 0 0 0 1.51-8c-.75-2.37-2.53-2.57-4-.52a10.64 10.64 0 0 0-1.59 7.9zm-16.62 12.06c.38 2.35 2.31 2.78 4.24.89a9.33 9.33 0 0 0 2.48-7.72c-.53-2.35-2.35-2.66-4.14-.78a10.18 10.18 0 0 0-2.58 7.61zm-19.3 10.49c.1 2.33 2.14 2.91 4.46 1.21s3.92-5 3.66-7.35-2.16-2.77-4.32-1.08-3.88 4.89-3.8 7.22z" class="G"/><path d="M98.1 349.08c.56-.14 5-17.48 6.8-39.56 1.22-14 7.2-31.12 12.85-51 7.34-21.38-7.38-60-36.25-55.12-13.64 2.42-26.91 20-32.09 38.36-5.73 18.49-3.35 37.72 1.52 46.75 10.59 18.33 38.71 23.16 41.35 31.69 5.6 16.69 6.05 28.73 5.82 28.88z" class="H"/><path d="M89.76 276.37c-.51 2.7.31 5.24 1.7 5.72s2.81-1.25 3.33-3.88-.07-5.21-1.47-5.75-3.05 1.22-3.56 3.91zM78.4 265.89c-.6 2.84.2 5.55 1.64 6.08s3-1.28 3.62-4.06 0-5.54-1.42-6.13-3.24 1.28-3.84 4.11zm-11.95-10.98c-.63 3 .2 5.77 1.72 6.32s3.19-1.34 3.83-4.23.06-5.79-1.51-6.38-3.41 1.38-4.04 4.29z" class="G"/><path d="M202.58 164.31s-5.75-8.11-7.69-21.15c-1.18-8.06-1.55-22.36.45-32.78 2-11.73 19.76-24.9 27.49-22.27 7.56 2.56 5.61 24.34.73 33.24S203.37 133 201.45 144c-1.75 9.74 1.12 20.31 1.13 20.31z" class="H"/><path d="M217.54 109.58c.22 1.66 1.15 2.22 2.08 1.25a6.59 6.59 0 0 0 1.33-4.75c-.21-1.66-1.15-2.22-2.1-1.26a6.51 6.51 0 0 0-1.31 4.76zm-8.54 5.11c.24 1.66 1.16 2.21 2.07 1.22a6.6 6.6 0 0 0 1.23-4.78c-.22-1.66-1.16-2.21-2.08-1.23a6.53 6.53 0 0 0-1.22 4.79zm-8.36 5.21c.25 1.66 1.17 2.2 2.06 1.21a6.68 6.68 0 0 0 1.16-4.81c-.25-1.66-1.18-2.2-2.08-1.21a6.61 6.61 0 0 0-1.14 4.81z" class="G"/><g class="H"><path d="M252.14 332.23c-39.32 0-61.35-19.25-73-35.6-13.72-19.31-17.35-39.84-17.54-45.52a115.22 115.22 0 0 1 7.19-43.67c7.88-20.52 26-46.05 67.56-51.17 28.05-3.46 51.56 2.86 69.86 18.76 23.19 20.15 32.25 51.37 32.51 66.32s-2.58 89.18-84.1 90.86zm-1.28-175.88a116.52 116.52 0 0 0-14.34.91c-41.08 5.06-59 30.28-66.75 50.54a113.89 113.89 0 0 0-7.13 43.25h0c.23 7 4.78 27.28 17.35 45 11.48 16.16 33.26 35.18 72.15 35.18h2.5c80.57-1.66 83.38-75.13 83.12-89.84s-9.22-45.65-32.16-65.58c-14.88-12.95-33.24-19.46-54.74-19.46z"/><path d="M305.54 178.41s61.84 54.05 13.72 115.68-112.93 26.22-127.86 11.81c-15.33-14.81-56.49-65.29-4.62-119.33s110.53-15.86 118.76-8.16z"/><path d="M254.39 334.16c-36.44 0-58.5-17.21-70.6-31.68a95.9 95.9 0 0 1-17.74-31.85c-.2-.68-11.73-41.88 8.22-75.72 12-20.35 32.78-34 61.77-40.57 27.66-6.26 50.69-2.75 68.43 10.45 32.33 24.06 35.94 71.44 36.08 73.45 0 .41 1.61 43.4-24.52 71.74-14.73 16-35.34 24.1-61.28 24.18zm6.81-181.83a113.32 113.32 0 0 0-24.94 3c-28.71 6.5-49.27 20-61.12 40.09-19.8 33.57-8.25 74.53-8.13 74.94h0a95.09 95.09 0 0 0 17.57 31.51c12 14.29 33.78 31.29 69.82 31.29h.34c25.13-.08 45.2-7.79 59.66-22.91 26.66-27.88 25.17-71.52 25.15-71.95-.13-2-3.71-48.92-35.67-72.7-11.88-8.84-26.17-13.27-42.68-13.27z"/><path d="M240.78 333.3c-11.39 0-23.21-1.81-34.22-6.8-20.54-9.3-34.84-27.95-42.49-55.42-8.68-31.16-6.53-57.14 6.37-77.23 19.05-29.67 56.28-37.65 67.23-39.39l.57-.09c.17-.1 40.16-3.28 70.63 16.13 21.93 14 32.65 35.82 31.86 64.95-1 35.08-12.36 56.27-21.76 67.88-10 12.38-20 16.79-20.46 17-.7.31-27.67 12.97-57.73 12.97zm-2.26-178a4.43 4.43 0 0 1-.69.13c-10.85 1.72-47.72 9.62-66.55 38.94-12.74 19.84-14.84 45.55-6.25 76.42 7.57 27.17 21.68 45.6 41.94 54.78 10.87 4.92 22.57 6.72 33.82 6.72 30 0 56.93-12.73 57.3-12.91h0c.1 0 10.07-4.32 20.12-16.75 9.29-11.47 20.56-32.45 21.5-67.22.68-24.9-7.21-44.49-23.43-58.23-29.86-25.29-76.66-21.99-77.76-21.86z"/><path d="M252 335a88.31 88.31 0 0 1-57.67-21.42c-17.88-15.13-27.9-34.74-28.26-43.09h1c.35 8.16 10.24 27.42 27.9 42.36 13.63 11.53 36.64 24.44 68.86 20.45 61.94-7.68 69.85-58.63 75.62-95.84l.33-2.08c2.94-18.91-9.57-44.11-30.42-61.28-15.11-12.44-47.13-30.91-91.81-14.72-38.26 13.86-50.13 42.61-53.34 64.29A118.92 118.92 0 0 0 166.4 268l-1 .27a120.06 120.06 0 0 1-2.26-44.68c3.24-22 15.25-51.09 54-65.12 45.15-16.36 77.51 2.31 92.79 14.89 21.11 17.38 33.76 43 30.76 62.2l-.32 2.09c-5.82 37.52-13.8 88.9-76.49 96.67A97.54 97.54 0 0 1 252 335z"/></g><g class="E"><path d="M52.32 451.09h395.36H52.32zm138.3-296.71s-16.44-8.95-31.05 0-21.56 31-19 49.56-12.87 30.75-14.57 44.51 7.51 20.13 10.59 27.35c3.52 8.27-10.59 37.63 25.32 44.44 44.91 8.52 62.09-18.7 57.51-41.21-2.25-11-8.54-18.85-8.42-27.77s6.51-16 3.17-27.34-7.75-9.77-9.58-27.53 1.93-38.99-13.97-42.01z"/><path d="M162.68 154a55 55 0 0 0-21.23 25.18 49.94 49.94 0 0 0-3.81 16.11c-.46 7.24.66 14-2.07 21-4.38 11.25-13.13 20.63-12.71 33.16a30.69 30.69 0 0 0 5.4 16.35c3.88 5.66 9.41 10.13 12.65 16.19.14.25.53 0 .41-.22-2.71-5.39-7.1-9.5-10.75-14.33a31.24 31.24 0 0 1-6.64-19.69c.35-11.91 9-21.07 13-31.92 1.83-4.92 1.94-9.68 1.78-14.83a53.14 53.14 0 0 1 2.33-17.91c3.67-11.56 11.5-21.54 21.75-29 .11-.09-.02-.19-.11-.09zm-18.9 135.23a0 0 0 0 0 0 .08 0 0 0 1 0 0-.08zm75.51-13.39c-1.13-5.32-3.95-10.15-5.08-15.45-1.35-6.39.28-12.76 1.52-19 1.76-9 1.56-17.4-2.44-25.83-2.59-5.44-5.75-10.54-7.68-16.27a66.56 66.56 0 0 1-3.43-19.29c0-.14-.23-.14-.23 0a60.46 60.46 0 0 0 6 27.43c2.44 5 5.49 9.76 6.9 15.19 1.69 6.53 1 12.84-.13 19.38-.77 4.37-1.7 8.79-1.66 13.23 0 4.63 1.51 8.72 3.17 13a45.18 45.18 0 0 1-.2 33.77c-.07.19.27.32.36.13a43 43 0 0 0 2.9-26.29z"/><path d="M124.84 246.86c.4-9.81 7.33-16.47 11.54-25 3.18-6.43 5.34-13.29 4.29-20.37 0-.12-.23-.09-.22 0 .54 10.25-3.83 19.54-9.58 28.12-3.83 5.7-7 11.19-7 18.05s2.69 12.4 6.58 18c2.77 4 5.5 7.67 6.67 12.36s.9 9.56.67 14.3c0 .25.4.24.42 0 .66-7.35.77-14.47-3-21.18-4.62-8.23-10.78-14.31-10.37-24.28zM221 268.88a61.11 61.11 0 0 0-5.72-9.5c-3.81-5.51-4.44-10-3.18-16.54a.13.13 0 0 0-.25-.06c-1.82 5.39-2.26 9.88 1 14.84 4.53 6.94 9 13.26 9.9 21.53 1.65 14.69-6.77 28.39-20.42 35.83-.19.1 0 .37.18.27 11.45-5.56 19.48-15.61 21.15-27.48a34.62 34.62 0 0 0-2.66-18.89z"/></g><path d="M171.55 227.46c23.76-8 72.26-12.85 95.63-10.25 15.88 1.79 17.82 10.89 16.74 16.87-2.44 13.49-39.39 21.94-55.66 21.65a304.17 304.17 0 0 1-57-6.35c-14.54-3.02-9.91-18.5.29-21.92z" class="F"/><path d="M232.86 215.67L213.18 263s-32-6.59-49.77-15.64c-13.59-6.9-10.73-15-1.16-18.32 31.92-10.97 70.61-13.37 70.61-13.37z" class="I"/><path d="M226.16 223.57l2 3.43-1.08 2.6-5.71-1.78-6.37 8.77-1.24-10.7-7.76-2.49 7.07-3.45-.32-2.16 4-.53.44.25.24-.33 5.4-.62.76 2.8 6.53-.52zm-53.95 11.58l1.81-3-3.4.3-1.18-2.8-1.81 3-3-.73 1.79 2.59-2.26 2.2 3.59-.33 2 3.71.82-3.46 2.71 1zm27.79 8.38l.08-2.08-1.68 1.11-1.4-1.12-.08 2.1-1.75.46 1.66.84-.55 1.77 1.76-1.18 2.08 1.36-.55-2 1.68-.25zm-4.75 9.17l-6.35 1.8-3.08-4.81-.9 5.79h-.41l8.89 2.62-.14-.11z" class="G"/><path d="M206.19 258.1c2.51-7.49 9.92-27.63 16.45-40.08 0-.08.34 0 .31.12-3.87 11.18-13.16 32.88-16.31 40.13-.06.14-.5-.03-.45-.17z" class="E"/><path d="M163.41 247.32c17.83 9 49.77 15.63 49.77 15.63l12.12-29.13-71.13 2.67c-.4 3.4 2.24 7.27 9.24 10.83z" opacity=".1"/><path d="M199.19 310.66L206 339.2H100.13s18.13-79.36 36.53-101.84c12.45-15.21 24.52-15.22 35.05-5.72 2.67 2.41 28.86 35 32.91 49.94 3.54 13.22-5.43 29.08-5.43 29.08z" class="F"/><path d="M102 323.41l79.73-8 21.38 4.49-3.93-9.28s9-15.86 5.43-29.08c-4.05-15-30.25-47.52-32.9-49.94-10.55-9.51-22.62-9.49-35.05 5.72-12.76 15.62-29.18 61.18-34.66 86.09z" class="I"/><path d="M130.49 313.51l-8.87-2.76-6.35 8.77-1.27-10.7-7.55-2.43a1.27 1.27 0 0 0 .06-.18l6.83-3.33-.77-5.23 4.93 2.79 4.29-5.93 2.1 7.78 6.54-.52-4 4.73zm42.79-80.16l-1-1.09-1.7.15-1.09-2.58a.79.79 0 0 0-.15-.12l-1.75 2.95-3-.73 1.79 2.59-2.26 2.2 3.59-.33 2 3.71.82-3.46 2.71 1-1.07-2.48zm-10.16 71.53l1.56-1.39-2-.42-.17-1.79-1.57 1.4-1.55-.94.55 1.77-1.65.84 2.07.45.47 2.44 1.07-1.8 1.35 1zm-32.47-25.33l.08-2.08-1.67 1.11-1.41-1.12-.08 2.09-1.75.47 1.66.84-.55 1.77 1.77-1.18 2.07 1.36-.55-2 1.68-.26zm61.52 5.92l.08-2.08-1.67 1.11-1.41-1.12-.08 2.1-1.75.46 1.66.84-.55 1.77 1.77-1.18 2.07 1.36-.55-2 1.68-.26zm-45.28-35.87l3-5.83-6.25.94-2.49-5.07-3 5.86-5.61-1 3.61 4.61-3.95 4.31 6.61-1 4.1 6.65 1.13-6.5 5.13 1.53zm42.5 4.77l-.45.13-3.08-4.81-.9 5.79-5.85.06 5.24 4.15-2 7.53 5.52-3.61 2.39 4.79 1.73-4.71 3.12-.88-5.72-8.44zm-30.09 24.4l4.37.9-1.77-3.93 2.86-2.57-4.4-.9-.36-3.87-2.35 3.22-3.55-1.79L156 274l-3.6 3.91 4.47-.45-.05 3.64zm37.8 24.12l4.38.9-1.77-3.93 2.85-2.57-4.4-.9-.36-3.87-2.35 3.22-3.56-1.74 1.87 4.15-3.59 3.85 4.46-.46v3.64z" class="G"/><path d="M163.23 305.14a114.18 114.18 0 0 1 16.62 1.38l8.09 1.71 4 .88a18.1 18.1 0 0 0 4.28.45.1.1 0 0 1 0 .2 29.31 29.31 0 0 1-4.08.25 28.79 28.79 0 0 1-3.93-.42l-8.28-1.5c-5.58-1-11.15-1.93-16.79-2.49-.2-.02-.14-.46.09-.46zm-13.23 6a122.91 122.91 0 0 1 13.64-1.77l6.87-.14 3.29.11 3.61.31a.1.1 0 1 1 0 .19c-1.13 0-2.28.19-3.41.25l-3.43.19-6.85.39c-4.58.21-9.14.47-13.71.84-.25.02-.26-.33-.01-.37zm31.74 10.17c-2.13 1.45-2.64 4.41-2.27 6.79.12.59.4 1.09.86 1.14 1.16.08 1.22-1.87 1.12-2.76a3.79 3.79 0 0 0-.58-1.81 4.11 4.11 0 0 1 .54 4.82 1.44 1.44 0 0 1-2.23-.19 5 5 0 0 1-.53-3.09c.11-1.95 1.15-4.22 3.09-4.9z" class="E"/><path d="M153.29 228c-.3 3 2.74 17.71 11.45 19.88 4.47 1.11 9-14.4 9-14.4l.55-1.08 7.6-15.11-18.09-19.08L153.29 228z" class="F"/><path d="M159.91 209a34 34 0 0 0 14.36 23.4l7.61-15.12-18.1-19.09-3.87 10.81z" class="E"/><path d="M211.29 199.17c-5.61 29.17-23.71 29.1-30 27.89-5.71-1.11-25-5.59-22.44-35.17s17.89-36.2 31.07-34.37 26.97 12.48 21.37 41.65z" class="F"/><g class="E"><path d="M160.68 191.55c5.1 2.28 10.14-9.47 10.14-9.47s23.77 3 31.26-14.81c0 0 .32 12.91 10.55 21.81 0 0 5.33-20.42-9.48-29.19 0 0-17.67-13.24-33.6-.86s-12.29 30.97-8.87 32.52z"/><path d="M202.57 165.94A20.8 20.8 0 0 1 199 174a21.72 21.72 0 0 1-6.52 6.14 18.09 18.09 0 0 1-2 1.07l-1 .5-1.06.39-2.14.71c-.72.21-1.46.31-2.19.45l-1.1.2-1.11.08-2.22.16c-1.48 0-3-.14-4.42-.27l4.37-.38 2.15-.34 1.07-.17c.35-.08.7-.19 1-.29l2.08-.56c.69-.17 1.34-.52 2-.77l1-.39 1-.49a17.8 17.8 0 0 0 1.87-1 24.88 24.88 0 0 0 6.4-5.62 26.5 26.5 0 0 0 2.46-3.56 24.93 24.93 0 0 0 1.93-3.92z"/></g><path d="M164.36,191.5s-3.71-10.68-8.39-9.61-3.65,15.34.6,18.45a5,5,0,0,0,7.21-.76Z" class="F"/><path d="M156.37 186a.07.07 0 0 0-.06.12c2.95 2.3 3.82 5.88 4.14 9.43-.64-1.51-1.79-2.57-3.78-1.86-.1 0-.06.2 0 .21a3.09 3.09 0 0 1 3 2 15 15 0 0 1 .81 3.09c.07.34.66.34.64 0a.19.19 0 0 0 0-.08c1.3-4.34-.31-11.22-4.75-12.91z" class="E"/><path d="M157.41,199.43a1.28,1.28,0,1,0,2.55,0,1.28,1.28,0,0,0-2.55,0Z" fill="#455a64"/><path d="M158.08 199.44a.61.61 0 1 0 .61-.59.6.6 0 0 0-.61.59z" class="E"/><path d="M155.69 197.33a.9.9 0 1 0 .91-.89.89.89 0 0 0-.91.89z" fill="#455a64"/><g class="E"><path d="M209.92 193.38a19.85 19.85 0 0 0-1.57-1.34 3.39 3.39 0 0 0-1.86-1 1.08 1.08 0 0 0-1 .8 2.64 2.64 0 0 0 1.11 2.42 3.85 3.85 0 0 0 2.56 1.08 1.13 1.13 0 0 0 .76-1.96zm-21.82-4.79a19.93 19.93 0 0 1 2-.42 3.41 3.41 0 0 1 2.14 0 1.06 1.06 0 0 1 .52 1.19 2.62 2.62 0 0 1-2.13 1.6 3.85 3.85 0 0 1-2.77-.27 1.13 1.13 0 0 1 .24-2.1zm-5.51 22.5c.26.63.46 1.42 1.12 1.76a5.35 5.35 0 0 0 2.21.36.07.07 0 0 1 0 .13 2.71 2.71 0 0 1-2.8 0 2.16 2.16 0 0 1-.79-2.27c.06-.07.22-.07.26.02zm5.34-2.6a18.59 18.59 0 0 1 7.42 1.87c.23 0 .78 0 .87-.21h0c0-.07.91-4.15.91-4.15.47.4 2.93 2.35 3.08 1.56 1.23-6.53 2.6-13.78 2.45-20.53a.18.18 0 0 0-.36 0c-1.43 6.22-1.76 12.65-3.1 18.93a11.85 11.85 0 0 0-2.87-1.72c-.22 0-.74 4.45-1 5.1a11.39 11.39 0 0 0-7.58-1.22c-.98.11-1.13.33.18.37z"/><path d="M190.75 212.12c1 0 3.69-3 2.27-3.75s-5.25-1.15-7.36.61c-1.86 1.54 3.1 1.76 3.7 2.32s.64.8 1.39.82z"/></g><path d="M189.36 211.31l.29.27c.48-1.11.14-2.77-1.91-3.62a5.25 5.25 0 0 0-2.08 1c-1.85 1.56 3.1 1.78 3.7 2.35z" fill="#ff9abb"/><g class="E"><path d="M191 195.09c0-.08-.17.07-.18.16-.26 2-.9 4.3-2.83 4.68-.06 0-.07.11 0 .11 2.28.05 3.1-2.99 3.01-4.95zm-3.85-1.51a5.5 5.5 0 0 0-.16 1.13 3.07 3.07 0 0 1-.6.68 1.55 1.55 0 0 1-1.64.34c-1.15-.47-1.29-1.85-1-3.07 0-.09.09-.12.12 0 .31.77.7 1.57 1.42 1.66s1.24-.44 1.83-.68h.05z"/><path d="M190.72 197.29a3.14 3.14 0 0 1-.93 1.37 2.24 2.24 0 0 1-1.74.44 2 2 0 0 1-1.44-1.1 3.54 3.54 0 0 1-.33-1.6 6.25 6.25 0 0 1 .1-1 4.47 4.47 0 0 1 .77-1.88A6.77 6.77 0 0 0 187 195a8.3 8.3 0 0 0 .06 1.33c.13.9.51 1.7 1.2 1.78s1.34-.35 1.78-1.16a13.88 13.88 0 0 0 1-2.65 6.45 6.45 0 0 1-.32 2.99zm12.28.33c0-.07.13.13.11.21-.49 2-.73 4.33.94 5.39.05 0 0 .13 0 .1-2.19-.78-1.85-3.9-1.05-5.7zm4.13-.01a6.05 6.05 0 0 1-.25 1.12 3.16 3.16 0 0 0 .3.85 1.57 1.57 0 0 0 1.41.91c1.24 0 1.87-1.25 2.06-2.49 0-.09 0-.14-.09-.09-.57.6-1.22 1.21-1.92 1s-1-.86-1.46-1.3z"/><path d="M202.46 199.77a3.17 3.17 0 0 0 .36 1.61 2.25 2.25 0 0 0 1.46 1.05 2 2 0 0 0 1.75-.5 3.68 3.68 0 0 0 .89-1.37 7.85 7.85 0 0 0 .26-.95 4.44 4.44 0 0 0 0-2 6.67 6.67 0 0 1-.37 1.43 9.64 9.64 0 0 1-.55 1.22c-.44.79-1.08 1.4-1.75 1.22s-1.13-.82-1.24-1.73a14.22 14.22 0 0 1 0-2.84 6.42 6.42 0 0 0-.81 2.86z"/></g><use xlink:href="#B" class="F"/><path d="M412.05 449.52c-4.2 1.42-124.73 1.44-129.32-1.47C281 447 280 429.9 279.33 409v-.85c0-1-.71-4.84-1.76-10.2h77.14L357 408l37 17.05c6.89 3.33 12.38 6.13 13.87 7.3 4.65 3.65 8.37 15.78 4.18 17.17z" class="H"/><path d="M369 450.45c-36.53.08-83.42-.61-86.25-2.4C281 447 280 429.9 279.33 409v-.85c-.12-4.59-13.72-67.11-13.72-67.11l63.19-.34z" opacity=".1"/><path d="M413.41 450.2c-4.29 1.44-127 1.3-131.67-1.67-1.79-1.1-2.81-19-3.43-40.63v-.68l79.17-.79v1.34s46.95 21.07 51.74 24.88 8.48 16.13 4.19 17.55z" class="I"/><g class="E"><path d="M412 445.44c-20.69-.53-104.17-.72-124.66.32-.17 0-.17.13 0 .13 20.49 1 104 .49 124.66-.11.46-.01.47-.33 0-.34zm-45.72-38.78c-8.13-1.52-18.09-.29-24.32 5.51-.24.22.08.56.35.48a114.72 114.72 0 0 1 23.94-5 .52.52 0 0 0 .03-.99zm5.88 3.55c-8.14-1.53-18.1-.29-24.33 5.5-.24.23.08.57.35.49a114.08 114.08 0 0 1 23.94-5 .52.52 0 0 0 .04-.99zm5.84 3.55c-8.14-1.53-18.1-.29-24.32 5.5-.25.23.08.57.34.48a114.19 114.19 0 0 1 23.98-4.95.52.52 0 0 0 0-1.03z"/><path d="M376.89 388.92c-3.19-4.41-9.15-2.43-12.55.42A43.38 43.38 0 0 0 351.78 408a.21.21 0 0 0 .19.29 1 1 0 0 0 1.28 1c6.72-2.48 14.22-4.3 20-8.77 3.34-2.62 6.66-7.43 3.64-11.6zm-14.22 14.52c-3.28 1.3-6.6 2.43-9.83 3.85a128.79 128.79 0 0 1 7.58-10.72 46.38 46.38 0 0 1 4.32-4.66c2.42-2.2 12-6.88 10.57 2-.8 4.98-8.73 7.98-12.64 9.53z"/><path d="M331.09 405.82c6.71 2.87 14.42 2.73 21.55 3.43.74.08 1.11-.7 1-1.3a.22.22 0 0 0 .11-.34 43.48 43.48 0 0 0-16.86-14.85c-4-1.9-10.28-2.3-12.25 2.78-1.89 4.8 2.54 8.61 6.45 10.28zm-3.67-5.82c-3.65-8.27 6.81-6.17 9.71-4.65a45.38 45.38 0 0 1 5.36 3.41 130.77 130.77 0 0 1 10 8.45c-3.48-.56-7-.81-10.48-1.24-4.14-.5-12.57-1.39-14.59-5.97z"/><use xlink:href="#C"/></g><path d="M294.07 428.53c-8.88 0-8.89 13.8 0 13.8s8.93-13.8 0-13.8z" class="G"/><path d="M415.08 448.13a2.65 2.65 0 0 1-1.67 2.07c-4.28 1.44-127 1.3-131.66-1.67-1.8-1.11-2.83-19-3.43-40.63v-.68l75.52-.75z" opacity=".1"/><path d="M119.05,339.16s-14.18,48.06-6.63,71.11c5.67,17.32,24.75,29.35,39.48,36.71,9.12,4.56,66.23,7.17,81.24-5.07,20.94-17.07,54-109.55,54-112.23,0-10.39-31.73-29.93-31.73-29.93s-.18,27.92,2,39.78c2.45,13.17,16.15,53.9,16.15,53.9l81.31-.32s-14.55-89.54-39.25-143.64c-5.37-11.76-22.06-17.9-35.91-17.46a40.65,40.65,0,0,0-28.57,13.27C231.64,266.52,190,337.64,190,337.64Z" fill="#37474f"/><g class="E"><path d="M269.27 379.25c-1.81-7.3-7.11-23.23-11.56-45.5-1.71-8.55-3-19.49-4.33-29.93-.64-5-1.6-19.16-2.52-24.35a.2.2 0 1 0-.39 0c.07 5.18 1.09 16.51 1.46 21.06l.53 5.89c-.16-.43-3.9-9.62-5.1-13.68a.194.194 0 1 0-.37.12c1.71 6.28 5 16.92 5.85 17.92.54 5.77 1.49 16.78 2.59 22.47 3 15.52 10.55 41.9 13.17 46.63.25.48.8-.1.67-.63zm41.43-.88c-10.89-.12-23.54-.35-32.65-1-.2 0-.24-.33 0-.33 9.06-.28 21.67-.49 32.53-.36s21.75.68 32.64 1.06c.28 0 .33.44 0 .44l-32.52.19zM190 337.64a98.05 98.05 0 0 1-9.71 16.36 58.17 58.17 0 0 1-12.35 8.35c2.89-2.88 6.34-5.69 9.44-8.32a11.9 11.9 0 0 0 2.6-2.93c3.2-4.54 6.39-9.15 10.05-13.44z"/><path d="M171 355.42a22.68 22.68 0 0 1 9.14-2.89 22.57 22.57 0 0 1-9.14 2.89zm-40.83-13.11c-.87 7-1.61 14.08-2.08 21.14-.21 4.39-.63 8.85.1 13.2 1.65 5.08 11.35 6.49 16 7.23a64.42 64.42 0 0 0 15.82.17c1.73-.28 3.47-.22 4.67-1.67 11.51-13.38 20.4-28.89 30.25-43.51 15.53-23.69 30.3-47.94 47.47-70.51a64.08 64.08 0 0 1 5.27-6c1.33-1.32 3.07-2.74 5.06-1.62a19.29 19.29 0 0 1 6 5.38c1 1.44 2.39 2.91 2.75 4.7 1.74 19.38 1 39 4.18 58.24 3 13.82 6.79 27.5 10.5 41.15q-2.93-10.2-5.73-20.46c-2.67-10.26-5.9-20.51-6.67-31.14-1-10.59-1.45-21.21-2-31.82-.36-5.46-.3-11-1.14-16.43-1.92-3.52-4.71-7-8.25-8.92a2.35 2.35 0 0 0-2.21-.09c-2.84 1.87-5 4.92-7.17 7.55-19.76 26.39-40.56 60.83-59.11 88.19-3.94 5.88-7.91 11.76-12.09 17.49a75.72 75.72 0 0 1-6.73 8.27 4.16 4.16 0 0 1-2.39 1.41c-9 1.65-26.5 1-33.54-5.14-1.4-1.26-1.62-3.24-1.67-5a94.3 94.3 0 0 1 .33-10.63c.55-7.06 1.37-14.1 2.32-21.12z"/></g><path d="M346.93 393.14l-73.32.29-4.5-13.69c-10.38 25.37-25.49 53.62-36 62.18-15 12.22-72.11 9.62-81.23 5.06-14.73-7.36-33.81-19.4-39.48-36.72-7.54-23 6.63-71.1 6.63-71.1l71-1.52s41.61-71.12 61.15-92.35A40.57 40.57 0 0 1 279.75 232a49.17 49.17 0 0 1 15 1.93z" opacity=".1"/><use xlink:href="#B" x="-18.91" class="F"/><path d="M393.14 449.52c-4.22 1.42-124.73 1.44-129.32-1.47-1.72-1.07-2.76-18.15-3.4-39v-.85c0-1-.73-4.91-1.79-10.34h77.13l2.33 10.14 37 17.05c6.9 3.33 12.39 6.13 13.87 7.3 4.65 3.65 8.37 15.78 4.18 17.17z" class="H"/><path d="M394.5 450.2c-4.29 1.44-127 1.3-131.67-1.67-1.79-1.1-2.82-19-3.43-40.63v-.68l79.17-.79v1.34s47 21.07 51.73 24.88 8.49 16.13 4.2 17.55z" class="I"/><g class="E"><path d="M393.11 445.44c-20.68-.53-104.16-.72-124.65.32-.17 0-.17.13 0 .13 20.49 1 104 .49 124.66-.11.43-.01.43-.33-.01-.34zm-45.74-38.78c-8.14-1.52-18.09-.29-24.32 5.51-.24.22.08.56.34.48a114.94 114.94 0 0 1 23.95-5 .52.52 0 0 0 .03-.99zm5.87 3.55c-8.14-1.53-18.09-.29-24.32 5.5-.24.23.08.57.35.49a114.08 114.08 0 0 1 23.94-5 .52.52 0 0 0 .03-.99zm5.88 3.55c-8.14-1.53-18.1-.29-24.33 5.5-.24.23.08.57.35.48a114.06 114.06 0 0 1 23.94-4.95.52.52 0 0 0 .04-1.03z"/><path d="M358 388.92c-3.2-4.41-9.15-2.43-12.56.42A43.45 43.45 0 0 0 332.87 408a.21.21 0 0 0 .19.29c0 .62.57 1.28 1.27 1 6.73-2.48 14.22-4.3 20-8.77 3.35-2.62 6.67-7.43 3.67-11.6zm-14.22 14.52c-3.28 1.3-6.6 2.43-9.83 3.85a131.07 131.07 0 0 1 7.57-10.72 48.85 48.85 0 0 1 4.32-4.66c2.43-2.2 12-6.88 10.58 2-.82 4.98-8.76 7.98-12.66 9.53z"/><path d="M312.18 405.82c6.7 2.87 14.42 2.73 21.55 3.43.74.08 1.11-.7 1-1.3a.23.23 0 0 0 .11-.34A43.5 43.5 0 0 0 318 392.76c-4-1.9-10.27-2.3-12.25 2.78-1.91 4.8 2.51 8.61 6.43 10.28zm-3.67-5.82c-3.66-8.27 6.81-6.17 9.71-4.65a47.08 47.08 0 0 1 5.36 3.41c3.58 2.55 6.74 5.57 10 8.45-3.49-.56-7-.81-10.49-1.24-4.09-.5-12.57-1.39-14.58-5.97z"/><use xlink:href="#C" x="-18.43"/></g><path d="M275.64 428.53c-8.88 0-8.89 13.8 0 13.8s8.89-13.8 0-13.8z" class="G"/><path d="M100.13 339.16S86 387.22 93.5 410.27c5.67 17.32 24.76 29.35 39.5 36.73 9.12 4.56 66.24 7.17 81.24-5.07 20.95-17.07 54-109.55 54-112.23 0-10.39-31.73-29.93-31.73-29.93s-.17 27.92 2 39.78c2.45 13.17 16.15 53.9 16.15 53.9l82.14-.32s-15.39-89.54-40.09-143.64c-5.36-11.76-22.05-17.9-35.91-17.46a40.64 40.64 0 0 0-28.56 13.27c-19.55 21.24-61.16 92.36-61.16 92.36z" fill="#37474f"/><g class="E"><path d="M250.28 379.77c-1.81-7.31-7-23.75-11.49-46-1.7-8.55-3-19.49-4.33-29.93-.64-5-1.6-19.16-2.51-24.35a.2.2 0 0 0-.4 0c.07 5.18 1.09 16.51 1.47 21.06l.52 5.89c-.16-.43-3.89-9.62-5.09-13.68-.07-.25-.44-.13-.38.12 1.71 6.28 5 16.92 5.86 17.92.53 5.77 1.48 16.78 2.58 22.47 3 15.52 10.55 41.9 13.17 46.63.26.46.73.4.6-.13zm41.51-1.4c-10.89-.12-23.54-.35-32.65-1-.21 0-.24-.33 0-.33 9.07-.28 21.68-.49 32.53-.36s21.76.68 32.65 1.06c.27 0 .32.44 0 .44l-32.53.19zm-120.68-40.73a96.71 96.71 0 0 1-9.74 16.36 57.86 57.86 0 0 1-12.37 8.33c2.88-2.88 6.33-5.69 9.44-8.32a12.11 12.11 0 0 0 2.6-2.93c3.19-4.54 6.38-9.15 10-13.44z"/><path d="M152.1 355.42a22.77 22.77 0 0 1 9.15-2.89 22.62 22.62 0 0 1-9.15 2.89zm-40.58 17.07c1.91-.66 10.08-2.33 12.07-3.11a45.84 45.84 0 0 0 10.62-5.8c3.32-2.49 5.37-5.8 7.12-9.5.93-2 5.39-12.63 5.66-12.67a.28.28 0 0 1 .28.14c.36.68-1 4.64-1.45 5.95l-2.21 6.84c-1.51 4.26-3.64 8.13-7.21 11a36.75 36.75 0 0 1-11.82 6.15 37.82 37.82 0 0 1-6.72 1.54 17.78 17.78 0 0 1-6.38.12c-.36-.15-.23-.57.04-.66z"/><path d="M111.26 342.31c-.87 7-1.62 14.08-2.08 21.14-.21 4.39-.63 8.85.1 13.2 1.64 5.08 11.34 6.49 16 7.23a64.43 64.43 0 0 0 15.82.17c1.73-.28 3.47-.22 4.68-1.67 11.51-13.38 20.4-28.89 30.25-43.51 15.53-23.69 30.3-47.94 47.46-70.51a65.66 65.66 0 0 1 5.28-6c1.33-1.32 3.07-2.74 5.06-1.62a19.15 19.15 0 0 1 6 5.38c1.05 1.44 2.4 2.91 2.75 4.7 1.74 19.38 1 39 4.18 58.24 3 13.82 6.8 27.5 10.51 41.15q-2.94-10.2-5.73-20.46c-2.67-10.26-5.9-20.51-6.67-31.14-1-10.59-1.46-21.21-2-31.82-.36-5.46-.3-11-1.14-16.43-1.93-3.52-4.71-7-8.26-8.92a2.35 2.35 0 0 0-2.21-.09c-2.83 1.87-5 4.92-7.16 7.55-19.77 26.39-40.56 60.83-59.11 88.19l-12.09 17.49a75.72 75.72 0 0 1-6.73 8.27 4.16 4.16 0 0 1-2.39 1.41c-9 1.65-26.5 1-33.54-5.14-1.41-1.26-1.62-3.24-1.68-5a96.72 96.72 0 0 1 .34-10.63c.55-7.06 1.37-14.1 2.32-21.12z"/></g><path d="M151 338.39a7.94 7.94 0 0 0-1.06 3 .58.58 0 0 0 .4.66c.27.05.49-.18.54-.5a6.94 6.94 0 0 1 .52-1.79l.08-.16s.1-.22 0-.07a1.51 1.51 0 0 1 .11-.22l.12-.21a.69.69 0 0 0-.07-.82.43.43 0 0 0-.67.09zm-1.47 5.52a8 8 0 0 0-1.06 3 .58.58 0 0 0 .4.66c.26.05.49-.18.54-.49a7 7 0 0 1 .52-1.8l.08-.16s.1-.21 0-.07l.11-.22.12-.21a.71.71 0 0 0-.07-.82.43.43 0 0 0-.67.09zm-1.92 4.88a6.7 6.7 0 0 0-1.83 2.4.68.68 0 0 0 .2.79.44.44 0 0 0 .64-.25 6.22 6.22 0 0 1 1-1.47l.11-.12.05-.05.17-.16.16-.15a.66.66 0 0 0 .16-.8.43.43 0 0 0-.65-.19zm-3.29 4.28a5.85 5.85 0 0 0-2.25 1.77.69.69 0 0 0 0 .83.42.42 0 0 0 .67 0 5 5 0 0 1 1.26-1.17l.13-.08s.18-.11.06 0l.19-.1.19-.09a.64.64 0 0 0 .32-.73c-.09-.29-.34-.49-.6-.39zm-3.97 3a5.26 5.26 0 0 0-2.44 1.31.69.69 0 0 0-.07.83.42.42 0 0 0 .66.08 4.66 4.66 0 0 1 1.38-.87l.14-.05s.19-.07.06 0l.21-.06.2-.06a.58.58 0 0 0 .4-.66c0-.3-.28-.55-.54-.49zm-4.35 2.14a5.14 5.14 0 0 0-2.52 1.08.68.68 0 0 0-.12.81.43.43 0 0 0 .66.15 4.31 4.31 0 0 1 1.43-.73h.14s.2-.05.06 0h.21.2a.57.57 0 0 0 .44-.63c0-.31-.24-.57-.5-.54zm-4.41 1.79a5 5 0 0 0-2.57.92.69.69 0 0 0-.15.81.44.44 0 0 0 .65.19 4.25 4.25 0 0 1 1.46-.65h.15.06.21.2a.56.56 0 0 0 .47-.6c0-.31-.22-.59-.48-.57zm-4.47 1.62a5.06 5.06 0 0 0-2.56.93.67.67 0 0 0-.15.8.43.43 0 0 0 .65.19 4.43 4.43 0 0 1 1.46-.64h.14.07.21.2a.55.55 0 0 0 .47-.59c0-.31-.22-.59-.49-.58zm-4.76 1.67a5 5 0 0 0-2.56.92.68.68 0 0 0-.15.81.42.42 0 0 0 .65.19 4.31 4.31 0 0 1 1.45-.65h.15.06.22.2a.54.54 0 0 0 .46-.59c0-.31-.21-.59-.48-.58zm-4.57 2.02a5.63 5.63 0 0 0-2.29 1.69.69.69 0 0 0 0 .83.42.42 0 0 0 .67 0 4.84 4.84 0 0 1 1.28-1.07l.14-.08s.18-.1.05 0l.2-.09.19-.08a.63.63 0 0 0 .34-.72c-.08-.3-.33-.51-.59-.41zm-4.01 3.55a6.4 6.4 0 0 0-2 2.2.67.67 0 0 0 .14.81.42.42 0 0 0 .65-.17 6.09 6.09 0 0 1 1.09-1.37l.12-.11h0l.22-.22.18-.13a.68.68 0 0 0 .21-.78.45.45 0 0 0-.64-.27zm-3.39 4.14a7.21 7.21 0 0 0-1.64 2.61.66.66 0 0 0 .26.76.46.46 0 0 0 .62-.32 6.41 6.41 0 0 1 .87-1.58 1.13 1.13 0 0 0 .1-.13l.05-.06.15-.18.16-.16a.69.69 0 0 0 .09-.82.42.42 0 0 0-.66-.12zm-2.66 5a7.68 7.68 0 0 0-1.39 2.82.63.63 0 0 0 .33.72.48.48 0 0 0 .59-.4 6.4 6.4 0 0 1 .72-1.7 1 1 0 0 1 .08-.14s.13-.2 0-.07c.05-.06.09-.13.14-.2l.14-.18a.72.72 0 0 0 0-.83.42.42 0 0 0-.67 0zm-2.41 5a7.4 7.4 0 0 0-1.51 2.71.63.63 0 0 0 .29.75.47.47 0 0 0 .6-.36 6.93 6.93 0 0 1 .8-1.64l.1-.14s.13-.18 0-.06l.15-.19a1.15 1.15 0 0 1 .14-.17.69.69 0 0 0 .06-.83.42.42 0 0 0-.67-.07zm-2.63 5a6.53 6.53 0 0 0-1.88 2.34.68.68 0 0 0 .19.8.44.44 0 0 0 .64-.23 6.15 6.15 0 0 1 1-1.44l.11-.12s.16-.15 0-.05l.17-.15.17-.14a.68.68 0 0 0 .18-.8.44.44 0 0 0-.65-.21zm-3.43 3.79a5.27 5.27 0 0 0-2.44 1.34.69.69 0 0 0-.07.83.43.43 0 0 0 .67.08 4.68 4.68 0 0 1 1.37-.89l.14-.06h.06l.21-.07.2-.05a.59.59 0 0 0 .4-.67c0-.3-.28-.54-.54-.49zM95.11 394a4.8 4.8 0 0 0-2.64-.51.57.57 0 0 0-.42.65.52.52 0 0 0 .53.51 4.09 4.09 0 0 1 1.54.18h.14s.19.07.06 0l.21.08.19.09a.44.44 0 0 0 .62-.3.65.65 0 0 0-.23-.77zm-4.3-1.29a7 7 0 0 0-1.76-2.47.43.43 0 0 0-.66.17.7.7 0 0 0 .14.81 5.86 5.86 0 0 1 1.09 1.35l.09.15s.11.21 0 .07l.12.22c0 .07.07.14.1.22a.44.44 0 0 0 .63.27.68.68 0 0 0 .22-.79zM88.19 388a8.46 8.46 0 0 0-.8-3.14.43.43 0 0 0-.66-.17.67.67 0 0 0-.14.8 6.91 6.91 0 0 1 .55 1.79 1.16 1.16 0 0 1 0 .18v.07.26a2.29 2.29 0 0 1 0 .25c0 .31.23.59.49.57a.57.57 0 0 0 .46-.61zm-1.34-5.64a8.88 8.88 0 0 0 0-3.29.48.48 0 0 0-.58-.41.61.61 0 0 0-.33.72 8 8 0 0 1 .09 1.9v.19.07a2 2 0 0 1 0 .26 1.87 1.87 0 0 1 0 .25.62.62 0 0 0 .33.72.48.48 0 0 0 .59-.41zm-.01-5.84a8.34 8.34 0 0 0 .52-3.23.52.52 0 0 0-.5-.54.57.57 0 0 0-.44.63 7.17 7.17 0 0 1-.21 1.89v.18c0 .06-.07.23 0 .07 0 .08-.05.17-.08.25a2.09 2.09 0 0 1-.13.23.67.67 0 0 0 .22.78.43.43 0 0 0 .63-.26zm1-5.87a8.55 8.55 0 0 0 .69-3.18.54.54 0 0 0-.48-.58c-.27 0-.46.27-.47.59a7.54 7.54 0 0 1-.31 1.87 1.09 1.09 0 0 1 0 .17s-.08.23 0 .07l-.09.24-.09.23a.68.68 0 0 0 .17.8.44.44 0 0 0 .65-.21zM89 364.9a8.27 8.27 0 0 0 1.4-2.89.58.58 0 0 0-.32-.7.52.52 0 0 0-.59.44 7.41 7.41 0 0 1-.74 1.74l-.09.15s-.12.2 0 .06c0 .07-.1.14-.14.21l-.14.19a.71.71 0 0 0 0 .83.43.43 0 0 0 .68 0zm2.12-4.9a8.4 8.4 0 0 0 2.26-2.34.48.48 0 1 0-.8-.5 7.38 7.38 0 0 1-1.25 1.43l-.14.12s-.18.15 0 .05a1.56 1.56 0 0 0-.2.16l-.2.14a.69.69 0 0 0-.28.77.44.44 0 0 0 .66.17zm3.88-4.38a8.5 8.5 0 0 0 1.83-2.74.49.49 0 0 0-.25-.67.61.61 0 0 0-.67.41 7.66 7.66 0 0 1-1 1.64l-.12.14s-.15.19 0 .06l-.18.2-.16.18a.63.63 0 0 0-.13.79.46.46 0 0 0 .7 0z" class="B"/><path d="M98.37 349.81l-.11-.07a1.79 1.79 0 0 0-2.35.85l-.28.46a1.79 1.79 0 0 0 .35 2.48l.11.06a1.78 1.78 0 0 0 2.35-.85l.28-.45a1.79 1.79 0 0 0-.35-2.48zm-.44 2.5a1.06 1.06 0 0 1-1.4.51h-.07a1.07 1.07 0 0 1-.21-1.48l.17-.28a1.07 1.07 0 0 1 1.41-.5h.06a1.06 1.06 0 0 1 .21 1.44z" class="C"/><path d="M98.05 350.18l-.09-.05a1.39 1.39 0 0 0-1.83.66l-.22.36a1.4 1.4 0 0 0 .27 1.93l.09.05a1.39 1.39 0 0 0 1.83-.66l.22-.36a1.4 1.4 0 0 0-.27-1.93zm-.12 2.13a1.06 1.06 0 0 1-1.4.51h-.07a1.07 1.07 0 0 1-.21-1.48l.17-.28a1.07 1.07 0 0 1 1.41-.5h.06a1.06 1.06 0 0 1 .21 1.44z" class="B D"/><path d="M95.3 354.46l-.1-.09a1.68 1.68 0 0 0-2.38.53l-.32.42a1.91 1.91 0 0 0 0 2.57l.1.08a1.68 1.68 0 0 0 2.38-.52l.32-.42a1.9 1.9 0 0 0 0-2.57zm-.72 2.48a1 1 0 0 1-1.43.31l-.05-.05a1.15 1.15 0 0 1 0-1.54l.2-.25a1 1 0 0 1 1.42-.31h.06a1.14 1.14 0 0 1 0 1.53z" class="C"/><path d="M94.94 354.79l-.07-.06a1.32 1.32 0 0 0-1.86.4l-.25.33a1.5 1.5 0 0 0 0 2l.08.06a1.3 1.3 0 0 0 1.85-.41l.25-.33a1.48 1.48 0 0 0 0-1.99zm-.36 2.15a1 1 0 0 1-1.43.31l-.05-.05a1.15 1.15 0 0 1 0-1.54l.2-.25a1 1 0 0 1 1.42-.31h.06a1.14 1.14 0 0 1 0 1.53z" class="B D"/><path d="M91.4 358.72l-.12-.06a1.51 1.51 0 0 0-2.15.91l-.21.48a2.06 2.06 0 0 0 .61 2.58l.11.07a1.54 1.54 0 0 0 2.16-.91l.21-.48a2.08 2.08 0 0 0-.61-2.59zm-.14 2.62a.92.92 0 0 1-1.29.55h-.07a1.25 1.25 0 0 1-.36-1.55l.13-.28a.9.9 0 0 1 1.28-.55h.07a1.24 1.24 0 0 1 .37 1.54z" class="C"/><path d="M91.13 359.12l-.09-.06a1.2 1.2 0 0 0-1.68.72l-.16.37a1.61 1.61 0 0 0 .47 2l.09.06a1.19 1.19 0 0 0 1.68-.72l.17-.37a1.61 1.61 0 0 0-.48-2zm.13 2.22a.92.92 0 0 1-1.29.55h-.07a1.25 1.25 0 0 1-.36-1.55l.13-.28a.9.9 0 0 1 1.28-.55h.07a1.24 1.24 0 0 1 .37 1.54z" class="B D"/><path d="M88.92 363.78h-.13a1.53 1.53 0 0 0-2 1.23l-.14.5a2.08 2.08 0 0 0 1 2.46l.12.05a1.52 1.52 0 0 0 2-1.23l.14-.5a2.07 2.07 0 0 0-.99-2.51zm.26 2.61a.93.93 0 0 1-1.2.73h-.07a1.23 1.23 0 0 1-.59-1.47l.08-.3a.92.92 0 0 1 1.19-.74h.07a1.24 1.24 0 0 1 .6 1.47z" class="C"/><path d="M88.71 364.21h-.09a1.19 1.19 0 0 0-1.56 1l-.11.39a1.63 1.63 0 0 0 .78 1.92h.1a1.2 1.2 0 0 0 1.55-1l.11-.4a1.62 1.62 0 0 0-.78-1.91zm.47 2.18a.93.93 0 0 1-1.2.73h-.07a1.23 1.23 0 0 1-.59-1.47l.08-.3a.92.92 0 0 1 1.19-.74h.07a1.24 1.24 0 0 1 .6 1.47z" class="B D"/><path d="M87.66 369.6h-.12a1.63 1.63 0 0 0-1.84 1.55l-.08.53a2 2 0 0 0 1.26 2.27H87a1.64 1.64 0 0 0 1.84-1.56l.08-.52a2 2 0 0 0-1.26-2.27zm.55 2.54a1 1 0 0 1-1.1.92H87a1.18 1.18 0 0 1-.75-1.36v-.31a1 1 0 0 1 1.1-.93h.07a1.16 1.16 0 0 1 .76 1.35z" class="C"/><path d="M87.51 370.06h-.1a1.27 1.27 0 0 0-1.41 1.19l-.07.41a1.53 1.53 0 0 0 1 1.76h.1a1.28 1.28 0 0 0 1.44-1.21l.06-.41a1.53 1.53 0 0 0-1.02-1.74zm.7 2.08a1 1 0 0 1-1.1.92H87a1.18 1.18 0 0 1-.75-1.36v-.31a1 1 0 0 1 1.1-.93h.07a1.16 1.16 0 0 1 .76 1.35z" class="B D"/><path d="M86.79 375.42h-.13a1.64 1.64 0 0 0-1.84 1.58l-.08.52a2 2 0 0 0 1.26 2.22h.13a1.62 1.62 0 0 0 1.87-1.52l.08-.53a2 2 0 0 0-1.29-2.27zm.54 2.54a1 1 0 0 1-1.1.93h-.07a1.18 1.18 0 0 1-.76-1.35v-.32a1 1 0 0 1 1.1-.93h.08a1.18 1.18 0 0 1 .75 1.36z" class="C"/><path d="M86.63 375.88h-.1a1.27 1.27 0 0 0-1.43 1.21l-.06.41a1.52 1.52 0 0 0 1 1.77h.1a1.27 1.27 0 0 0 1.43-1.21l.06-.41a1.52 1.52 0 0 0-1-1.77zm.7 2.08a1 1 0 0 1-1.1.93h-.07a1.18 1.18 0 0 1-.76-1.35v-.32a1 1 0 0 1 1.1-.93h.08a1.18 1.18 0 0 1 .75 1.36z" class="B D"/><path d="M86.31 381.42h-.13a2 2 0 0 0-1.18 2.36l.09.52a1.61 1.61 0 0 0 1.91 1.48h.13a2 2 0 0 0 1.19-2.32l-.09-.52a1.61 1.61 0 0 0-1.92-1.52zm1.31 2.07a1.19 1.19 0 0 1-.72 1.39h-.07a1 1 0 0 1-1.12-.88l-.06-.31a1.19 1.19 0 0 1 .71-1.39h.08a1 1 0 0 1 1.12.88z" class="C"/><path d="M86.31 381.92h-.1a1.55 1.55 0 0 0-.93 1.81l.07.41a1.26 1.26 0 0 0 1.47 1.15h.1a1.55 1.55 0 0 0 .93-1.81l-.07-.41a1.26 1.26 0 0 0-1.47-1.15zm1.31 1.57a1.19 1.19 0 0 1-.72 1.39h-.07a1 1 0 0 1-1.12-.88l-.06-.31a1.19 1.19 0 0 1 .71-1.39h.08a1 1 0 0 1 1.12.88z" class="B D"/><path d="M87.36 387.37l-.11.08a2.21 2.21 0 0 0-.57 2.66l.22.46a1.43 1.43 0 0 0 2.16.7l.11-.08a2.22 2.22 0 0 0 .56-2.66l-.22-.47a1.42 1.42 0 0 0-2.15-.69zm1.76 1.47a1.32 1.32 0 0 1-.34 1.59l-.07.05a.84.84 0 0 1-1.28-.42l-.13-.27a1.31 1.31 0 0 1 .33-1.59l.07-.05a.85.85 0 0 1 1.29.42z" class="C"/><path d="M87.48 387.84l-.08.06a1.73 1.73 0 0 0-.4 2.1l.17.36a1.11 1.11 0 0 0 1.68.54l.09-.06a1.74 1.74 0 0 0 .44-2.08l-.18-.36a1.11 1.11 0 0 0-1.72-.56zm1.64 1a1.32 1.32 0 0 1-.34 1.59l-.07.05a.84.84 0 0 1-1.28-.42l-.13-.27a1.31 1.31 0 0 1 .33-1.59l.07-.05a.85.85 0 0 1 1.29.42z" class="B D"/><path d="M89.66 392.53l-.06.14a2.19 2.19 0 0 0 .7 2.62l.38.24a1.45 1.45 0 0 0 2.12-.86l.06-.14a2.18 2.18 0 0 0-.69-2.61l-.39-.25a1.45 1.45 0 0 0-2.12.86zm2.13.06a1.31 1.31 0 0 1 .41 1.57v.08a.86.86 0 0 1-1.26.51l-.24-.14a1.3 1.3 0 0 1-.41-1.56v-.09a.87.87 0 0 1 1.27-.51z" class="C"/><path d="M90 392.84v.11a1.7 1.7 0 0 0 .54 2l.3.19a1.12 1.12 0 0 0 1.65-.67v-.11a1.7 1.7 0 0 0-.54-2l-.3-.18a1.13 1.13 0 0 0-1.65.66zm1.81-.25a1.31 1.31 0 0 1 .41 1.57v.08a.86.86 0 0 1-1.26.51l-.24-.14a1.3 1.3 0 0 1-.41-1.56v-.09a.87.87 0 0 1 1.27-.51z" class="B D"/><path d="M94.26 394.47v.16a1.64 1.64 0 0 0 1.82 1.58l.43-.09a2 2 0 0 0 1.28-2.25v-.16a1.64 1.64 0 0 0-1.79-1.58l-.43.09a2 2 0 0 0-1.31 2.25zM96 393a1 1 0 0 1 1.09.95v.05a1.16 1.16 0 0 1-.77 1.34l-.25.06a1 1 0 0 1-1.09-.95v-.09a1.16 1.16 0 0 1 .76-1.34z" class="C"/><path d="M94.66 394.49v.12c.12.83.75 1.38 1.42 1.23l.33-.07a1.51 1.51 0 0 0 1-1.75v-.12a1.27 1.27 0 0 0-1.41-1.23l-.34.07a1.52 1.52 0 0 0-1 1.75zM96 393a1 1 0 0 1 1.09.95v.05a1.16 1.16 0 0 1-.77 1.34l-.25.06a1 1 0 0 1-1.09-.95v-.09a1.16 1.16 0 0 1 .76-1.34z" class="B D"/><path d="M98.91 393l.09.11a1.38 1.38 0 0 0 2.23 0l.31-.38a2.25 2.25 0 0 0 0-2.74l-.09-.12a1.38 1.38 0 0 0-2.23 0l-.31.38a2.3 2.3 0 0 0 0 2.75zm.72-2.48a.82.82 0 0 1 1.33 0l.05.07a1.35 1.35 0 0 1 0 1.64l-.18.23a.82.82 0 0 1-1.33 0l-.06-.07a1.37 1.37 0 0 1 0-1.64z" class="C"/><path d="M99.25 392.75l.07.08a1.07 1.07 0 0 0 1.74 0l.24-.3a1.77 1.77 0 0 0 0-2.14l-.07-.09a1.08 1.08 0 0 0-1.74 0l-.24.29a1.79 1.79 0 0 0 0 2.16zm.38-2.21a.82.82 0 0 1 1.33 0l.05.07a1.35 1.35 0 0 1 0 1.64l-.18.23a.82.82 0 0 1-1.33 0l-.06-.07a1.37 1.37 0 0 1 0-1.64z" class="B D"/><path d="M102.45 389l.1.09a1.4 1.4 0 0 0 2.19-.52l.25-.44a2.24 2.24 0 0 0-.42-2.7l-.11-.09a1.4 1.4 0 0 0-2.19.52l-.24.44a2.24 2.24 0 0 0 .42 2.7zm.32-2.6a.83.83 0 0 1 1.31-.3l.06.05a1.32 1.32 0 0 1 .25 1.61l-.14.27a.83.83 0 0 1-1.31.3l-.06-.05a1.32 1.32 0 0 1-.25-1.61z" class="C"/><path d="M102.74 388.62l.08.07a1.1 1.1 0 0 0 1.71-.4l.19-.34a1.74 1.74 0 0 0-.33-2.11l-.08-.07a1.09 1.09 0 0 0-1.7.4l-.19.35a1.73 1.73 0 0 0 .32 2.1zm0-2.25a.83.83 0 0 1 1.31-.3l.06.05a1.32 1.32 0 0 1 .25 1.61l-.14.27a.83.83 0 0 1-1.31.3l-.06-.05a1.32 1.32 0 0 1-.25-1.61z" class="B D"/><path d="M105.22 384.17l.11.08a1.41 1.41 0 0 0 2.16-.65l.23-.46a2.21 2.21 0 0 0-.53-2.67l-.11-.08a1.41 1.41 0 0 0-2.16.65l-.23.45a2.24 2.24 0 0 0 .53 2.68zm.22-2.62a.85.85 0 0 1 1.29-.39h.07a1.34 1.34 0 0 1 .31 1.6l-.13.27a.85.85 0 0 1-1.3.39l-.06-.05a1.31 1.31 0 0 1-.32-1.59z" class="C"/><path d="M105.5 383.8l.08.07a1.11 1.11 0 0 0 1.69-.51l.18-.35a1.74 1.74 0 0 0-.41-2.09l-.09-.06a1.1 1.1 0 0 0-1.69.5l-.17.36a1.71 1.71 0 0 0 .41 2.08zm-.06-2.25a.85.85 0 0 1 1.29-.39h.07a1.34 1.34 0 0 1 .31 1.6l-.13.27a.85.85 0 0 1-1.3.39l-.06-.05a1.31 1.31 0 0 1-.32-1.59z" class="B D"/><path d="M107.43 378.9l.11.1a1.39 1.39 0 0 0 2.19-.47l.25-.43a2.25 2.25 0 0 0-.37-2.72l-.11-.09a1.4 1.4 0 0 0-2.2.47l-.25.43a2.25 2.25 0 0 0 .38 2.71zm.36-2.58a.84.84 0 0 1 1.32-.28h.06a1.35 1.35 0 0 1 .22 1.62l-.15.26a.83.83 0 0 1-1.31.28l-.06-.05a1.34 1.34 0 0 1-.23-1.62z" class="C"/><path d="M107.73 378.57l.08.07a1.09 1.09 0 0 0 1.71-.36l.2-.34a1.76 1.76 0 0 0-.3-2.12l-.08-.07a1.09 1.09 0 0 0-1.71.36l-.2.34a1.76 1.76 0 0 0 .3 2.12zm.06-2.25a.84.84 0 0 1 1.32-.28h.06a1.35 1.35 0 0 1 .22 1.62l-.15.26a.83.83 0 0 1-1.31.28l-.06-.05a1.34 1.34 0 0 1-.23-1.62z" class="B D"/><path d="M109.94 374l.09.12a1.38 1.38 0 0 0 2.23 0l.31-.37a2.27 2.27 0 0 0 0-2.75l-.09-.12a1.37 1.37 0 0 0-2.22-.05l-.32.37a2.3 2.3 0 0 0 0 2.8zm.75-2.46a.82.82 0 0 1 1.33 0l.06.06a1.38 1.38 0 0 1 0 1.65l-.19.22a.82.82 0 0 1-1.33 0v-.07a1.36 1.36 0 0 1 0-1.64z" class="C"/><path d="M110.28 373.72l.07.09a1.08 1.08 0 0 0 1.74 0l.24-.29a1.77 1.77 0 0 0 0-2.14l-.07-.09a1.08 1.08 0 0 0-1.74 0l-.24.29a1.77 1.77 0 0 0 0 2.14zm.41-2.2a.82.82 0 0 1 1.33 0l.06.06a1.38 1.38 0 0 1 0 1.65l-.19.22a.82.82 0 0 1-1.33 0v-.07a1.36 1.36 0 0 1 0-1.64z" class="B D"/><path d="M113.27 369.71l.07.13a1.4 1.4 0 0 0 2.19.5l.36-.31a2.23 2.23 0 0 0 .4-2.7l-.07-.13a1.4 1.4 0 0 0-2.19-.5l-.36.31a2.23 2.23 0 0 0-.4 2.7zm1.06-2.28a.84.84 0 0 1 1.31.3v.08a1.32 1.32 0 0 1-.24 1.61l-.21.19a.84.84 0 0 1-1.31-.3v-.08a1.34 1.34 0 0 1 .24-1.62z" class="C"/><path d="M113.64 369.52l.06.1a1.09 1.09 0 0 0 1.71.39l.27-.24a1.76 1.76 0 0 0 .32-2.11l-.06-.1a1.09 1.09 0 0 0-1.71-.39l-.28.24a1.77 1.77 0 0 0-.31 2.11zm.69-2.09a.84.84 0 0 1 1.31.3v.08a1.32 1.32 0 0 1-.24 1.61l-.21.19a.84.84 0 0 1-1.31-.3v-.08a1.34 1.34 0 0 1 .24-1.62z" class="B D"/><path d="M117.09 366.06v.15a1.49 1.49 0 0 0 2 1.07l.41-.2a2.13 2.13 0 0 0 .87-2.53v-.15a1.5 1.5 0 0 0-2.06-1.07l-.4.2a2.14 2.14 0 0 0-.82 2.53zm1.44-1.93a.89.89 0 0 1 1.23.64v.09a1.28 1.28 0 0 1-.52 1.51l-.24.12a.9.9 0 0 1-1.23-.64v-.09a1.27 1.27 0 0 1 .52-1.51z" class="C"/><path d="M117.49 366v.11a1.16 1.16 0 0 0 1.6.84l.31-.16a1.66 1.66 0 0 0 .68-2v-.12a1.16 1.16 0 0 0-1.6-.83l-.31.15a1.67 1.67 0 0 0-.68 2.01zm1-1.85a.89.89 0 0 1 1.23.64v.09a1.28 1.28 0 0 1-.52 1.51l-.24.12a.9.9 0 0 1-1.23-.64v-.09a1.27 1.27 0 0 1 .52-1.51z" class="B D"/><path d="M121.72 363.65v.16a1.63 1.63 0 0 0 1.83 1.56l.43-.09a2 2 0 0 0 1.27-2.26v-.16a1.62 1.62 0 0 0-1.83-1.56l-.43.09a2 2 0 0 0-1.27 2.26zm1.72-1.53a1 1 0 0 1 1.1.93v.1a1.16 1.16 0 0 1-.75 1.35l-.26.05a1 1 0 0 1-1.09-.93v-.09a1.17 1.17 0 0 1 .76-1.35z" class="C"/><path d="M122.12 363.67v.12a1.28 1.28 0 0 0 1.43 1.22l.33-.07a1.53 1.53 0 0 0 1-1.77v-.12a1.28 1.28 0 0 0-1.43-1.22l-.33.08a1.52 1.52 0 0 0-1 1.76zm1.32-1.55a1 1 0 0 1 1.1.93v.1a1.16 1.16 0 0 1-.75 1.35l-.26.05a1 1 0 0 1-1.09-.93v-.09a1.17 1.17 0 0 1 .76-1.35z" class="B D"/><path d="M126.36 362.26v.16a1.64 1.64 0 0 0 1.83 1.57l.43-.1a2 2 0 0 0 1.27-2.26v-.16a1.62 1.62 0 0 0-1.83-1.56l-.43.09a2 2 0 0 0-1.27 2.26zm1.72-1.53a1 1 0 0 1 1.1.93v.1a1.17 1.17 0 0 1-.76 1.35l-.25.05a1 1 0 0 1-1.1-.93v-.09a1.17 1.17 0 0 1 .76-1.35z" class="C"/><path d="M126.76 362.28v.12a1.28 1.28 0 0 0 1.43 1.22l.33-.07a1.53 1.53 0 0 0 1-1.77v-.12a1.28 1.28 0 0 0-1.43-1.22l-.33.08a1.52 1.52 0 0 0-1 1.76zm1.32-1.55a1 1 0 0 1 1.1.93v.1a1.17 1.17 0 0 1-.76 1.35l-.25.05a1 1 0 0 1-1.1-.93v-.09a1.17 1.17 0 0 1 .76-1.35z" class="B D"/><path d="M130.79 360.64v.16a1.56 1.56 0 0 0 2 1.33l.42-.14a2 2 0 0 0 1.08-2.4v-.16a1.57 1.57 0 0 0-2-1.34l-.42.15a2 2 0 0 0-1.08 2.4zm1.6-1.73a.93.93 0 0 1 1.16.8v.09a1.21 1.21 0 0 1-.65 1.43l-.25.09a.93.93 0 0 1-1.16-.8v-.09a1.21 1.21 0 0 1 .65-1.43z" class="C"/><path d="M131.19 360.61v.12a1.21 1.21 0 0 0 1.51 1l.33-.11a1.6 1.6 0 0 0 .85-1.87v-.12a1.23 1.23 0 0 0-1.52-1.05l-.32.12a1.57 1.57 0 0 0-.85 1.91zm1.2-1.7a.93.93 0 0 1 1.16.8v.09a1.21 1.21 0 0 1-.65 1.43l-.25.09a.93.93 0 0 1-1.16-.8v-.09a1.21 1.21 0 0 1 .65-1.43z" class="B D"/><path d="M135.28 359.06v.14a1.51 1.51 0 0 0 2 1.13l.4-.19a2.1 2.1 0 0 0 .92-2.5l-.05-.15a1.5 1.5 0 0 0-2-1.13l-.41.19a2.11 2.11 0 0 0-.86 2.51zm1.47-1.9a.9.9 0 0 1 1.22.67v.09a1.26 1.26 0 0 1-.54 1.5l-.25.11a.89.89 0 0 1-1.21-.67v-.09a1.26 1.26 0 0 1 .55-1.5z" class="C"/><path d="M135.68 359v.12a1.18 1.18 0 0 0 1.59.88l.31-.15a1.64 1.64 0 0 0 .72-2v-.11a1.17 1.17 0 0 0-1.58-.88l-.32.15a1.64 1.64 0 0 0-.72 1.99zm1.07-1.82a.9.9 0 0 1 1.22.67v.09a1.26 1.26 0 0 1-.54 1.5l-.25.11a.89.89 0 0 1-1.21-.67v-.09a1.26 1.26 0 0 1 .55-1.5z" class="B D"/><path d="M139.72 357l.07.13a1.41 1.41 0 0 0 2.18.57l.37-.29a2.24 2.24 0 0 0 .46-2.69l-.07-.13a1.4 1.4 0 0 0-2.18-.57l-.36.29a2.24 2.24 0 0 0-.47 2.69zm1.12-2.24a.84.84 0 0 1 1.3.34v.08a1.34 1.34 0 0 1-.28 1.61l-.21.17a.85.85 0 0 1-1.31-.34v-.08a1.34 1.34 0 0 1 .28-1.61z" class="C"/><path d="M140.1 356.79l.06.1a1.09 1.09 0 0 0 1.69.45l.29-.23a1.74 1.74 0 0 0 .36-2.1l-.06-.1a1.09 1.09 0 0 0-1.69-.44l-.29.22a1.75 1.75 0 0 0-.36 2.1zm.74-2.06a.84.84 0 0 1 1.3.34v.08a1.34 1.34 0 0 1-.28 1.61l-.21.17a.85.85 0 0 1-1.31-.34v-.08a1.34 1.34 0 0 1 .28-1.61z" class="B D"/><path d="M144.05 354.18l.09.11a1.38 1.38 0 0 0 2.23-.12l.29-.4a2.26 2.26 0 0 0-.09-2.74l-.1-.11a1.38 1.38 0 0 0-2.23.12l-.29.39a2.27 2.27 0 0 0 .1 2.75zm.62-2.51a.81.81 0 0 1 1.33-.07l.06.06a1.37 1.37 0 0 1 .06 1.64l-.18.24a.83.83 0 0 1-1.33.07l-.06-.07a1.35 1.35 0 0 1-.05-1.64z" class="C"/><path d="M144.37 353.89l.08.08a1.06 1.06 0 0 0 1.73-.09l.23-.31a1.77 1.77 0 0 0-.07-2.14l-.07-.08a1.07 1.07 0 0 0-1.74.09l-.23.31a1.79 1.79 0 0 0 .07 2.14zm.3-2.22a.81.81 0 0 1 1.33-.07l.06.06a1.37 1.37 0 0 1 .06 1.64l-.18.24a.83.83 0 0 1-1.33.07l-.06-.07a1.35 1.35 0 0 1-.05-1.64z" class="B D"/><path d="M147.48 350l.11.08a1.42 1.42 0 0 0 2.16-.67l.25-.41a2.2 2.2 0 0 0-.54-2.66l-.11-.08a1.41 1.41 0 0 0-2.16.67l-.23.45a2.22 2.22 0 0 0 .52 2.62zm.2-2.61A.85.85 0 0 1 149 347l.07.05a1.32 1.32 0 0 1 .32 1.59l-.13.27a.85.85 0 0 1-1.29.4l-.07-.05a1.31 1.31 0 0 1-.32-1.59z" class="C"/><path d="M147.75 349.67l.09.06a1.1 1.1 0 0 0 1.68-.52l.18-.36a1.72 1.72 0 0 0-.43-2.08l-.08-.06a1.11 1.11 0 0 0-1.69.52l-.17.36a1.73 1.73 0 0 0 .42 2.08zm-.07-2.25A.85.85 0 0 1 149 347l.07.05a1.32 1.32 0 0 1 .32 1.59l-.13.27a.85.85 0 0 1-1.29.4l-.07-.05a1.31 1.31 0 0 1-.32-1.59z" class="B D"/><path d="M149.7 345.1h.13a1.59 1.59 0 0 0 1.92-1.4l.1-.52a2 2 0 0 0-1.13-2.37h-.13a1.57 1.57 0 0 0-1.91 1.4l-.11.52a2 2 0 0 0 1.13 2.37zm-.41-2.58a1 1 0 0 1 1.15-.84h.08a1.19 1.19 0 0 1 .67 1.41l-.06.31a1 1 0 0 1-1.15.84h-.07a1.19 1.19 0 0 1-.68-1.41z" class="C"/><path d="M149.88 344.65h.1a1.23 1.23 0 0 0 1.5-1.09l.08-.41a1.57 1.57 0 0 0-.88-1.84h-.1a1.23 1.23 0 0 0-1.5 1.09l-.08.41a1.57 1.57 0 0 0 .88 1.84zm-.59-2.13a1 1 0 0 1 1.15-.84h.08a1.19 1.19 0 0 1 .67 1.41l-.06.31a1 1 0 0 1-1.15.84h-.07a1.19 1.19 0 0 1-.68-1.41z" class="B D"/><path d="M96.1,352.18a9.48,9.48,0,0,0-2,3,.53.53,0,0,0,.28.73.66.66,0,0,0,.72-.45,8.47,8.47,0,0,1,1.06-1.77l.12-.16,0-.06.19-.21.18-.2a.69.69,0,0,0,.14-.85.5.5,0,0,0-.76,0Z" class="C"/><path d="M94.9 355.74a.56.56 0 0 1-.5.14.53.53 0 0 1-.28-.73 9.48 9.48 0 0 1 2-3 .55.55 0 0 1 .46-.17h0a9.45 9.45 0 0 0-2 3 .52.52 0 0 0 .27.72z" class="B D"/><path d="M92.81,356.74a9.16,9.16,0,0,0-2.44,2.52.59.59,0,0,0,.11.81.58.58,0,0,0,.76-.27,7.9,7.9,0,0,1,1.35-1.54l.15-.13.06-.05a1.84,1.84,0,0,1,.22-.17,1.13,1.13,0,0,1,.21-.15.76.76,0,0,0,.3-.84.47.47,0,0,0-.72-.18Z" class="C"/><path d="M91 360.06a.47.47 0 0 1-.5 0 .58.58 0 0 1-.11-.8 9.06 9.06 0 0 1 2.44-2.53.48.48 0 0 1 .47-.06h0a9 9 0 0 0-2.44 2.52.59.59 0 0 0 .1.81z" class="B D"/><path d="M89.56 361.3a8.78 8.78 0 0 0-1.56 3.13.61.61 0 0 0 .35.75c.27.08.55-.15.64-.48a7.51 7.51 0 0 1 .79-1.87 1.4 1.4 0 0 1 .1-.16s.13-.22 0-.07l.15-.23.15-.21a.74.74 0 0 0 0-.89.45.45 0 0 0-.72 0z" class="C"/><path d="M88.86 365a.48.48 0 0 1-.47.15.61.61 0 0 1-.35-.75 8.78 8.78 0 0 1 1.52-3.13.44.44 0 0 1 .42-.19h0a9 9 0 0 0-1.52 3.13.63.63 0 0 0 .36.75z" class="B D"/><path d="M87.57,367a9.07,9.07,0,0,0-.75,3.44.53.53,0,1,0,1,0,8.28,8.28,0,0,1,.33-2l.06-.18s.08-.25,0-.08a2,2,0,0,1,.1-.26l.09-.24a.73.73,0,0,0-.18-.87.47.47,0,0,0-.7.23Z" class="C"/><path d="M87.76 370.8a.52.52 0 0 1-.42.28.6.6 0 0 1-.52-.63 9.07 9.07 0 0 1 .75-3.44.48.48 0 0 1 .37-.3h0a9.3 9.3 0 0 0-.74 3.44.59.59 0 0 0 .52.63z" class="B D"/><path d="M86.38 372.91a9.35 9.35 0 0 0-.56 3.5.57.57 0 0 0 .55.58.61.61 0 0 0 .47-.68 7.89 7.89 0 0 1 .23-2v-.19c0-.06.07-.26 0-.08l.09-.27a2.41 2.41 0 0 1 .08-.25.71.71 0 0 0-.23-.85.49.49 0 0 0-.69.28z" class="C"/><path d="M86.77,376.68a.5.5,0,0,1-.4.31.57.57,0,0,1-.55-.58,9.35,9.35,0,0,1,.56-3.5.53.53,0,0,1,.36-.33v0a9.34,9.34,0,0,0-.57,3.49.58.58,0,0,0,.55.59Z" class="B D"/><path d="M85.83 378.93a9.47 9.47 0 0 0 0 3.56.51.51 0 0 0 .63.44.67.67 0 0 0 .35-.78 8.26 8.26 0 0 1-.1-2.06v-.19-.09-.28-.26a.69.69 0 0 0-.36-.78.51.51 0 0 0-.63.44z" class="C"/><path d="M86.8,382.53a.56.56,0,0,1-.34.4.51.51,0,0,1-.63-.44,9.47,9.47,0,0,1,0-3.56.56.56,0,0,1,.29-.41v0a9.47,9.47,0,0,0,0,3.56.52.52,0,0,0,.63.44Z" class="B D"/><path d="M86.38 385.07a9 9 0 0 0 .86 3.39.46.46 0 0 0 .71.19.74.74 0 0 0 .16-.87 7.13 7.13 0 0 1-.6-1.93 1.42 1.42 0 0 1 0-.2v-.08a2.66 2.66 0 0 1 0-.28v-.27c0-.33-.25-.64-.53-.61a.6.6 0 0 0-.49.66z" class="C"/><path d="M88.18,388.14a.65.65,0,0,1-.23.51.46.46,0,0,1-.71-.19,9,9,0,0,1-.86-3.39.66.66,0,0,1,.18-.5v0a9,9,0,0,0,.87,3.4.46.46,0,0,0,.7.18Z" class="B D"/><path d="M88.21,391a7.37,7.37,0,0,0,1.9,2.67.46.46,0,0,0,.71-.18.72.72,0,0,0-.15-.87,6.45,6.45,0,0,1-1.18-1.47L89.4,391l0-.07-.12-.24a2.4,2.4,0,0,1-.11-.23.49.49,0,0,0-.69-.3.72.72,0,0,0-.23.85Z" class="C"/><path d="M90.86 392.88a.7.7 0 0 1 0 .58.46.46 0 0 1-.71.18 7.37 7.37 0 0 1-1.9-2.67.7.7 0 0 1 0-.55h0a7.62 7.62 0 0 0 1.9 2.68.47.47 0 0 0 .71-.19.09.09 0 0 0 0-.03z" class="B D"/><path d="M92.2 394.73a5.28 5.28 0 0 0 2.85.56.62.62 0 0 0 .45-.7.56.56 0 0 0-.56-.56 4.36 4.36 0 0 1-1.67-.2l-.16-.05h-.06a1.45 1.45 0 0 1-.22-.09l-.21-.09a.48.48 0 0 0-.67.31.71.71 0 0 0 .25.84z" class="C"/><path d="M95.23 394.1a.64.64 0 0 1 .27.49.62.62 0 0 1-.45.7 5.28 5.28 0 0 1-2.85-.56.58.58 0 0 1-.28-.42h0a5.19 5.19 0 0 0 2.85.56.62.62 0 0 0 .45-.7.22.22 0 0 0 .01-.07z" class="B D"/><path d="M97.13,394.34a5.76,5.76,0,0,0,2.64-1.45.75.75,0,0,0,.07-.89.46.46,0,0,0-.72-.09,5.27,5.27,0,0,1-1.49,1l-.15.06-.07,0-.22.07-.21.06a.63.63,0,0,0-.43.72c0,.33.3.59.58.53Z" class="C"/><path d="M99.4,391.78a.45.45,0,0,1,.44.22.75.75,0,0,1-.07.89,5.76,5.76,0,0,1-2.64,1.45.44.44,0,0,1-.42-.17h0a5.71,5.71,0,0,0,2.64-1.45.75.75,0,0,0,.07-.89Z" class="B D"/><path d="M101.46,391.29a7.08,7.08,0,0,0,2-2.53.72.72,0,0,0-.2-.86.47.47,0,0,0-.69.24,6.45,6.45,0,0,1-1.1,1.56l-.13.12s-.17.17-.05.06l-.19.17-.18.15a.73.73,0,0,0-.19.86.47.47,0,0,0,.7.23Z" class="C"/><path d="M102.82 387.89a.41.41 0 0 1 .47 0 .72.72 0 0 1 .2.86 7.08 7.08 0 0 1-2 2.53.4.4 0 0 1-.44 0h0a7.19 7.19 0 0 0 2-2.53.72.72 0 0 0-.2-.86z" class="B D"/><path d="M104.59,386.53a8,8,0,0,0,1.63-2.93.69.69,0,0,0-.31-.81.5.5,0,0,0-.65.39,6.94,6.94,0,0,1-.87,1.77l-.1.15-.05.07a1.56,1.56,0,0,1-.16.2l-.15.19a.75.75,0,0,0-.07.89.46.46,0,0,0,.73.08Z" class="C"/><path d="M105.44,382.89a.43.43,0,0,1,.47-.1.69.69,0,0,1,.31.81,8,8,0,0,1-1.63,2.93.44.44,0,0,1-.43.13v0a7.87,7.87,0,0,0,1.64-2.93.68.68,0,0,0-.31-.8Z" class="B D"/><path d="M107.16,381.54a8.3,8.3,0,0,0,1.5-3.05.68.68,0,0,0-.36-.78c-.27-.1-.55.11-.63.44a7.21,7.21,0,0,1-.78,1.83l-.09.16s-.14.21,0,.06a1.07,1.07,0,0,1-.15.22,1.43,1.43,0,0,1-.14.2.74.74,0,0,0,0,.89.45.45,0,0,0,.72,0Z" class="C"/><path d="M107.84 377.84a.42.42 0 0 1 .46-.13.68.68 0 0 1 .36.78 8.3 8.3 0 0 1-1.5 3.05.43.43 0 0 1-.42.16h0a8.13 8.13 0 0 0 1.49-3.05.67.67 0 0 0-.35-.78z" class="B D"/><path d="M109.49 376.47a7.57 7.57 0 0 0 1.77-2.82.69.69 0 0 0-.28-.82c-.26-.14-.55 0-.67.34a6.61 6.61 0 0 1-.94 1.71.76.76 0 0 1-.11.14l-.05.06-.16.2-.17.17a.77.77 0 0 0-.11.89.46.46 0 0 0 .72.13z" class="C"/><path d="M110.51 372.89a.43.43 0 0 1 .47-.06.69.69 0 0 1 .28.82 7.57 7.57 0 0 1-1.77 2.82.42.42 0 0 1-.43.1h0a7.87 7.87 0 0 0 1.77-2.81.72.72 0 0 0-.28-.83z" class="B D"/><path d="M112.4,372.09a6.87,6.87,0,0,0,2.14-2.38.74.74,0,0,0-.15-.87.47.47,0,0,0-.71.19,6.26,6.26,0,0,1-1.17,1.47l-.13.12-.06.05-.19.16-.19.13a.72.72,0,0,0-.23.85.48.48,0,0,0,.69.28Z" class="C"/><path d="M113.91 368.79a.45.45 0 0 1 .48 0 .74.74 0 0 1 .15.87 6.87 6.87 0 0 1-2.14 2.38.41.41 0 0 1-.45 0h0a6.92 6.92 0 0 0 2.14-2.37.75.75 0 0 0-.15-.88z" class="B D"/><path d="M115.92,368.14a6.13,6.13,0,0,0,2.49-1.81.78.78,0,0,0,0-.9.45.45,0,0,0-.72,0,5.51,5.51,0,0,1-1.39,1.16l-.14.09s-.2.1-.07,0l-.21.11-.21.08a.69.69,0,0,0-.36.78c.09.32.36.54.63.44Z" class="C"/><path d="M117.93,365.27a.45.45,0,0,1,.46.16.78.78,0,0,1,0,.9,6.13,6.13,0,0,1-2.49,1.81.41.41,0,0,1-.43-.1h0a6,6,0,0,0,2.48-1.81.77.77,0,0,0,0-.9Z" class="B D"/><path d="M120 365.46a5.34 5.34 0 0 0 2.77-1 .73.73 0 0 0 .17-.87.47.47 0 0 0-.71-.2 4.82 4.82 0 0 1-1.57.7h-.16s-.22.05-.07 0h-.23-.22a.59.59 0 0 0-.5.64c0 .34.23.64.52.62z" class="C"/><path d="M122.51,363.3a.51.51,0,0,1,.41.29.74.74,0,0,1-.17.87,5.34,5.34,0,0,1-2.77,1,.44.44,0,0,1-.4-.23h0a5.4,5.4,0,0,0,2.77-1,.74.74,0,0,0,.17-.87Z" class="B D"/><path d="M124.74 363.8a5.43 5.43 0 0 0 2.77-1 .74.74 0 0 0 .17-.87.47.47 0 0 0-.71-.21 4.62 4.62 0 0 1-1.57.7h-.16-.07-.23-.21a.6.6 0 0 0-.51.64c0 .34.24.64.52.63z" class="C"/><path d="M127.27,361.63a.49.49,0,0,1,.41.3.74.74,0,0,1-.17.87,5.43,5.43,0,0,1-2.77,1,.48.48,0,0,1-.4-.24h0a5.37,5.37,0,0,0,2.77-1,.73.73,0,0,0,.16-.87Z" class="B D"/><path d="M129.2 362.17a5.4 5.4 0 0 0 2.77-1 .72.72 0 0 0 .17-.87.47.47 0 0 0-.71-.21 4.62 4.62 0 0 1-1.57.7h-.16-.06-.23-.22a.61.61 0 0 0-.51.65c0 .33.24.63.52.62z" class="C"/><path d="M131.73 360a.46.46 0 0 1 .41.29.74.74 0 0 1-.17.87 5.4 5.4 0 0 1-2.77 1 .47.47 0 0 1-.4-.23h0a5.46 5.46 0 0 0 2.77-1 .72.72 0 0 0 .16-.87.16.16 0 0 0 0-.06z" class="B D"/><path d="M133.68 360.53a5.61 5.61 0 0 0 2.73-1.17.75.75 0 0 0 .13-.88.47.47 0 0 0-.72-.17 4.72 4.72 0 0 1-1.54.8l-.16.05h-.06l-.23.05h-.22a.62.62 0 0 0-.48.68c0 .33.26.62.55.59z" class="C"/><path d="M136.11,358.21a.49.49,0,0,1,.43.27.75.75,0,0,1-.13.88,5.61,5.61,0,0,1-2.73,1.17.47.47,0,0,1-.41-.21h0a5.54,5.54,0,0,0,2.73-1.17.75.75,0,0,0,.13-.88Z" class="B D"/><path d="M138.21 358.59a5.69 5.69 0 0 0 2.65-1.42.75.75 0 0 0 .07-.89.45.45 0 0 0-.72-.09 5.07 5.07 0 0 1-1.49.94l-.15.06s-.21.07-.07 0l-.22.07h-.21a.64.64 0 0 0-.44.72c.05.33.3.59.58.53z" class="C"/><path d="M140.5,356.05a.47.47,0,0,1,.43.23.75.75,0,0,1-.07.89,5.69,5.69,0,0,1-2.65,1.42.41.41,0,0,1-.42-.16h0a5.7,5.7,0,0,0,2.64-1.42.75.75,0,0,0,.08-.89Z" class="B D"/><path d="M142.53,356a6.27,6.27,0,0,0,2.43-1.92.75.75,0,0,0,0-.89.45.45,0,0,0-.72.05,5.72,5.72,0,0,1-1.35,1.21l-.15.09s-.19.11-.06,0l-.21.11-.2.1a.66.66,0,0,0-.34.79c.09.32.36.53.64.42Z" class="C"/><path d="M144.46,353a.44.44,0,0,1,.46.14.75.75,0,0,1,0,.89,6.27,6.27,0,0,1-2.43,1.92.42.42,0,0,1-.44-.09h0a6.27,6.27,0,0,0,2.44-1.91.75.75,0,0,0,0-.89Z" class="B D"/><path d="M146.45,352.15a7.31,7.31,0,0,0,2-2.6.73.73,0,0,0-.22-.85.47.47,0,0,0-.69.26,6.49,6.49,0,0,1-1.07,1.6l-.12.13-.05.05-.18.18-.18.15a.73.73,0,0,0-.17.87.46.46,0,0,0,.7.21Z" class="C"/><path d="M147.74,348.7a.42.42,0,0,1,.47,0,.73.73,0,0,1,.22.85,7.31,7.31,0,0,1-2,2.6.39.39,0,0,1-.44.05h0a7.31,7.31,0,0,0,2-2.6.74.74,0,0,0-.22-.86Z" class="B D"/><path d="M149.36,347.56a8.8,8.8,0,0,0,1.15-3.27.63.63,0,0,0-.44-.71c-.28-.05-.53.2-.58.54a7.85,7.85,0,0,1-.57,1.94c0,.06,0,.12-.07.17s-.12.23,0,.08l-.12.24a2.53,2.53,0,0,1-.13.22.75.75,0,0,0,.08.89.46.46,0,0,0,.72-.1Z" class="C"/><path d="M149.63 343.78a.44.44 0 0 1 .44-.2.63.63 0 0 1 .44.71 8.8 8.8 0 0 1-1.15 3.27.46.46 0 0 1-.4.23h0a8.61 8.61 0 0 0 1.14-3.27.62.62 0 0 0-.43-.71z" class="B D"/><path d="M150.82,342a8.8,8.8,0,0,0,1.15-3.27.62.62,0,0,0-.44-.71.55.55,0,0,0-.58.53,7,7,0,0,1-.57,2s0,.11-.07.17-.11.23,0,.07l-.12.24a1.59,1.59,0,0,1-.13.22.76.76,0,0,0,.08.89.45.45,0,0,0,.72-.09Z" class="C"/><path d="M151.09 338.26a.45.45 0 0 1 .44-.2.62.62 0 0 1 .44.71 8.62 8.62 0 0 1-1.15 3.27.46.46 0 0 1-.4.23h0a8.67 8.67 0 0 0 1.14-3.27.64.64 0 0 0-.43-.72z" class="B D"/><g class="F"><path d="M283.85 229.91c-.61 11.8-8.79 22.36-43 54.38-4.73 4.43-41.09-14.65-38.87-21.22 2.68-7.92 29.64-33.69 31.67-35.15 17.15-12.3 50.61-6.02 50.2 1.99z"/><path d="M205.3 257.9s-11.86 15.73-15.53 25.92c-4.93 13.64-3.56 27.45-2.63 33.2 1.92 12 14.88 39.71 23.51 37.36 7.81-2.11-6.86-29.76-6.86-29.76S214.1 355.28 223 351s-9.93-35.4-9.93-35.4 11.3 31.25 19.82 25.38c6.43-4.44-9.06-33.58-9.06-33.58s9.9 26.8 16.71 22.52c7.53-4.73-5.08-32.53-5.08-32.53 15.49-13.8 17.22-26.7 17.36-36 .08-2.28-47.52-3.49-47.52-3.49z"/></g><path d="M199.54 314.25c1.08 3.64 2.15 7.34 3.55 10.88s2.93 7 4.65 10.41c4.23 8.32 8.18 12.86 8 12.55-5.05-7.26-10.26-19.84-11.66-23.38s-3-7-4.38-10.52c-.06-.09-.19-.03-.16.06zm12.67-5.25c1.59 4.59 3 9.21 4.77 13.74s3.86 8.62 5.94 13c.16.34.29.14.14-.2-1.9-4.45-3.32-8.71-5.17-13.18s-3.89-8.87-5.57-13.39c-.03-.13-.13-.08-.11.03zm10.07-6.54c2.05 7.14 5.43 13.9 8.9 20.45.17.32.31 0 .15-.29-3.09-6.74-5.56-12-8.81-20.23-.05-.13-.29-.08-.24.07zm37.02-81.82a48.48 48.48 0 0 0-21.91 4.57c-7.78 3.73-24.48 22.42-28.69 28-.07.1 0 .26.11.17 6.58-6.37 19.57-21.39 29.61-27 3.83-2.16 13-5 20.89-5.54a.1.1 0 0 0-.01-.2z" class="E"/><path d="M136.76 251.85c-2.53 23.15-2.3 69.58 9.16 84.63 11 14.42 28.52-24.3 28.86-26.69 2.28-16.21-5.07-38-18.29-64.47-12.08-24.13-17.61-12.8-19.73 6.53z" class="F"/><path d="M132,307l42.75-23.14s-9.3-29.53-19.55-45.48c-7.83-12.17-15.24-8.69-17.41.66C130.58,270.25,132,307,132,307Z" class="I"/><path d="M146.89 249.6l2.26 4.48-5.15-1.53-1.13 6.5-4.1-6.65-3.61.54.56-3.44.39-.42-.26-.33.65-3.55 1.61.3 3-5.86 2.49 5.07 6.25-.94zm12.41 29.17l4.37.9-1.77-3.93 2.86-2.57-4.4-.9-.36-3.87-2.35 3.22-3.55-1.79L156 274l-3.6 3.91 4.47-.45-.05 3.64z" class="G"/><path d="M169.54 277.75c-6.84 3.09-25.13 12-36.26 19.38-.07.05.07.32.14.29 10.18-4.73 29.78-15.59 36.32-19.27.13-.07-.07-.46-.2-.4zm5.73 5.95c-1.18-3.78-4.3-12-5.76-15.7-.19-1.11-.39-2.23-.65-3.33a22.42 22.42 0 0 0-1.37-4.15.05.05 0 0 0-.1 0c.17.68.41 1.35.59 2s.35 1.37.53 2.05a43.83 43.83 0 0 1 .5 2.12c-1.44-3.61-3-7.18-4.67-10.68a.09.09 0 0 0-.16.06c1.21 4 2.59 7.88 4.1 11.74s4.44 12.14 6.16 15.8c-.58.36-1.15.71-1.7 1.12a.16.16 0 0 0 .14.28c.74-.26 1.44-.58 2.16-.89a.39.39 0 0 0 .23-.42zm-44.16 24.85c-.15-1.06.33-26.75.86-31.29-.1-1.13-.21-2.26-.24-3.39a21.92 21.92 0 0 1 .23-4.36.06.06 0 1 1 .11 0c0 .7.26 4.69.31 5.41a94 94 0 0 1 1.27-11.31c0-.1.18-.1.17 0-.9 12.47-1.84 40.12-1.77 43.32.59-.26 4-2.2 4.7-2.48.16-.07.1.36-.05.47-1.14.83-5.56 3.85-5.59 3.63z" class="E"/><g class="F"><path d="M147.35 337.45c-4.84-12.33 8.26-49.58 32.06-90.07 3.68-6.27 45 11 42.43 18.34-3.28 9.22-25.23 49.9-26.63 52.32-11.81 20.49-44.57 27.78-47.86 19.41z"/><path d="M191.72 227.85c-2.07 2.26-3.28 1.19-2.87-4.25s6.62-26.62-.95-28.16S172 223.9 172 233s3.24 23.83 3.24 23.83c2.81-5.51 10.86-18.24 16.48-28.98z"/><path d="M217.87,272.83c9.47-16.27,17.35-35.07,15.39-54.63a9.71,9.71,0,0,0-2.52-5.85c-.72-8.78-5.09-11.08-5.09-11.08-3.17-8-8-9.71-8-9.71s-1.45-7-6.4-6.32c-4.8.63-6.38,12.51-9.78,21.44-7.79,20.47-23.43,44.48-26.26,50.16Z"/></g><path d="M209.57 231c2.17-6.07 4.46-12 5.8-18.31 1.47-6.94 1.72-13.87 2.14-20.92a.17.17 0 0 1 .34 0c1.25 12.88-2 27.88-8 39.34-.15.23-.39.15-.28-.11zm11.67 6.45c1.79-6 4.86-16.63 4.2-36.18 0-.06.11-.08.12 0a66.82 66.82 0 0 1-4 36.28c-.17.35-.43.3-.32-.1zm6.34 3.37c2.65-10.35 3-17.22 3.11-28.43 0-.06.11-.08.12 0 1.21 12.76.21 17.52-2.89 28.58-.1.37-.44.26-.34-.15zm-79.17 76.03a231.86 231.86 0 0 1 26-61.63v.32a136.28 136.28 0 0 1-2.83-19c-.59-6.43 1-12.82 2.65-19 .85-3.09 1.82-6.14 3-9.14 1.82-4.43 3.6-9.23 7.37-12.44a4.21 4.21 0 0 1 6.66 1.55 15.79 15.79 0 0 1 1 7.26A95.22 95.22 0 0 1 190 219c-.37 1.85-1.74 8.78.21 9.52a11.07 11.07 0 0 0 2-2.67 141.06 141.06 0 0 0 8.44-17.08c2.37-5 5.16-26.1 12.84-23.33-7.67-2.65-10.09 18.52-12.37 23.5a137.8 137.8 0 0 1-8.32 17.27 9.29 9.29 0 0 1-2.31 3c-3.39.47-1.7-8.46-1.32-10.36 1.12-6.08 2.8-12.6 1.88-18.77-.39-3.14-3.1-5.67-6-3.36-3.55 3.06-5.28 7.77-7 12a114.84 114.84 0 0 0-2.93 9.05c-1.62 6.13-3.27 12.34-2.69 18.67a136.47 136.47 0 0 0 2.76 18.84v.17l-.09.15a243 243 0 0 0-26.74 61.18zm-11.66-12.38c1 8.72 4.3 30 12.36 34.37 5.71 2.52 12.4 1.32 18.22-.31a49 49 0 0 0 23.33-14.85c5.79-7.4 10-15.9 14.46-24.15 5.8-11.15 11.16-22.53 16.37-34a87.79 87.79 0 0 0 11.73-35.73 69.2 69.2 0 0 0 0-12.63 69.43 69.43 0 0 1 .22 12.65 86.06 86.06 0 0 1-11.27 36Q214.57 283.15 206 300c-4.43 8.33-8.71 16.88-14.59 24.32a49.91 49.91 0 0 1-23.81 15c-6 1.61-12.82 2.76-18.75.07-8.41-4.65-11.19-25.91-12.07-34.94z" class="E"/><defs ><path id="B" d="M412.05 449.53c4.19-1.4.47-13.49-4.19-17.22-1.48-1.19-7-4-13.87-7.31-15.17-7.29-37-17-37-17l-15.69-67.3-75.73.41 13.72 67.11v.85c.65 20.87 1.68 38 3.4 39 4.63 2.93 125.15 2.87 129.36 1.46z"/><path id="C" d="M392.83 424.57a21 21 0 0 0-15.68 6.35c-3.27 3.55-6.06 8.54-5.9 14 0 .16.3.16.32 0 1.52-10.24 10.87-19.22 21.26-20a.17.17 0 0 0 0-.35z"/></defs></svg>